%TF.GenerationSoftware,KiCad,Pcbnew,9.0.0*%
%TF.CreationDate,2025-04-24T17:44:58-04:00*%
%TF.ProjectId,power_systems,706f7765-725f-4737-9973-74656d732e6b,rev?*%
%TF.SameCoordinates,Original*%
%TF.FileFunction,Legend,Top*%
%TF.FilePolarity,Positive*%
%FSLAX46Y46*%
G04 Gerber Fmt 4.6, Leading zero omitted, Abs format (unit mm)*
G04 Created by KiCad (PCBNEW 9.0.0) date 2025-04-24 17:44:58*
%MOMM*%
%LPD*%
G01*
G04 APERTURE LIST*
%ADD10C,0.100000*%
%ADD11C,0.150000*%
%ADD12C,0.120000*%
G04 APERTURE END LIST*
D10*
X92991466Y-50976115D02*
X92991466Y-50214211D01*
X93372419Y-50595163D02*
X92610514Y-50595163D01*
X92372419Y-49261830D02*
X92372419Y-49738020D01*
X92372419Y-49738020D02*
X92848609Y-49785639D01*
X92848609Y-49785639D02*
X92800990Y-49738020D01*
X92800990Y-49738020D02*
X92753371Y-49642782D01*
X92753371Y-49642782D02*
X92753371Y-49404687D01*
X92753371Y-49404687D02*
X92800990Y-49309449D01*
X92800990Y-49309449D02*
X92848609Y-49261830D01*
X92848609Y-49261830D02*
X92943847Y-49214211D01*
X92943847Y-49214211D02*
X93181942Y-49214211D01*
X93181942Y-49214211D02*
X93277180Y-49261830D01*
X93277180Y-49261830D02*
X93324800Y-49309449D01*
X93324800Y-49309449D02*
X93372419Y-49404687D01*
X93372419Y-49404687D02*
X93372419Y-49642782D01*
X93372419Y-49642782D02*
X93324800Y-49738020D01*
X93324800Y-49738020D02*
X93277180Y-49785639D01*
X92372419Y-48928496D02*
X93372419Y-48595163D01*
X93372419Y-48595163D02*
X92372419Y-48261830D01*
X26520038Y-52872306D02*
X26472419Y-52967544D01*
X26472419Y-52967544D02*
X26472419Y-53110401D01*
X26472419Y-53110401D02*
X26520038Y-53253258D01*
X26520038Y-53253258D02*
X26615276Y-53348496D01*
X26615276Y-53348496D02*
X26710514Y-53396115D01*
X26710514Y-53396115D02*
X26900990Y-53443734D01*
X26900990Y-53443734D02*
X27043847Y-53443734D01*
X27043847Y-53443734D02*
X27234323Y-53396115D01*
X27234323Y-53396115D02*
X27329561Y-53348496D01*
X27329561Y-53348496D02*
X27424800Y-53253258D01*
X27424800Y-53253258D02*
X27472419Y-53110401D01*
X27472419Y-53110401D02*
X27472419Y-53015163D01*
X27472419Y-53015163D02*
X27424800Y-52872306D01*
X27424800Y-52872306D02*
X27377180Y-52824687D01*
X27377180Y-52824687D02*
X27043847Y-52824687D01*
X27043847Y-52824687D02*
X27043847Y-53015163D01*
X27472419Y-52396115D02*
X26472419Y-52396115D01*
X26472419Y-52396115D02*
X27472419Y-51824687D01*
X27472419Y-51824687D02*
X26472419Y-51824687D01*
X27472419Y-51348496D02*
X26472419Y-51348496D01*
X26472419Y-51348496D02*
X26472419Y-51110401D01*
X26472419Y-51110401D02*
X26520038Y-50967544D01*
X26520038Y-50967544D02*
X26615276Y-50872306D01*
X26615276Y-50872306D02*
X26710514Y-50824687D01*
X26710514Y-50824687D02*
X26900990Y-50777068D01*
X26900990Y-50777068D02*
X27043847Y-50777068D01*
X27043847Y-50777068D02*
X27234323Y-50824687D01*
X27234323Y-50824687D02*
X27329561Y-50872306D01*
X27329561Y-50872306D02*
X27424800Y-50967544D01*
X27424800Y-50967544D02*
X27472419Y-51110401D01*
X27472419Y-51110401D02*
X27472419Y-51348496D01*
X26991466Y-58396115D02*
X26991466Y-57634211D01*
X27372419Y-58015163D02*
X26610514Y-58015163D01*
X26372419Y-57300877D02*
X27372419Y-56967544D01*
X27372419Y-56967544D02*
X26372419Y-56634211D01*
X92691466Y-70796115D02*
X92691466Y-70034211D01*
X93072419Y-70415163D02*
X92310514Y-70415163D01*
X93072419Y-69034211D02*
X93072419Y-69605639D01*
X93072419Y-69319925D02*
X92072419Y-69319925D01*
X92072419Y-69319925D02*
X92215276Y-69415163D01*
X92215276Y-69415163D02*
X92310514Y-69510401D01*
X92310514Y-69510401D02*
X92358133Y-69605639D01*
X92167657Y-68653258D02*
X92120038Y-68605639D01*
X92120038Y-68605639D02*
X92072419Y-68510401D01*
X92072419Y-68510401D02*
X92072419Y-68272306D01*
X92072419Y-68272306D02*
X92120038Y-68177068D01*
X92120038Y-68177068D02*
X92167657Y-68129449D01*
X92167657Y-68129449D02*
X92262895Y-68081830D01*
X92262895Y-68081830D02*
X92358133Y-68081830D01*
X92358133Y-68081830D02*
X92500990Y-68129449D01*
X92500990Y-68129449D02*
X93072419Y-68700877D01*
X93072419Y-68700877D02*
X93072419Y-68081830D01*
X92072419Y-67796115D02*
X93072419Y-67462782D01*
X93072419Y-67462782D02*
X92072419Y-67129449D01*
X92420038Y-44572306D02*
X92372419Y-44667544D01*
X92372419Y-44667544D02*
X92372419Y-44810401D01*
X92372419Y-44810401D02*
X92420038Y-44953258D01*
X92420038Y-44953258D02*
X92515276Y-45048496D01*
X92515276Y-45048496D02*
X92610514Y-45096115D01*
X92610514Y-45096115D02*
X92800990Y-45143734D01*
X92800990Y-45143734D02*
X92943847Y-45143734D01*
X92943847Y-45143734D02*
X93134323Y-45096115D01*
X93134323Y-45096115D02*
X93229561Y-45048496D01*
X93229561Y-45048496D02*
X93324800Y-44953258D01*
X93324800Y-44953258D02*
X93372419Y-44810401D01*
X93372419Y-44810401D02*
X93372419Y-44715163D01*
X93372419Y-44715163D02*
X93324800Y-44572306D01*
X93324800Y-44572306D02*
X93277180Y-44524687D01*
X93277180Y-44524687D02*
X92943847Y-44524687D01*
X92943847Y-44524687D02*
X92943847Y-44715163D01*
X93372419Y-44096115D02*
X92372419Y-44096115D01*
X92372419Y-44096115D02*
X93372419Y-43524687D01*
X93372419Y-43524687D02*
X92372419Y-43524687D01*
X93372419Y-43048496D02*
X92372419Y-43048496D01*
X92372419Y-43048496D02*
X92372419Y-42810401D01*
X92372419Y-42810401D02*
X92420038Y-42667544D01*
X92420038Y-42667544D02*
X92515276Y-42572306D01*
X92515276Y-42572306D02*
X92610514Y-42524687D01*
X92610514Y-42524687D02*
X92800990Y-42477068D01*
X92800990Y-42477068D02*
X92943847Y-42477068D01*
X92943847Y-42477068D02*
X93134323Y-42524687D01*
X93134323Y-42524687D02*
X93229561Y-42572306D01*
X93229561Y-42572306D02*
X93324800Y-42667544D01*
X93324800Y-42667544D02*
X93372419Y-42810401D01*
X93372419Y-42810401D02*
X93372419Y-43048496D01*
X92220038Y-64372306D02*
X92172419Y-64467544D01*
X92172419Y-64467544D02*
X92172419Y-64610401D01*
X92172419Y-64610401D02*
X92220038Y-64753258D01*
X92220038Y-64753258D02*
X92315276Y-64848496D01*
X92315276Y-64848496D02*
X92410514Y-64896115D01*
X92410514Y-64896115D02*
X92600990Y-64943734D01*
X92600990Y-64943734D02*
X92743847Y-64943734D01*
X92743847Y-64943734D02*
X92934323Y-64896115D01*
X92934323Y-64896115D02*
X93029561Y-64848496D01*
X93029561Y-64848496D02*
X93124800Y-64753258D01*
X93124800Y-64753258D02*
X93172419Y-64610401D01*
X93172419Y-64610401D02*
X93172419Y-64515163D01*
X93172419Y-64515163D02*
X93124800Y-64372306D01*
X93124800Y-64372306D02*
X93077180Y-64324687D01*
X93077180Y-64324687D02*
X92743847Y-64324687D01*
X92743847Y-64324687D02*
X92743847Y-64515163D01*
X93172419Y-63896115D02*
X92172419Y-63896115D01*
X92172419Y-63896115D02*
X93172419Y-63324687D01*
X93172419Y-63324687D02*
X92172419Y-63324687D01*
X93172419Y-62848496D02*
X92172419Y-62848496D01*
X92172419Y-62848496D02*
X92172419Y-62610401D01*
X92172419Y-62610401D02*
X92220038Y-62467544D01*
X92220038Y-62467544D02*
X92315276Y-62372306D01*
X92315276Y-62372306D02*
X92410514Y-62324687D01*
X92410514Y-62324687D02*
X92600990Y-62277068D01*
X92600990Y-62277068D02*
X92743847Y-62277068D01*
X92743847Y-62277068D02*
X92934323Y-62324687D01*
X92934323Y-62324687D02*
X93029561Y-62372306D01*
X93029561Y-62372306D02*
X93124800Y-62467544D01*
X93124800Y-62467544D02*
X93172419Y-62610401D01*
X93172419Y-62610401D02*
X93172419Y-62848496D01*
D11*
X84234819Y-66883333D02*
X84949104Y-66883333D01*
X84949104Y-66883333D02*
X85091961Y-66930952D01*
X85091961Y-66930952D02*
X85187200Y-67026190D01*
X85187200Y-67026190D02*
X85234819Y-67169047D01*
X85234819Y-67169047D02*
X85234819Y-67264285D01*
X84234819Y-66502380D02*
X84234819Y-65883333D01*
X84234819Y-65883333D02*
X84615771Y-66216666D01*
X84615771Y-66216666D02*
X84615771Y-66073809D01*
X84615771Y-66073809D02*
X84663390Y-65978571D01*
X84663390Y-65978571D02*
X84711009Y-65930952D01*
X84711009Y-65930952D02*
X84806247Y-65883333D01*
X84806247Y-65883333D02*
X85044342Y-65883333D01*
X85044342Y-65883333D02*
X85139580Y-65930952D01*
X85139580Y-65930952D02*
X85187200Y-65978571D01*
X85187200Y-65978571D02*
X85234819Y-66073809D01*
X85234819Y-66073809D02*
X85234819Y-66359523D01*
X85234819Y-66359523D02*
X85187200Y-66454761D01*
X85187200Y-66454761D02*
X85139580Y-66502380D01*
X78433333Y-44359580D02*
X78385714Y-44407200D01*
X78385714Y-44407200D02*
X78242857Y-44454819D01*
X78242857Y-44454819D02*
X78147619Y-44454819D01*
X78147619Y-44454819D02*
X78004762Y-44407200D01*
X78004762Y-44407200D02*
X77909524Y-44311961D01*
X77909524Y-44311961D02*
X77861905Y-44216723D01*
X77861905Y-44216723D02*
X77814286Y-44026247D01*
X77814286Y-44026247D02*
X77814286Y-43883390D01*
X77814286Y-43883390D02*
X77861905Y-43692914D01*
X77861905Y-43692914D02*
X77909524Y-43597676D01*
X77909524Y-43597676D02*
X78004762Y-43502438D01*
X78004762Y-43502438D02*
X78147619Y-43454819D01*
X78147619Y-43454819D02*
X78242857Y-43454819D01*
X78242857Y-43454819D02*
X78385714Y-43502438D01*
X78385714Y-43502438D02*
X78433333Y-43550057D01*
X78814286Y-43550057D02*
X78861905Y-43502438D01*
X78861905Y-43502438D02*
X78957143Y-43454819D01*
X78957143Y-43454819D02*
X79195238Y-43454819D01*
X79195238Y-43454819D02*
X79290476Y-43502438D01*
X79290476Y-43502438D02*
X79338095Y-43550057D01*
X79338095Y-43550057D02*
X79385714Y-43645295D01*
X79385714Y-43645295D02*
X79385714Y-43740533D01*
X79385714Y-43740533D02*
X79338095Y-43883390D01*
X79338095Y-43883390D02*
X78766667Y-44454819D01*
X78766667Y-44454819D02*
X79385714Y-44454819D01*
X84334819Y-47483333D02*
X85049104Y-47483333D01*
X85049104Y-47483333D02*
X85191961Y-47530952D01*
X85191961Y-47530952D02*
X85287200Y-47626190D01*
X85287200Y-47626190D02*
X85334819Y-47769047D01*
X85334819Y-47769047D02*
X85334819Y-47864285D01*
X84430057Y-47054761D02*
X84382438Y-47007142D01*
X84382438Y-47007142D02*
X84334819Y-46911904D01*
X84334819Y-46911904D02*
X84334819Y-46673809D01*
X84334819Y-46673809D02*
X84382438Y-46578571D01*
X84382438Y-46578571D02*
X84430057Y-46530952D01*
X84430057Y-46530952D02*
X84525295Y-46483333D01*
X84525295Y-46483333D02*
X84620533Y-46483333D01*
X84620533Y-46483333D02*
X84763390Y-46530952D01*
X84763390Y-46530952D02*
X85334819Y-47102380D01*
X85334819Y-47102380D02*
X85334819Y-46483333D01*
X77933333Y-63359580D02*
X77885714Y-63407200D01*
X77885714Y-63407200D02*
X77742857Y-63454819D01*
X77742857Y-63454819D02*
X77647619Y-63454819D01*
X77647619Y-63454819D02*
X77504762Y-63407200D01*
X77504762Y-63407200D02*
X77409524Y-63311961D01*
X77409524Y-63311961D02*
X77361905Y-63216723D01*
X77361905Y-63216723D02*
X77314286Y-63026247D01*
X77314286Y-63026247D02*
X77314286Y-62883390D01*
X77314286Y-62883390D02*
X77361905Y-62692914D01*
X77361905Y-62692914D02*
X77409524Y-62597676D01*
X77409524Y-62597676D02*
X77504762Y-62502438D01*
X77504762Y-62502438D02*
X77647619Y-62454819D01*
X77647619Y-62454819D02*
X77742857Y-62454819D01*
X77742857Y-62454819D02*
X77885714Y-62502438D01*
X77885714Y-62502438D02*
X77933333Y-62550057D01*
X78266667Y-62454819D02*
X78885714Y-62454819D01*
X78885714Y-62454819D02*
X78552381Y-62835771D01*
X78552381Y-62835771D02*
X78695238Y-62835771D01*
X78695238Y-62835771D02*
X78790476Y-62883390D01*
X78790476Y-62883390D02*
X78838095Y-62931009D01*
X78838095Y-62931009D02*
X78885714Y-63026247D01*
X78885714Y-63026247D02*
X78885714Y-63264342D01*
X78885714Y-63264342D02*
X78838095Y-63359580D01*
X78838095Y-63359580D02*
X78790476Y-63407200D01*
X78790476Y-63407200D02*
X78695238Y-63454819D01*
X78695238Y-63454819D02*
X78409524Y-63454819D01*
X78409524Y-63454819D02*
X78314286Y-63407200D01*
X78314286Y-63407200D02*
X78266667Y-63359580D01*
X38633333Y-44559580D02*
X38585714Y-44607200D01*
X38585714Y-44607200D02*
X38442857Y-44654819D01*
X38442857Y-44654819D02*
X38347619Y-44654819D01*
X38347619Y-44654819D02*
X38204762Y-44607200D01*
X38204762Y-44607200D02*
X38109524Y-44511961D01*
X38109524Y-44511961D02*
X38061905Y-44416723D01*
X38061905Y-44416723D02*
X38014286Y-44226247D01*
X38014286Y-44226247D02*
X38014286Y-44083390D01*
X38014286Y-44083390D02*
X38061905Y-43892914D01*
X38061905Y-43892914D02*
X38109524Y-43797676D01*
X38109524Y-43797676D02*
X38204762Y-43702438D01*
X38204762Y-43702438D02*
X38347619Y-43654819D01*
X38347619Y-43654819D02*
X38442857Y-43654819D01*
X38442857Y-43654819D02*
X38585714Y-43702438D01*
X38585714Y-43702438D02*
X38633333Y-43750057D01*
X39585714Y-44654819D02*
X39014286Y-44654819D01*
X39300000Y-44654819D02*
X39300000Y-43654819D01*
X39300000Y-43654819D02*
X39204762Y-43797676D01*
X39204762Y-43797676D02*
X39109524Y-43892914D01*
X39109524Y-43892914D02*
X39014286Y-43940533D01*
X54213095Y-59704819D02*
X54213095Y-60514342D01*
X54213095Y-60514342D02*
X54260714Y-60609580D01*
X54260714Y-60609580D02*
X54308333Y-60657200D01*
X54308333Y-60657200D02*
X54403571Y-60704819D01*
X54403571Y-60704819D02*
X54594047Y-60704819D01*
X54594047Y-60704819D02*
X54689285Y-60657200D01*
X54689285Y-60657200D02*
X54736904Y-60609580D01*
X54736904Y-60609580D02*
X54784523Y-60514342D01*
X54784523Y-60514342D02*
X54784523Y-59704819D01*
X55213095Y-59800057D02*
X55260714Y-59752438D01*
X55260714Y-59752438D02*
X55355952Y-59704819D01*
X55355952Y-59704819D02*
X55594047Y-59704819D01*
X55594047Y-59704819D02*
X55689285Y-59752438D01*
X55689285Y-59752438D02*
X55736904Y-59800057D01*
X55736904Y-59800057D02*
X55784523Y-59895295D01*
X55784523Y-59895295D02*
X55784523Y-59990533D01*
X55784523Y-59990533D02*
X55736904Y-60133390D01*
X55736904Y-60133390D02*
X55165476Y-60704819D01*
X55165476Y-60704819D02*
X55784523Y-60704819D01*
X38133333Y-64259580D02*
X38085714Y-64307200D01*
X38085714Y-64307200D02*
X37942857Y-64354819D01*
X37942857Y-64354819D02*
X37847619Y-64354819D01*
X37847619Y-64354819D02*
X37704762Y-64307200D01*
X37704762Y-64307200D02*
X37609524Y-64211961D01*
X37609524Y-64211961D02*
X37561905Y-64116723D01*
X37561905Y-64116723D02*
X37514286Y-63926247D01*
X37514286Y-63926247D02*
X37514286Y-63783390D01*
X37514286Y-63783390D02*
X37561905Y-63592914D01*
X37561905Y-63592914D02*
X37609524Y-63497676D01*
X37609524Y-63497676D02*
X37704762Y-63402438D01*
X37704762Y-63402438D02*
X37847619Y-63354819D01*
X37847619Y-63354819D02*
X37942857Y-63354819D01*
X37942857Y-63354819D02*
X38085714Y-63402438D01*
X38085714Y-63402438D02*
X38133333Y-63450057D01*
X38990476Y-63688152D02*
X38990476Y-64354819D01*
X38752381Y-63307200D02*
X38514286Y-64021485D01*
X38514286Y-64021485D02*
X39133333Y-64021485D01*
X67761905Y-72404819D02*
X67761905Y-71404819D01*
X67761905Y-71404819D02*
X68000000Y-71404819D01*
X68000000Y-71404819D02*
X68142857Y-71452438D01*
X68142857Y-71452438D02*
X68238095Y-71547676D01*
X68238095Y-71547676D02*
X68285714Y-71642914D01*
X68285714Y-71642914D02*
X68333333Y-71833390D01*
X68333333Y-71833390D02*
X68333333Y-71976247D01*
X68333333Y-71976247D02*
X68285714Y-72166723D01*
X68285714Y-72166723D02*
X68238095Y-72261961D01*
X68238095Y-72261961D02*
X68142857Y-72357200D01*
X68142857Y-72357200D02*
X68000000Y-72404819D01*
X68000000Y-72404819D02*
X67761905Y-72404819D01*
X68714286Y-71500057D02*
X68761905Y-71452438D01*
X68761905Y-71452438D02*
X68857143Y-71404819D01*
X68857143Y-71404819D02*
X69095238Y-71404819D01*
X69095238Y-71404819D02*
X69190476Y-71452438D01*
X69190476Y-71452438D02*
X69238095Y-71500057D01*
X69238095Y-71500057D02*
X69285714Y-71595295D01*
X69285714Y-71595295D02*
X69285714Y-71690533D01*
X69285714Y-71690533D02*
X69238095Y-71833390D01*
X69238095Y-71833390D02*
X68666667Y-72404819D01*
X68666667Y-72404819D02*
X69285714Y-72404819D01*
X53888095Y-39604819D02*
X53888095Y-40414342D01*
X53888095Y-40414342D02*
X53935714Y-40509580D01*
X53935714Y-40509580D02*
X53983333Y-40557200D01*
X53983333Y-40557200D02*
X54078571Y-40604819D01*
X54078571Y-40604819D02*
X54269047Y-40604819D01*
X54269047Y-40604819D02*
X54364285Y-40557200D01*
X54364285Y-40557200D02*
X54411904Y-40509580D01*
X54411904Y-40509580D02*
X54459523Y-40414342D01*
X54459523Y-40414342D02*
X54459523Y-39604819D01*
X55459523Y-40604819D02*
X54888095Y-40604819D01*
X55173809Y-40604819D02*
X55173809Y-39604819D01*
X55173809Y-39604819D02*
X55078571Y-39747676D01*
X55078571Y-39747676D02*
X54983333Y-39842914D01*
X54983333Y-39842914D02*
X54888095Y-39890533D01*
X68833333Y-37804819D02*
X68357143Y-37804819D01*
X68357143Y-37804819D02*
X68357143Y-36804819D01*
X69690476Y-37804819D02*
X69119048Y-37804819D01*
X69404762Y-37804819D02*
X69404762Y-36804819D01*
X69404762Y-36804819D02*
X69309524Y-36947676D01*
X69309524Y-36947676D02*
X69214286Y-37042914D01*
X69214286Y-37042914D02*
X69119048Y-37090533D01*
X68533333Y-61404819D02*
X68057143Y-61404819D01*
X68057143Y-61404819D02*
X68057143Y-60404819D01*
X68819048Y-60500057D02*
X68866667Y-60452438D01*
X68866667Y-60452438D02*
X68961905Y-60404819D01*
X68961905Y-60404819D02*
X69200000Y-60404819D01*
X69200000Y-60404819D02*
X69295238Y-60452438D01*
X69295238Y-60452438D02*
X69342857Y-60500057D01*
X69342857Y-60500057D02*
X69390476Y-60595295D01*
X69390476Y-60595295D02*
X69390476Y-60690533D01*
X69390476Y-60690533D02*
X69342857Y-60833390D01*
X69342857Y-60833390D02*
X68771429Y-61404819D01*
X68771429Y-61404819D02*
X69390476Y-61404819D01*
X34374819Y-55183333D02*
X35089104Y-55183333D01*
X35089104Y-55183333D02*
X35231961Y-55230952D01*
X35231961Y-55230952D02*
X35327200Y-55326190D01*
X35327200Y-55326190D02*
X35374819Y-55469047D01*
X35374819Y-55469047D02*
X35374819Y-55564285D01*
X35374819Y-54183333D02*
X35374819Y-54754761D01*
X35374819Y-54469047D02*
X34374819Y-54469047D01*
X34374819Y-54469047D02*
X34517676Y-54564285D01*
X34517676Y-54564285D02*
X34612914Y-54659523D01*
X34612914Y-54659523D02*
X34660533Y-54754761D01*
X68061905Y-50204819D02*
X68061905Y-49204819D01*
X68061905Y-49204819D02*
X68300000Y-49204819D01*
X68300000Y-49204819D02*
X68442857Y-49252438D01*
X68442857Y-49252438D02*
X68538095Y-49347676D01*
X68538095Y-49347676D02*
X68585714Y-49442914D01*
X68585714Y-49442914D02*
X68633333Y-49633390D01*
X68633333Y-49633390D02*
X68633333Y-49776247D01*
X68633333Y-49776247D02*
X68585714Y-49966723D01*
X68585714Y-49966723D02*
X68538095Y-50061961D01*
X68538095Y-50061961D02*
X68442857Y-50157200D01*
X68442857Y-50157200D02*
X68300000Y-50204819D01*
X68300000Y-50204819D02*
X68061905Y-50204819D01*
X69585714Y-50204819D02*
X69014286Y-50204819D01*
X69300000Y-50204819D02*
X69300000Y-49204819D01*
X69300000Y-49204819D02*
X69204762Y-49347676D01*
X69204762Y-49347676D02*
X69109524Y-49442914D01*
X69109524Y-49442914D02*
X69014286Y-49490533D01*
D12*
%TO.C,J3*%
X85780000Y-61180000D02*
X93820000Y-61180000D01*
X85780000Y-71920000D02*
X85780000Y-61180000D01*
X85780000Y-71920000D02*
X93820000Y-71920000D01*
X89400000Y-61988000D02*
X89400000Y-61180000D01*
X89400000Y-66920000D02*
X89400000Y-65612000D01*
X89400000Y-71920000D02*
X89400000Y-70680000D01*
X90400000Y-61988000D02*
X90400000Y-61180000D01*
X90400000Y-66920000D02*
X90400000Y-65612000D01*
X90400000Y-71920000D02*
X90400000Y-70680000D01*
X91700000Y-63257000D02*
X91700000Y-61180000D01*
X91700000Y-66920000D02*
X91700000Y-64343000D01*
X91700000Y-71920000D02*
X91700000Y-70680000D01*
X93820000Y-68500000D02*
X93820000Y-61180000D01*
X93820000Y-71920000D02*
X93820000Y-69100000D01*
X94430000Y-69240000D02*
X93820000Y-68800000D01*
X94430000Y-68360000D01*
X94430000Y-69240000D01*
G36*
X94430000Y-69240000D02*
G01*
X93820000Y-68800000D01*
X94430000Y-68360000D01*
X94430000Y-69240000D01*
G37*
%TO.C,C2*%
X75600000Y-45640000D02*
X76100000Y-45640000D01*
X75850000Y-45390000D02*
X75850000Y-45890000D01*
X76340000Y-46004437D02*
X76340000Y-46140000D01*
X76340000Y-46004437D02*
X77404437Y-44940000D01*
X76340000Y-48395563D02*
X76340000Y-48260000D01*
X76340000Y-48395563D02*
X77404437Y-49460000D01*
X77404437Y-44940000D02*
X80860000Y-44940000D01*
X77404437Y-49460000D02*
X80860000Y-49460000D01*
X80860000Y-44940000D02*
X80860000Y-46140000D01*
X80860000Y-49460000D02*
X80860000Y-48260000D01*
%TO.C,J2*%
X85880000Y-41780000D02*
X93920000Y-41780000D01*
X85880000Y-52520000D02*
X85880000Y-41780000D01*
X85880000Y-52520000D02*
X93920000Y-52520000D01*
X89500000Y-42588000D02*
X89500000Y-41780000D01*
X89500000Y-47520000D02*
X89500000Y-46212000D01*
X89500000Y-52520000D02*
X89500000Y-51280000D01*
X90500000Y-42588000D02*
X90500000Y-41780000D01*
X90500000Y-47520000D02*
X90500000Y-46212000D01*
X90500000Y-52520000D02*
X90500000Y-51280000D01*
X91800000Y-43857000D02*
X91800000Y-41780000D01*
X91800000Y-47520000D02*
X91800000Y-44943000D01*
X91800000Y-52520000D02*
X91800000Y-51280000D01*
X93920000Y-49100000D02*
X93920000Y-41780000D01*
X93920000Y-52520000D02*
X93920000Y-49700000D01*
X94530000Y-49840000D02*
X93920000Y-49400000D01*
X94530000Y-48960000D01*
X94530000Y-49840000D01*
G36*
X94530000Y-49840000D02*
G01*
X93920000Y-49400000D01*
X94530000Y-48960000D01*
X94530000Y-49840000D01*
G37*
%TO.C,C3*%
X75100000Y-64640000D02*
X75600000Y-64640000D01*
X75350000Y-64390000D02*
X75350000Y-64890000D01*
X75840000Y-65004437D02*
X75840000Y-65140000D01*
X75840000Y-65004437D02*
X76904437Y-63940000D01*
X75840000Y-67395563D02*
X75840000Y-67260000D01*
X75840000Y-67395563D02*
X76904437Y-68460000D01*
X76904437Y-63940000D02*
X80360000Y-63940000D01*
X76904437Y-68460000D02*
X80360000Y-68460000D01*
X80360000Y-63940000D02*
X80360000Y-65140000D01*
X80360000Y-68460000D02*
X80360000Y-67260000D01*
%TO.C,C1*%
X36540000Y-38740000D02*
X36540000Y-39940000D01*
X36540000Y-43260000D02*
X36540000Y-42060000D01*
X39995563Y-38740000D02*
X36540000Y-38740000D01*
X39995563Y-43260000D02*
X36540000Y-43260000D01*
X41060000Y-39804437D02*
X39995563Y-38740000D01*
X41060000Y-39804437D02*
X41060000Y-39940000D01*
X41060000Y-42195563D02*
X39995563Y-43260000D01*
X41060000Y-42195563D02*
X41060000Y-42060000D01*
X41550000Y-42810000D02*
X41550000Y-42310000D01*
X41800000Y-42560000D02*
X41300000Y-42560000D01*
%TO.C,U2*%
X50150000Y-61700000D02*
X50150000Y-62650000D01*
X50150000Y-72100000D02*
X50150000Y-71150000D01*
X51515000Y-61700000D02*
X50150000Y-61700000D01*
X51515000Y-72100000D02*
X50150000Y-72100000D01*
X47325000Y-62690000D02*
X46985000Y-62220000D01*
X47665000Y-62220000D01*
X47325000Y-62690000D01*
G36*
X47325000Y-62690000D02*
G01*
X46985000Y-62220000D01*
X47665000Y-62220000D01*
X47325000Y-62690000D01*
G37*
%TO.C,C4*%
X35300000Y-65540000D02*
X35800000Y-65540000D01*
X35550000Y-65290000D02*
X35550000Y-65790000D01*
X36040000Y-65904437D02*
X36040000Y-66040000D01*
X36040000Y-65904437D02*
X37104437Y-64840000D01*
X36040000Y-68295563D02*
X36040000Y-68160000D01*
X36040000Y-68295563D02*
X37104437Y-69360000D01*
X37104437Y-64840000D02*
X40560000Y-64840000D01*
X37104437Y-69360000D02*
X40560000Y-69360000D01*
X40560000Y-64840000D02*
X40560000Y-66040000D01*
X40560000Y-69360000D02*
X40560000Y-68160000D01*
D10*
%TO.C,D2*%
X67690000Y-73000000D02*
G75*
G02*
X67590000Y-73000000I-50000J0D01*
G01*
X67590000Y-73000000D02*
G75*
G02*
X67690000Y-73000000I50000J0D01*
G01*
D12*
%TO.C,U1*%
X49825000Y-41600000D02*
X49825000Y-42550000D01*
X49825000Y-52000000D02*
X49825000Y-51050000D01*
X51190000Y-41600000D02*
X49825000Y-41600000D01*
X51190000Y-52000000D02*
X49825000Y-52000000D01*
X47000000Y-42590000D02*
X46660000Y-42120000D01*
X47340000Y-42120000D01*
X47000000Y-42590000D01*
G36*
X47000000Y-42590000D02*
G01*
X46660000Y-42120000D01*
X47340000Y-42120000D01*
X47000000Y-42590000D01*
G37*
%TO.C,L1*%
X65300000Y-38100000D02*
X72700000Y-38100000D01*
X65300000Y-40400000D02*
X65300000Y-38100000D01*
X65300000Y-45500000D02*
X65300000Y-43200000D01*
X72700000Y-38100000D02*
X72700000Y-40400000D01*
X72700000Y-43200000D02*
X72700000Y-45500000D01*
X72700000Y-45500000D02*
X65300000Y-45500000D01*
%TO.C,L2*%
X65000000Y-61700000D02*
X72400000Y-61700000D01*
X65000000Y-64000000D02*
X65000000Y-61700000D01*
X65000000Y-69100000D02*
X65000000Y-66800000D01*
X72400000Y-61700000D02*
X72400000Y-64000000D01*
X72400000Y-66800000D02*
X72400000Y-69100000D01*
X72400000Y-69100000D02*
X65000000Y-69100000D01*
%TO.C,J1*%
X25880000Y-49480000D02*
X25880000Y-52300000D01*
X25880000Y-52900000D02*
X25880000Y-60220000D01*
X28000000Y-49480000D02*
X28000000Y-50720000D01*
X28000000Y-54480000D02*
X28000000Y-57057000D01*
X28000000Y-58143000D02*
X28000000Y-60220000D01*
X29300000Y-49480000D02*
X29300000Y-50720000D01*
X29300000Y-54480000D02*
X29300000Y-55788000D01*
X29300000Y-59412000D02*
X29300000Y-60220000D01*
X30300000Y-49480000D02*
X30300000Y-50720000D01*
X30300000Y-54480000D02*
X30300000Y-55788000D01*
X30300000Y-59412000D02*
X30300000Y-60220000D01*
X33920000Y-49480000D02*
X25880000Y-49480000D01*
X33920000Y-49480000D02*
X33920000Y-60220000D01*
X33920000Y-60220000D02*
X25880000Y-60220000D01*
X25880000Y-52600000D02*
X25270000Y-53040000D01*
X25270000Y-52160000D01*
X25880000Y-52600000D01*
G36*
X25880000Y-52600000D02*
G01*
X25270000Y-53040000D01*
X25270000Y-52160000D01*
X25880000Y-52600000D01*
G37*
D10*
%TO.C,D1*%
X67990000Y-50800000D02*
G75*
G02*
X67890000Y-50800000I-50000J0D01*
G01*
X67890000Y-50800000D02*
G75*
G02*
X67990000Y-50800000I50000J0D01*
G01*
%TD*%
M02*
