%TF.GenerationSoftware,KiCad,Pcbnew,9.0.0*%
%TF.CreationDate,2025-04-24T17:44:58-04:00*%
%TF.ProjectId,power_systems,706f7765-725f-4737-9973-74656d732e6b,rev?*%
%TF.SameCoordinates,Original*%
%TF.FileFunction,Copper,L2,Bot*%
%TF.FilePolarity,Positive*%
%FSLAX46Y46*%
G04 Gerber Fmt 4.6, Leading zero omitted, Abs format (unit mm)*
G04 Created by KiCad (PCBNEW 9.0.0) date 2025-04-24 17:44:58*
%MOMM*%
%LPD*%
G01*
G04 APERTURE LIST*
G04 Aperture macros list*
%AMRoundRect*
0 Rectangle with rounded corners*
0 $1 Rounding radius*
0 $2 $3 $4 $5 $6 $7 $8 $9 X,Y pos of 4 corners*
0 Add a 4 corners polygon primitive as box body*
4,1,4,$2,$3,$4,$5,$6,$7,$8,$9,$2,$3,0*
0 Add four circle primitives for the rounded corners*
1,1,$1+$1,$2,$3*
1,1,$1+$1,$4,$5*
1,1,$1+$1,$6,$7*
1,1,$1+$1,$8,$9*
0 Add four rect primitives between the rounded corners*
20,1,$1+$1,$2,$3,$4,$5,0*
20,1,$1+$1,$4,$5,$6,$7,0*
20,1,$1+$1,$6,$7,$8,$9,0*
20,1,$1+$1,$8,$9,$2,$3,0*%
G04 Aperture macros list end*
%TA.AperFunction,ComponentPad*%
%ADD10RoundRect,0.250001X1.149999X-1.149999X1.149999X1.149999X-1.149999X1.149999X-1.149999X-1.149999X0*%
%TD*%
%TA.AperFunction,ComponentPad*%
%ADD11C,2.800000*%
%TD*%
%TA.AperFunction,ComponentPad*%
%ADD12RoundRect,0.250001X-1.149999X1.149999X-1.149999X-1.149999X1.149999X-1.149999X1.149999X1.149999X0*%
%TD*%
%TA.AperFunction,ViaPad*%
%ADD13C,0.600000*%
%TD*%
G04 APERTURE END LIST*
D10*
%TO.P,J3,1,Pin_1*%
%TO.N,Net-(J3-Pin_1)*%
X89900000Y-68800000D03*
D11*
%TO.P,J3,2,Pin_2*%
%TO.N,GND*%
X89900000Y-63800000D03*
%TD*%
D10*
%TO.P,J2,1,Pin_1*%
%TO.N,Net-(J2-Pin_1)*%
X90000000Y-49400000D03*
D11*
%TO.P,J2,2,Pin_2*%
%TO.N,GND*%
X90000000Y-44400000D03*
%TD*%
D12*
%TO.P,J1,1,Pin_1*%
%TO.N,GND*%
X29800000Y-52600000D03*
D11*
%TO.P,J1,2,Pin_2*%
%TO.N,Net-(J1-Pin_2)*%
X29800000Y-57600000D03*
%TD*%
D13*
%TO.N,GND*%
X47325000Y-66900000D03*
X47000000Y-46800000D03*
X47000000Y-50200000D03*
%TD*%
%TA.AperFunction,Conductor*%
%TO.N,GND*%
G36*
X97242539Y-36820185D02*
G01*
X97288294Y-36872989D01*
X97299500Y-36924500D01*
X97299500Y-75575500D01*
X97279815Y-75642539D01*
X97227011Y-75688294D01*
X97175500Y-75699500D01*
X22724500Y-75699500D01*
X22657461Y-75679815D01*
X22611706Y-75627011D01*
X22600500Y-75575500D01*
X22600500Y-67599984D01*
X87999500Y-67599984D01*
X87999500Y-70000015D01*
X88010000Y-70102795D01*
X88010001Y-70102796D01*
X88065186Y-70269335D01*
X88065187Y-70269337D01*
X88157286Y-70418651D01*
X88157289Y-70418655D01*
X88281344Y-70542710D01*
X88281348Y-70542713D01*
X88430662Y-70634812D01*
X88430664Y-70634813D01*
X88430666Y-70634814D01*
X88597203Y-70689999D01*
X88699992Y-70700500D01*
X88699997Y-70700500D01*
X91100003Y-70700500D01*
X91100008Y-70700500D01*
X91202797Y-70689999D01*
X91369334Y-70634814D01*
X91518655Y-70542711D01*
X91642711Y-70418655D01*
X91734814Y-70269334D01*
X91789999Y-70102797D01*
X91800500Y-70000008D01*
X91800500Y-67599992D01*
X91789999Y-67497203D01*
X91734814Y-67330666D01*
X91642711Y-67181345D01*
X91518655Y-67057289D01*
X91518651Y-67057286D01*
X91369337Y-66965187D01*
X91369335Y-66965186D01*
X91286065Y-66937593D01*
X91202797Y-66910001D01*
X91202795Y-66910000D01*
X91100015Y-66899500D01*
X91100008Y-66899500D01*
X88699992Y-66899500D01*
X88699984Y-66899500D01*
X88597204Y-66910000D01*
X88597203Y-66910001D01*
X88430664Y-66965186D01*
X88430662Y-66965187D01*
X88281348Y-67057286D01*
X88281344Y-67057289D01*
X88157289Y-67181344D01*
X88157286Y-67181348D01*
X88065187Y-67330662D01*
X88065186Y-67330664D01*
X88010001Y-67497203D01*
X88010000Y-67497204D01*
X87999500Y-67599984D01*
X22600500Y-67599984D01*
X22600500Y-63675466D01*
X88000000Y-63675466D01*
X88000000Y-63924533D01*
X88032508Y-64171463D01*
X88096973Y-64412049D01*
X88192283Y-64642148D01*
X88192288Y-64642159D01*
X88316813Y-64857841D01*
X88316819Y-64857849D01*
X88391400Y-64955045D01*
X89298958Y-64047487D01*
X89323978Y-64107890D01*
X89395112Y-64214351D01*
X89485649Y-64304888D01*
X89592110Y-64376022D01*
X89652511Y-64401041D01*
X88744953Y-65308598D01*
X88842150Y-65383180D01*
X88842158Y-65383186D01*
X89057840Y-65507711D01*
X89057851Y-65507716D01*
X89287950Y-65603026D01*
X89528536Y-65667491D01*
X89775466Y-65700000D01*
X90024534Y-65700000D01*
X90271463Y-65667491D01*
X90512049Y-65603026D01*
X90742148Y-65507716D01*
X90742159Y-65507711D01*
X90957855Y-65383178D01*
X91055045Y-65308600D01*
X91055045Y-65308597D01*
X90147488Y-64401041D01*
X90207890Y-64376022D01*
X90314351Y-64304888D01*
X90404888Y-64214351D01*
X90476022Y-64107890D01*
X90501041Y-64047489D01*
X91408597Y-64955045D01*
X91408600Y-64955045D01*
X91483178Y-64857855D01*
X91607711Y-64642159D01*
X91607716Y-64642148D01*
X91703026Y-64412049D01*
X91767491Y-64171463D01*
X91800000Y-63924533D01*
X91800000Y-63675466D01*
X91767491Y-63428536D01*
X91703026Y-63187950D01*
X91607716Y-62957851D01*
X91607711Y-62957840D01*
X91483186Y-62742158D01*
X91483180Y-62742150D01*
X91408598Y-62644953D01*
X90501041Y-63552510D01*
X90476022Y-63492110D01*
X90404888Y-63385649D01*
X90314351Y-63295112D01*
X90207890Y-63223978D01*
X90147487Y-63198957D01*
X91055045Y-62291400D01*
X90957849Y-62216819D01*
X90957841Y-62216813D01*
X90742159Y-62092288D01*
X90742148Y-62092283D01*
X90512049Y-61996973D01*
X90271463Y-61932508D01*
X90024534Y-61900000D01*
X89775466Y-61900000D01*
X89528536Y-61932508D01*
X89287950Y-61996973D01*
X89057851Y-62092283D01*
X89057847Y-62092285D01*
X88842143Y-62216823D01*
X88744953Y-62291399D01*
X88744953Y-62291400D01*
X89652511Y-63198958D01*
X89592110Y-63223978D01*
X89485649Y-63295112D01*
X89395112Y-63385649D01*
X89323978Y-63492110D01*
X89298958Y-63552511D01*
X88391400Y-62644953D01*
X88391399Y-62644953D01*
X88316823Y-62742143D01*
X88192285Y-62957847D01*
X88192283Y-62957851D01*
X88096973Y-63187950D01*
X88032508Y-63428536D01*
X88000000Y-63675466D01*
X22600500Y-63675466D01*
X22600500Y-57475441D01*
X27899500Y-57475441D01*
X27899500Y-57724558D01*
X27899501Y-57724575D01*
X27932017Y-57971561D01*
X27996498Y-58212207D01*
X28091830Y-58442361D01*
X28091837Y-58442376D01*
X28216400Y-58658126D01*
X28368060Y-58855774D01*
X28368066Y-58855781D01*
X28544218Y-59031933D01*
X28544225Y-59031939D01*
X28741873Y-59183599D01*
X28957623Y-59308162D01*
X28957638Y-59308169D01*
X29056825Y-59349253D01*
X29187793Y-59403502D01*
X29428435Y-59467982D01*
X29675435Y-59500500D01*
X29675442Y-59500500D01*
X29924558Y-59500500D01*
X29924565Y-59500500D01*
X30171565Y-59467982D01*
X30412207Y-59403502D01*
X30642373Y-59308164D01*
X30858127Y-59183599D01*
X31055776Y-59031938D01*
X31231938Y-58855776D01*
X31383599Y-58658127D01*
X31508164Y-58442373D01*
X31603502Y-58212207D01*
X31667982Y-57971565D01*
X31700500Y-57724565D01*
X31700500Y-57475435D01*
X31667982Y-57228435D01*
X31603502Y-56987793D01*
X31508164Y-56757627D01*
X31383599Y-56541873D01*
X31231938Y-56344224D01*
X31231933Y-56344218D01*
X31055781Y-56168066D01*
X31055774Y-56168060D01*
X30858126Y-56016400D01*
X30642376Y-55891837D01*
X30642361Y-55891830D01*
X30412207Y-55796498D01*
X30171561Y-55732017D01*
X29924575Y-55699501D01*
X29924570Y-55699500D01*
X29924565Y-55699500D01*
X29675435Y-55699500D01*
X29675429Y-55699500D01*
X29675424Y-55699501D01*
X29428438Y-55732017D01*
X29187792Y-55796498D01*
X28957638Y-55891830D01*
X28957623Y-55891837D01*
X28741873Y-56016400D01*
X28544225Y-56168060D01*
X28544218Y-56168066D01*
X28368066Y-56344218D01*
X28368060Y-56344225D01*
X28216400Y-56541873D01*
X28091837Y-56757623D01*
X28091830Y-56757638D01*
X27996498Y-56987792D01*
X27932017Y-57228438D01*
X27899501Y-57475424D01*
X27899500Y-57475441D01*
X22600500Y-57475441D01*
X22600500Y-51400014D01*
X27900000Y-51400014D01*
X27900000Y-52350000D01*
X29199999Y-52350000D01*
X29174979Y-52410402D01*
X29150000Y-52535981D01*
X29150000Y-52664019D01*
X29174979Y-52789598D01*
X29199999Y-52850000D01*
X27900000Y-52850000D01*
X27900000Y-53799985D01*
X27910493Y-53902689D01*
X27910494Y-53902696D01*
X27965641Y-54069118D01*
X27965643Y-54069123D01*
X28057684Y-54218344D01*
X28181655Y-54342315D01*
X28330876Y-54434356D01*
X28330881Y-54434358D01*
X28497303Y-54489505D01*
X28497310Y-54489506D01*
X28600014Y-54499999D01*
X28600027Y-54500000D01*
X29550000Y-54500000D01*
X29550000Y-53200001D01*
X29610402Y-53225021D01*
X29735981Y-53250000D01*
X29864019Y-53250000D01*
X29989598Y-53225021D01*
X30050000Y-53200001D01*
X30050000Y-54500000D01*
X30999973Y-54500000D01*
X30999985Y-54499999D01*
X31102689Y-54489506D01*
X31102696Y-54489505D01*
X31269118Y-54434358D01*
X31269123Y-54434356D01*
X31418344Y-54342315D01*
X31542315Y-54218344D01*
X31634356Y-54069123D01*
X31634358Y-54069118D01*
X31689505Y-53902696D01*
X31689506Y-53902689D01*
X31699999Y-53799985D01*
X31700000Y-53799972D01*
X31700000Y-52850000D01*
X30400001Y-52850000D01*
X30425021Y-52789598D01*
X30450000Y-52664019D01*
X30450000Y-52535981D01*
X30425021Y-52410402D01*
X30400001Y-52350000D01*
X31700000Y-52350000D01*
X31700000Y-51400027D01*
X31699999Y-51400014D01*
X31689506Y-51297310D01*
X31689505Y-51297303D01*
X31634358Y-51130881D01*
X31634356Y-51130876D01*
X31542315Y-50981655D01*
X31418344Y-50857684D01*
X31269123Y-50765643D01*
X31269118Y-50765641D01*
X31102696Y-50710494D01*
X31102689Y-50710493D01*
X30999985Y-50700000D01*
X30050000Y-50700000D01*
X30050000Y-51999998D01*
X29989598Y-51974979D01*
X29864019Y-51950000D01*
X29735981Y-51950000D01*
X29610402Y-51974979D01*
X29550000Y-51999998D01*
X29550000Y-50700000D01*
X28600014Y-50700000D01*
X28497310Y-50710493D01*
X28497303Y-50710494D01*
X28330881Y-50765641D01*
X28330876Y-50765643D01*
X28181655Y-50857684D01*
X28057684Y-50981655D01*
X27965643Y-51130876D01*
X27965641Y-51130881D01*
X27910494Y-51297303D01*
X27910493Y-51297310D01*
X27900000Y-51400014D01*
X22600500Y-51400014D01*
X22600500Y-48199984D01*
X88099500Y-48199984D01*
X88099500Y-50600015D01*
X88110000Y-50702795D01*
X88110001Y-50702797D01*
X88130826Y-50765643D01*
X88165186Y-50869335D01*
X88165187Y-50869337D01*
X88257286Y-51018651D01*
X88257289Y-51018655D01*
X88381344Y-51142710D01*
X88381348Y-51142713D01*
X88530662Y-51234812D01*
X88530664Y-51234813D01*
X88530666Y-51234814D01*
X88697203Y-51289999D01*
X88799992Y-51300500D01*
X88799997Y-51300500D01*
X91200003Y-51300500D01*
X91200008Y-51300500D01*
X91302797Y-51289999D01*
X91469334Y-51234814D01*
X91618655Y-51142711D01*
X91742711Y-51018655D01*
X91834814Y-50869334D01*
X91889999Y-50702797D01*
X91900500Y-50600008D01*
X91900500Y-48199992D01*
X91889999Y-48097203D01*
X91834814Y-47930666D01*
X91742711Y-47781345D01*
X91618655Y-47657289D01*
X91618651Y-47657286D01*
X91469337Y-47565187D01*
X91469335Y-47565186D01*
X91386065Y-47537593D01*
X91302797Y-47510001D01*
X91302795Y-47510000D01*
X91200015Y-47499500D01*
X91200008Y-47499500D01*
X88799992Y-47499500D01*
X88799984Y-47499500D01*
X88697204Y-47510000D01*
X88697203Y-47510001D01*
X88530664Y-47565186D01*
X88530662Y-47565187D01*
X88381348Y-47657286D01*
X88381344Y-47657289D01*
X88257289Y-47781344D01*
X88257286Y-47781348D01*
X88165187Y-47930662D01*
X88165186Y-47930664D01*
X88110001Y-48097203D01*
X88110000Y-48097204D01*
X88099500Y-48199984D01*
X22600500Y-48199984D01*
X22600500Y-44275466D01*
X88100000Y-44275466D01*
X88100000Y-44524533D01*
X88132508Y-44771463D01*
X88196973Y-45012049D01*
X88292283Y-45242148D01*
X88292288Y-45242159D01*
X88416813Y-45457841D01*
X88416819Y-45457849D01*
X88491400Y-45555045D01*
X89398958Y-44647487D01*
X89423978Y-44707890D01*
X89495112Y-44814351D01*
X89585649Y-44904888D01*
X89692110Y-44976022D01*
X89752511Y-45001041D01*
X88844953Y-45908598D01*
X88942150Y-45983180D01*
X88942158Y-45983186D01*
X89157840Y-46107711D01*
X89157851Y-46107716D01*
X89387950Y-46203026D01*
X89628536Y-46267491D01*
X89875466Y-46300000D01*
X90124534Y-46300000D01*
X90371463Y-46267491D01*
X90612049Y-46203026D01*
X90842148Y-46107716D01*
X90842159Y-46107711D01*
X91057855Y-45983178D01*
X91155045Y-45908600D01*
X91155045Y-45908597D01*
X90247488Y-45001041D01*
X90307890Y-44976022D01*
X90414351Y-44904888D01*
X90504888Y-44814351D01*
X90576022Y-44707890D01*
X90601041Y-44647488D01*
X91508597Y-45555045D01*
X91508600Y-45555045D01*
X91583178Y-45457855D01*
X91707711Y-45242159D01*
X91707716Y-45242148D01*
X91803026Y-45012049D01*
X91867491Y-44771463D01*
X91900000Y-44524533D01*
X91900000Y-44275466D01*
X91867491Y-44028536D01*
X91803026Y-43787950D01*
X91707716Y-43557851D01*
X91707711Y-43557840D01*
X91583186Y-43342158D01*
X91583180Y-43342150D01*
X91508598Y-43244953D01*
X90601041Y-44152510D01*
X90576022Y-44092110D01*
X90504888Y-43985649D01*
X90414351Y-43895112D01*
X90307890Y-43823978D01*
X90247487Y-43798957D01*
X91155045Y-42891400D01*
X91057849Y-42816819D01*
X91057841Y-42816813D01*
X90842159Y-42692288D01*
X90842148Y-42692283D01*
X90612049Y-42596973D01*
X90371463Y-42532508D01*
X90124534Y-42500000D01*
X89875466Y-42500000D01*
X89628536Y-42532508D01*
X89387950Y-42596973D01*
X89157851Y-42692283D01*
X89157847Y-42692285D01*
X88942143Y-42816823D01*
X88844953Y-42891399D01*
X88844953Y-42891400D01*
X89752511Y-43798958D01*
X89692110Y-43823978D01*
X89585649Y-43895112D01*
X89495112Y-43985649D01*
X89423978Y-44092110D01*
X89398958Y-44152511D01*
X88491400Y-43244953D01*
X88491399Y-43244953D01*
X88416823Y-43342143D01*
X88292285Y-43557847D01*
X88292283Y-43557851D01*
X88196973Y-43787950D01*
X88132508Y-44028536D01*
X88100000Y-44275466D01*
X22600500Y-44275466D01*
X22600500Y-36924500D01*
X22620185Y-36857461D01*
X22672989Y-36811706D01*
X22724500Y-36800500D01*
X97175500Y-36800500D01*
X97242539Y-36820185D01*
G37*
%TD.AperFunction*%
%TD*%
M02*
