M48
; DRILL file {KiCad 9.0.3} date 2025-07-17T21:40:04-0700
; FORMAT={-:-/ absolute / metric / decimal}
; #@! TF.CreationDate,2025-07-17T21:40:04-07:00
; #@! TF.GenerationSoftware,Kicad,Pcbnew,9.0.3
; #@! TF.FileFunction,Plated,1,2,PTH
FMAT,2
METRIC
; #@! TA.AperFunction,Plated,PTH,ViaDrill
T1C0.300
; #@! TA.AperFunction,Plated,PTH,ComponentDrill
T2C1.000
; #@! TA.AperFunction,Plated,PTH,ComponentDrill
T3C1.200
; #@! TA.AperFunction,Plated,PTH,ComponentDrill
T4C3.200
%
G90
G05
T1
X126.5Y-89.0
X135.225Y-101.5
X141.0Y-86.5
X145.225Y-98.5
X146.225Y-103.0
X149.725Y-112.55
X151.5Y-95.5
X156.775Y-106.5
X161.775Y-97.25
X161.775Y-102.75
X163.5Y-83.0
X166.45Y-103.5
X166.5Y-106.5
X168.675Y-92.0
X169.286Y-116.678
X170.675Y-97.0
X173.761Y-116.405
X181.275Y-97.0
X185.275Y-99.0
X185.275Y-102.0
T2
X121.0Y-86.5
X121.185Y-118.5
X123.54Y-86.5
X123.725Y-118.5
X126.08Y-86.5
X126.265Y-118.5
X128.62Y-86.5
X128.805Y-118.5
X131.16Y-86.5
X131.345Y-118.5
X133.7Y-86.5
X133.885Y-118.5
X136.24Y-86.5
X136.425Y-118.5
X138.78Y-86.5
X138.965Y-118.5
X141.505Y-118.5
X142.96Y-86.5
X144.045Y-118.5
X145.5Y-86.5
X146.585Y-118.5
X148.04Y-86.5
X149.125Y-118.5
X150.58Y-86.5
X151.665Y-118.5
X153.12Y-86.5
X154.205Y-118.5
X155.66Y-86.5
X156.745Y-118.5
X158.2Y-86.5
X159.285Y-118.5
X160.74Y-86.5
T3
X175.185Y-85.5
X177.725Y-85.5
T4
X115.0Y-83.5
X115.0Y-118.5
X189.725Y-83.5
X189.725Y-118.5
M30
