%TF.GenerationSoftware,KiCad,Pcbnew,9.0.3*%
%TF.CreationDate,2025-07-17T21:40:03-07:00*%
%TF.ProjectId,DAQ_dev_board,4441515f-6465-4765-9f62-6f6172642e6b,rev?*%
%TF.SameCoordinates,Original*%
%TF.FileFunction,Copper,L2,Bot*%
%TF.FilePolarity,Positive*%
%FSLAX46Y46*%
G04 Gerber Fmt 4.6, Leading zero omitted, Abs format (unit mm)*
G04 Created by KiCad (PCBNEW 9.0.3) date 2025-07-17 21:40:03*
%MOMM*%
%LPD*%
G01*
G04 APERTURE LIST*
%TA.AperFunction,ComponentPad*%
%ADD10R,1.700000X1.700000*%
%TD*%
%TA.AperFunction,ComponentPad*%
%ADD11C,1.700000*%
%TD*%
%TA.AperFunction,ComponentPad*%
%ADD12R,2.000000X2.000000*%
%TD*%
%TA.AperFunction,ComponentPad*%
%ADD13C,2.000000*%
%TD*%
%TA.AperFunction,ComponentPad*%
%ADD14C,5.600000*%
%TD*%
%TA.AperFunction,ViaPad*%
%ADD15C,0.600000*%
%TD*%
G04 APERTURE END LIST*
D10*
%TO.P,J3,1,Pin_1*%
%TO.N,GND*%
X142960000Y-86500000D03*
D11*
%TO.P,J3,2,Pin_2*%
%TO.N,Net-(J3-Pin_2)*%
X145500000Y-86500000D03*
%TO.P,J3,3,Pin_3*%
%TO.N,Net-(J3-Pin_3)*%
X148040000Y-86500000D03*
%TO.P,J3,4,Pin_4*%
%TO.N,Net-(J3-Pin_4)*%
X150580000Y-86500000D03*
%TO.P,J3,5,Pin_5*%
%TO.N,Net-(J3-Pin_5)*%
X153120000Y-86500000D03*
%TO.P,J3,6,Pin_6*%
%TO.N,Net-(J3-Pin_6)*%
X155660000Y-86500000D03*
%TO.P,J3,7,Pin_7*%
%TO.N,Net-(J3-Pin_7)*%
X158200000Y-86500000D03*
%TO.P,J3,8,Pin_8*%
%TO.N,Net-(J3-Pin_8)*%
X160740000Y-86500000D03*
%TD*%
D10*
%TO.P,J2,1,Pin_1*%
%TO.N,Net-(J2-Pin_1)*%
X159285000Y-118500000D03*
D11*
%TO.P,J2,2,Pin_2*%
%TO.N,Net-(J2-Pin_2)*%
X156745000Y-118500000D03*
%TO.P,J2,3,Pin_3*%
%TO.N,Net-(J2-Pin_3)*%
X154205000Y-118500000D03*
%TO.P,J2,4,Pin_4*%
%TO.N,Net-(J2-Pin_4)*%
X151665000Y-118500000D03*
%TO.P,J2,5,Pin_5*%
%TO.N,Net-(J2-Pin_5)*%
X149125000Y-118500000D03*
%TO.P,J2,6,Pin_6*%
%TO.N,Net-(J2-Pin_6)*%
X146585000Y-118500000D03*
%TO.P,J2,7,Pin_7*%
%TO.N,Net-(J2-Pin_7)*%
X144045000Y-118500000D03*
%TO.P,J2,8,Pin_8*%
%TO.N,Net-(J2-Pin_8)*%
X141505000Y-118500000D03*
%TO.P,J2,9,Pin_9*%
%TO.N,Net-(J2-Pin_9)*%
X138965000Y-118500000D03*
%TO.P,J2,10,Pin_10*%
%TO.N,Net-(J2-Pin_10)*%
X136425000Y-118500000D03*
%TO.P,J2,11,Pin_11*%
%TO.N,Net-(J2-Pin_11)*%
X133885000Y-118500000D03*
%TO.P,J2,12,Pin_12*%
%TO.N,Net-(J2-Pin_12)*%
X131345000Y-118500000D03*
%TO.P,J2,13,Pin_13*%
%TO.N,Net-(J2-Pin_13)*%
X128805000Y-118500000D03*
%TO.P,J2,14,Pin_14*%
%TO.N,Net-(J2-Pin_14)*%
X126265000Y-118500000D03*
%TO.P,J2,15,Pin_15*%
%TO.N,Net-(J2-Pin_15)*%
X123725000Y-118500000D03*
%TO.P,J2,16,Pin_16*%
%TO.N,Net-(J2-Pin_16)*%
X121185000Y-118500000D03*
%TD*%
D12*
%TO.P,J1,1,Pin_1*%
%TO.N,/+*%
X175185000Y-85500000D03*
D13*
%TO.P,J1,2,Pin_2*%
%TO.N,/-*%
X177725000Y-85500000D03*
%TD*%
D14*
%TO.P,REF\u002A\u002A,1*%
%TO.N,N/C*%
X115000000Y-83500000D03*
%TD*%
D10*
%TO.P,J5,1,Pin_1*%
%TO.N,GND*%
X138780000Y-86500000D03*
D11*
%TO.P,J5,2,Pin_2*%
%TO.N,Net-(J5-Pin_2)*%
X136240000Y-86500000D03*
%TO.P,J5,3,Pin_3*%
%TO.N,Net-(J5-Pin_3)*%
X133700000Y-86500000D03*
%TO.P,J5,4,Pin_4*%
%TO.N,Net-(J5-Pin_4)*%
X131160000Y-86500000D03*
%TO.P,J5,5,Pin_5*%
%TO.N,Net-(J5-Pin_5)*%
X128620000Y-86500000D03*
%TO.P,J5,6,Pin_6*%
%TO.N,GND*%
X126080000Y-86500000D03*
%TO.P,J5,7,Pin_7*%
%TO.N,+5V*%
X123540000Y-86500000D03*
%TO.P,J5,8,Pin_8*%
%TO.N,Net-(J5-Pin_8)*%
X121000000Y-86500000D03*
%TD*%
D14*
%TO.P,REF\u002A\u002A,1*%
%TO.N,N/C*%
X189725000Y-83500000D03*
%TD*%
%TO.P,REF\u002A\u002A,1*%
%TO.N,N/C*%
X189725000Y-118500000D03*
%TD*%
%TO.P,MAD 2025,1*%
%TO.N,N/C*%
X115000000Y-118500000D03*
%TD*%
D15*
%TO.N,GND*%
X146225000Y-103000000D03*
X126500000Y-89000000D03*
X145225000Y-98500000D03*
X166450000Y-103500000D03*
X173761200Y-116405000D03*
X161775000Y-97250000D03*
X161775000Y-102750000D03*
X185275000Y-99000000D03*
X181275000Y-97000000D03*
X156775000Y-106500000D03*
X151500000Y-95500000D03*
X163500000Y-83000000D03*
X168675000Y-92000000D03*
X141000000Y-86500000D03*
X170675000Y-97000000D03*
X169285991Y-116678474D03*
X135225000Y-101500000D03*
X185275000Y-102000000D03*
X149725000Y-112550000D03*
X166500000Y-106500000D03*
%TD*%
%TA.AperFunction,Conductor*%
%TO.N,GND*%
G36*
X187897054Y-80510043D02*
G01*
X187929721Y-80519005D01*
X187930490Y-80519861D01*
X187931593Y-80520185D01*
X187953749Y-80545754D01*
X187976411Y-80570983D01*
X187976595Y-80572120D01*
X187977348Y-80572989D01*
X187982168Y-80606511D01*
X187987587Y-80639953D01*
X187987128Y-80641007D01*
X187987292Y-80642147D01*
X187973207Y-80672988D01*
X187959701Y-80704017D01*
X187958575Y-80705028D01*
X187958267Y-80705703D01*
X187933445Y-80727602D01*
X187756532Y-80845811D01*
X187756518Y-80845821D01*
X187505841Y-81051546D01*
X187276546Y-81280841D01*
X187070821Y-81531518D01*
X187070811Y-81531532D01*
X186890657Y-81801151D01*
X186890646Y-81801169D01*
X186737788Y-82087145D01*
X186737786Y-82087150D01*
X186613686Y-82386752D01*
X186519548Y-82697086D01*
X186519545Y-82697097D01*
X186456287Y-83015125D01*
X186456284Y-83015142D01*
X186424500Y-83337860D01*
X186424500Y-83662139D01*
X186456284Y-83984857D01*
X186456287Y-83984874D01*
X186519545Y-84302902D01*
X186519548Y-84302913D01*
X186613686Y-84613247D01*
X186737786Y-84912849D01*
X186737788Y-84912854D01*
X186890646Y-85198830D01*
X186890657Y-85198848D01*
X187070811Y-85468467D01*
X187070821Y-85468481D01*
X187276546Y-85719158D01*
X187505841Y-85948453D01*
X187505846Y-85948457D01*
X187505847Y-85948458D01*
X187756524Y-86154183D01*
X188026158Y-86334347D01*
X188026167Y-86334352D01*
X188026169Y-86334353D01*
X188312145Y-86487211D01*
X188312147Y-86487211D01*
X188312153Y-86487215D01*
X188611754Y-86611314D01*
X188922077Y-86705449D01*
X188922083Y-86705450D01*
X188922086Y-86705451D01*
X188922097Y-86705454D01*
X189121528Y-86745122D01*
X189240132Y-86768714D01*
X189562857Y-86800500D01*
X189562860Y-86800500D01*
X189887140Y-86800500D01*
X189887143Y-86800500D01*
X190209868Y-86768714D01*
X190372493Y-86736366D01*
X190527902Y-86705454D01*
X190527913Y-86705451D01*
X190527913Y-86705450D01*
X190527923Y-86705449D01*
X190838246Y-86611314D01*
X191137847Y-86487215D01*
X191423842Y-86334347D01*
X191693476Y-86154183D01*
X191944153Y-85948458D01*
X192173458Y-85719153D01*
X192379183Y-85468476D01*
X192497398Y-85291554D01*
X192551010Y-85246749D01*
X192620335Y-85238042D01*
X192683362Y-85268196D01*
X192720082Y-85327639D01*
X192724500Y-85360445D01*
X192724500Y-116639554D01*
X192704815Y-116706593D01*
X192652011Y-116752348D01*
X192582853Y-116762292D01*
X192519297Y-116733267D01*
X192497398Y-116708445D01*
X192379188Y-116531532D01*
X192379183Y-116531524D01*
X192173458Y-116280847D01*
X192173457Y-116280846D01*
X192173453Y-116280841D01*
X191944158Y-116051546D01*
X191693481Y-115845821D01*
X191693480Y-115845820D01*
X191693476Y-115845817D01*
X191423842Y-115665653D01*
X191423837Y-115665650D01*
X191423830Y-115665646D01*
X191137854Y-115512788D01*
X191137849Y-115512786D01*
X190838247Y-115388686D01*
X190527913Y-115294548D01*
X190527902Y-115294545D01*
X190209874Y-115231287D01*
X190209857Y-115231284D01*
X189965812Y-115207248D01*
X189887143Y-115199500D01*
X189562857Y-115199500D01*
X189490099Y-115206666D01*
X189240142Y-115231284D01*
X189240125Y-115231287D01*
X188922097Y-115294545D01*
X188922086Y-115294548D01*
X188611752Y-115388686D01*
X188312150Y-115512786D01*
X188312145Y-115512788D01*
X188026169Y-115665646D01*
X188026151Y-115665657D01*
X187756532Y-115845811D01*
X187756518Y-115845821D01*
X187505841Y-116051546D01*
X187276546Y-116280841D01*
X187070821Y-116531518D01*
X187070811Y-116531532D01*
X186890657Y-116801151D01*
X186890646Y-116801169D01*
X186737788Y-117087145D01*
X186737786Y-117087150D01*
X186613686Y-117386752D01*
X186519548Y-117697086D01*
X186519545Y-117697097D01*
X186456287Y-118015125D01*
X186456284Y-118015142D01*
X186424500Y-118337860D01*
X186424500Y-118662139D01*
X186456284Y-118984857D01*
X186456287Y-118984874D01*
X186519545Y-119302902D01*
X186519548Y-119302913D01*
X186613686Y-119613247D01*
X186737786Y-119912849D01*
X186737788Y-119912854D01*
X186890646Y-120198830D01*
X186890657Y-120198848D01*
X187070811Y-120468467D01*
X187070821Y-120468481D01*
X187276546Y-120719158D01*
X187505841Y-120948453D01*
X187505846Y-120948457D01*
X187505847Y-120948458D01*
X187756524Y-121154183D01*
X187933445Y-121272398D01*
X187978250Y-121326010D01*
X187986957Y-121395335D01*
X187956803Y-121458362D01*
X187897360Y-121495082D01*
X187864554Y-121499500D01*
X116860446Y-121499500D01*
X116793407Y-121479815D01*
X116747652Y-121427011D01*
X116737708Y-121357853D01*
X116766733Y-121294297D01*
X116791555Y-121272398D01*
X116968476Y-121154183D01*
X117219153Y-120948458D01*
X117448458Y-120719153D01*
X117654183Y-120468476D01*
X117834347Y-120198842D01*
X117987215Y-119912847D01*
X118111314Y-119613246D01*
X118205449Y-119302923D01*
X118205451Y-119302913D01*
X118205454Y-119302902D01*
X118262041Y-119018414D01*
X118268714Y-118984868D01*
X118300500Y-118662143D01*
X118300500Y-118393713D01*
X119834500Y-118393713D01*
X119834500Y-118606287D01*
X119867754Y-118816243D01*
X119922540Y-118984857D01*
X119933444Y-119018414D01*
X120029951Y-119207820D01*
X120154890Y-119379786D01*
X120305213Y-119530109D01*
X120477179Y-119655048D01*
X120477181Y-119655049D01*
X120477184Y-119655051D01*
X120666588Y-119751557D01*
X120868757Y-119817246D01*
X121078713Y-119850500D01*
X121078714Y-119850500D01*
X121291286Y-119850500D01*
X121291287Y-119850500D01*
X121501243Y-119817246D01*
X121703412Y-119751557D01*
X121892816Y-119655051D01*
X121979138Y-119592335D01*
X122064786Y-119530109D01*
X122064788Y-119530106D01*
X122064792Y-119530104D01*
X122215104Y-119379792D01*
X122215106Y-119379788D01*
X122215109Y-119379786D01*
X122340048Y-119207820D01*
X122340047Y-119207820D01*
X122340051Y-119207816D01*
X122344514Y-119199054D01*
X122392488Y-119148259D01*
X122460308Y-119131463D01*
X122526444Y-119153999D01*
X122565486Y-119199056D01*
X122569951Y-119207820D01*
X122694890Y-119379786D01*
X122845213Y-119530109D01*
X123017179Y-119655048D01*
X123017181Y-119655049D01*
X123017184Y-119655051D01*
X123206588Y-119751557D01*
X123408757Y-119817246D01*
X123618713Y-119850500D01*
X123618714Y-119850500D01*
X123831286Y-119850500D01*
X123831287Y-119850500D01*
X124041243Y-119817246D01*
X124243412Y-119751557D01*
X124432816Y-119655051D01*
X124519138Y-119592335D01*
X124604786Y-119530109D01*
X124604788Y-119530106D01*
X124604792Y-119530104D01*
X124755104Y-119379792D01*
X124755106Y-119379788D01*
X124755109Y-119379786D01*
X124880048Y-119207820D01*
X124880047Y-119207820D01*
X124880051Y-119207816D01*
X124884514Y-119199054D01*
X124932488Y-119148259D01*
X125000308Y-119131463D01*
X125066444Y-119153999D01*
X125105486Y-119199056D01*
X125109951Y-119207820D01*
X125234890Y-119379786D01*
X125385213Y-119530109D01*
X125557179Y-119655048D01*
X125557181Y-119655049D01*
X125557184Y-119655051D01*
X125746588Y-119751557D01*
X125948757Y-119817246D01*
X126158713Y-119850500D01*
X126158714Y-119850500D01*
X126371286Y-119850500D01*
X126371287Y-119850500D01*
X126581243Y-119817246D01*
X126783412Y-119751557D01*
X126972816Y-119655051D01*
X127059138Y-119592335D01*
X127144786Y-119530109D01*
X127144788Y-119530106D01*
X127144792Y-119530104D01*
X127295104Y-119379792D01*
X127295106Y-119379788D01*
X127295109Y-119379786D01*
X127420048Y-119207820D01*
X127420047Y-119207820D01*
X127420051Y-119207816D01*
X127424514Y-119199054D01*
X127472488Y-119148259D01*
X127540308Y-119131463D01*
X127606444Y-119153999D01*
X127645486Y-119199056D01*
X127649951Y-119207820D01*
X127774890Y-119379786D01*
X127925213Y-119530109D01*
X128097179Y-119655048D01*
X128097181Y-119655049D01*
X128097184Y-119655051D01*
X128286588Y-119751557D01*
X128488757Y-119817246D01*
X128698713Y-119850500D01*
X128698714Y-119850500D01*
X128911286Y-119850500D01*
X128911287Y-119850500D01*
X129121243Y-119817246D01*
X129323412Y-119751557D01*
X129512816Y-119655051D01*
X129599138Y-119592335D01*
X129684786Y-119530109D01*
X129684788Y-119530106D01*
X129684792Y-119530104D01*
X129835104Y-119379792D01*
X129835106Y-119379788D01*
X129835109Y-119379786D01*
X129960048Y-119207820D01*
X129960047Y-119207820D01*
X129960051Y-119207816D01*
X129964514Y-119199054D01*
X130012488Y-119148259D01*
X130080308Y-119131463D01*
X130146444Y-119153999D01*
X130185486Y-119199056D01*
X130189951Y-119207820D01*
X130314890Y-119379786D01*
X130465213Y-119530109D01*
X130637179Y-119655048D01*
X130637181Y-119655049D01*
X130637184Y-119655051D01*
X130826588Y-119751557D01*
X131028757Y-119817246D01*
X131238713Y-119850500D01*
X131238714Y-119850500D01*
X131451286Y-119850500D01*
X131451287Y-119850500D01*
X131661243Y-119817246D01*
X131863412Y-119751557D01*
X132052816Y-119655051D01*
X132139138Y-119592335D01*
X132224786Y-119530109D01*
X132224788Y-119530106D01*
X132224792Y-119530104D01*
X132375104Y-119379792D01*
X132375106Y-119379788D01*
X132375109Y-119379786D01*
X132500048Y-119207820D01*
X132500047Y-119207820D01*
X132500051Y-119207816D01*
X132504514Y-119199054D01*
X132552488Y-119148259D01*
X132620308Y-119131463D01*
X132686444Y-119153999D01*
X132725486Y-119199056D01*
X132729951Y-119207820D01*
X132854890Y-119379786D01*
X133005213Y-119530109D01*
X133177179Y-119655048D01*
X133177181Y-119655049D01*
X133177184Y-119655051D01*
X133366588Y-119751557D01*
X133568757Y-119817246D01*
X133778713Y-119850500D01*
X133778714Y-119850500D01*
X133991286Y-119850500D01*
X133991287Y-119850500D01*
X134201243Y-119817246D01*
X134403412Y-119751557D01*
X134592816Y-119655051D01*
X134679138Y-119592335D01*
X134764786Y-119530109D01*
X134764788Y-119530106D01*
X134764792Y-119530104D01*
X134915104Y-119379792D01*
X134915106Y-119379788D01*
X134915109Y-119379786D01*
X135040048Y-119207820D01*
X135040047Y-119207820D01*
X135040051Y-119207816D01*
X135044514Y-119199054D01*
X135092488Y-119148259D01*
X135160308Y-119131463D01*
X135226444Y-119153999D01*
X135265486Y-119199056D01*
X135269951Y-119207820D01*
X135394890Y-119379786D01*
X135545213Y-119530109D01*
X135717179Y-119655048D01*
X135717181Y-119655049D01*
X135717184Y-119655051D01*
X135906588Y-119751557D01*
X136108757Y-119817246D01*
X136318713Y-119850500D01*
X136318714Y-119850500D01*
X136531286Y-119850500D01*
X136531287Y-119850500D01*
X136741243Y-119817246D01*
X136943412Y-119751557D01*
X137132816Y-119655051D01*
X137219138Y-119592335D01*
X137304786Y-119530109D01*
X137304788Y-119530106D01*
X137304792Y-119530104D01*
X137455104Y-119379792D01*
X137455106Y-119379788D01*
X137455109Y-119379786D01*
X137580048Y-119207820D01*
X137580047Y-119207820D01*
X137580051Y-119207816D01*
X137584514Y-119199054D01*
X137632488Y-119148259D01*
X137700308Y-119131463D01*
X137766444Y-119153999D01*
X137805486Y-119199056D01*
X137809951Y-119207820D01*
X137934890Y-119379786D01*
X138085213Y-119530109D01*
X138257179Y-119655048D01*
X138257181Y-119655049D01*
X138257184Y-119655051D01*
X138446588Y-119751557D01*
X138648757Y-119817246D01*
X138858713Y-119850500D01*
X138858714Y-119850500D01*
X139071286Y-119850500D01*
X139071287Y-119850500D01*
X139281243Y-119817246D01*
X139483412Y-119751557D01*
X139672816Y-119655051D01*
X139759138Y-119592335D01*
X139844786Y-119530109D01*
X139844788Y-119530106D01*
X139844792Y-119530104D01*
X139995104Y-119379792D01*
X139995106Y-119379788D01*
X139995109Y-119379786D01*
X140120048Y-119207820D01*
X140120047Y-119207820D01*
X140120051Y-119207816D01*
X140124514Y-119199054D01*
X140172488Y-119148259D01*
X140240308Y-119131463D01*
X140306444Y-119153999D01*
X140345486Y-119199056D01*
X140349951Y-119207820D01*
X140474890Y-119379786D01*
X140625213Y-119530109D01*
X140797179Y-119655048D01*
X140797181Y-119655049D01*
X140797184Y-119655051D01*
X140986588Y-119751557D01*
X141188757Y-119817246D01*
X141398713Y-119850500D01*
X141398714Y-119850500D01*
X141611286Y-119850500D01*
X141611287Y-119850500D01*
X141821243Y-119817246D01*
X142023412Y-119751557D01*
X142212816Y-119655051D01*
X142299138Y-119592335D01*
X142384786Y-119530109D01*
X142384788Y-119530106D01*
X142384792Y-119530104D01*
X142535104Y-119379792D01*
X142535106Y-119379788D01*
X142535109Y-119379786D01*
X142660048Y-119207820D01*
X142660047Y-119207820D01*
X142660051Y-119207816D01*
X142664514Y-119199054D01*
X142712488Y-119148259D01*
X142780308Y-119131463D01*
X142846444Y-119153999D01*
X142885486Y-119199056D01*
X142889951Y-119207820D01*
X143014890Y-119379786D01*
X143165213Y-119530109D01*
X143337179Y-119655048D01*
X143337181Y-119655049D01*
X143337184Y-119655051D01*
X143526588Y-119751557D01*
X143728757Y-119817246D01*
X143938713Y-119850500D01*
X143938714Y-119850500D01*
X144151286Y-119850500D01*
X144151287Y-119850500D01*
X144361243Y-119817246D01*
X144563412Y-119751557D01*
X144752816Y-119655051D01*
X144839138Y-119592335D01*
X144924786Y-119530109D01*
X144924788Y-119530106D01*
X144924792Y-119530104D01*
X145075104Y-119379792D01*
X145075106Y-119379788D01*
X145075109Y-119379786D01*
X145200048Y-119207820D01*
X145200047Y-119207820D01*
X145200051Y-119207816D01*
X145204514Y-119199054D01*
X145252488Y-119148259D01*
X145320308Y-119131463D01*
X145386444Y-119153999D01*
X145425486Y-119199056D01*
X145429951Y-119207820D01*
X145554890Y-119379786D01*
X145705213Y-119530109D01*
X145877179Y-119655048D01*
X145877181Y-119655049D01*
X145877184Y-119655051D01*
X146066588Y-119751557D01*
X146268757Y-119817246D01*
X146478713Y-119850500D01*
X146478714Y-119850500D01*
X146691286Y-119850500D01*
X146691287Y-119850500D01*
X146901243Y-119817246D01*
X147103412Y-119751557D01*
X147292816Y-119655051D01*
X147379138Y-119592335D01*
X147464786Y-119530109D01*
X147464788Y-119530106D01*
X147464792Y-119530104D01*
X147615104Y-119379792D01*
X147615106Y-119379788D01*
X147615109Y-119379786D01*
X147740048Y-119207820D01*
X147740047Y-119207820D01*
X147740051Y-119207816D01*
X147744514Y-119199054D01*
X147792488Y-119148259D01*
X147860308Y-119131463D01*
X147926444Y-119153999D01*
X147965486Y-119199056D01*
X147969951Y-119207820D01*
X148094890Y-119379786D01*
X148245213Y-119530109D01*
X148417179Y-119655048D01*
X148417181Y-119655049D01*
X148417184Y-119655051D01*
X148606588Y-119751557D01*
X148808757Y-119817246D01*
X149018713Y-119850500D01*
X149018714Y-119850500D01*
X149231286Y-119850500D01*
X149231287Y-119850500D01*
X149441243Y-119817246D01*
X149643412Y-119751557D01*
X149832816Y-119655051D01*
X149919138Y-119592335D01*
X150004786Y-119530109D01*
X150004788Y-119530106D01*
X150004792Y-119530104D01*
X150155104Y-119379792D01*
X150155106Y-119379788D01*
X150155109Y-119379786D01*
X150280048Y-119207820D01*
X150280047Y-119207820D01*
X150280051Y-119207816D01*
X150284514Y-119199054D01*
X150332488Y-119148259D01*
X150400308Y-119131463D01*
X150466444Y-119153999D01*
X150505486Y-119199056D01*
X150509951Y-119207820D01*
X150634890Y-119379786D01*
X150785213Y-119530109D01*
X150957179Y-119655048D01*
X150957181Y-119655049D01*
X150957184Y-119655051D01*
X151146588Y-119751557D01*
X151348757Y-119817246D01*
X151558713Y-119850500D01*
X151558714Y-119850500D01*
X151771286Y-119850500D01*
X151771287Y-119850500D01*
X151981243Y-119817246D01*
X152183412Y-119751557D01*
X152372816Y-119655051D01*
X152459138Y-119592335D01*
X152544786Y-119530109D01*
X152544788Y-119530106D01*
X152544792Y-119530104D01*
X152695104Y-119379792D01*
X152695106Y-119379788D01*
X152695109Y-119379786D01*
X152820048Y-119207820D01*
X152820047Y-119207820D01*
X152820051Y-119207816D01*
X152824514Y-119199054D01*
X152872488Y-119148259D01*
X152940308Y-119131463D01*
X153006444Y-119153999D01*
X153045486Y-119199056D01*
X153049951Y-119207820D01*
X153174890Y-119379786D01*
X153325213Y-119530109D01*
X153497179Y-119655048D01*
X153497181Y-119655049D01*
X153497184Y-119655051D01*
X153686588Y-119751557D01*
X153888757Y-119817246D01*
X154098713Y-119850500D01*
X154098714Y-119850500D01*
X154311286Y-119850500D01*
X154311287Y-119850500D01*
X154521243Y-119817246D01*
X154723412Y-119751557D01*
X154912816Y-119655051D01*
X154999138Y-119592335D01*
X155084786Y-119530109D01*
X155084788Y-119530106D01*
X155084792Y-119530104D01*
X155235104Y-119379792D01*
X155235106Y-119379788D01*
X155235109Y-119379786D01*
X155360048Y-119207820D01*
X155360047Y-119207820D01*
X155360051Y-119207816D01*
X155364514Y-119199054D01*
X155412488Y-119148259D01*
X155480308Y-119131463D01*
X155546444Y-119153999D01*
X155585486Y-119199056D01*
X155589951Y-119207820D01*
X155714890Y-119379786D01*
X155865213Y-119530109D01*
X156037179Y-119655048D01*
X156037181Y-119655049D01*
X156037184Y-119655051D01*
X156226588Y-119751557D01*
X156428757Y-119817246D01*
X156638713Y-119850500D01*
X156638714Y-119850500D01*
X156851286Y-119850500D01*
X156851287Y-119850500D01*
X157061243Y-119817246D01*
X157263412Y-119751557D01*
X157452816Y-119655051D01*
X157624792Y-119530104D01*
X157738329Y-119416566D01*
X157799648Y-119383084D01*
X157869340Y-119388068D01*
X157925274Y-119429939D01*
X157942189Y-119460917D01*
X157991202Y-119592328D01*
X157991206Y-119592335D01*
X158077452Y-119707544D01*
X158077455Y-119707547D01*
X158192664Y-119793793D01*
X158192671Y-119793797D01*
X158327517Y-119844091D01*
X158327516Y-119844091D01*
X158334444Y-119844835D01*
X158387127Y-119850500D01*
X160182872Y-119850499D01*
X160242483Y-119844091D01*
X160377331Y-119793796D01*
X160492546Y-119707546D01*
X160578796Y-119592331D01*
X160629091Y-119457483D01*
X160635500Y-119397873D01*
X160635499Y-117602128D01*
X160629091Y-117542517D01*
X160627810Y-117539083D01*
X160578797Y-117407671D01*
X160578793Y-117407664D01*
X160492547Y-117292455D01*
X160492544Y-117292452D01*
X160377335Y-117206206D01*
X160377328Y-117206202D01*
X160242482Y-117155908D01*
X160242483Y-117155908D01*
X160182883Y-117149501D01*
X160182881Y-117149500D01*
X160182873Y-117149500D01*
X160182864Y-117149500D01*
X158387129Y-117149500D01*
X158387123Y-117149501D01*
X158327516Y-117155908D01*
X158192671Y-117206202D01*
X158192664Y-117206206D01*
X158077455Y-117292452D01*
X158077452Y-117292455D01*
X157991206Y-117407664D01*
X157991203Y-117407669D01*
X157942189Y-117539083D01*
X157900317Y-117595016D01*
X157834853Y-117619433D01*
X157766580Y-117604581D01*
X157738326Y-117583430D01*
X157624786Y-117469890D01*
X157452820Y-117344951D01*
X157263414Y-117248444D01*
X157263413Y-117248443D01*
X157263412Y-117248443D01*
X157061243Y-117182754D01*
X157061241Y-117182753D01*
X157061240Y-117182753D01*
X156899957Y-117157208D01*
X156851287Y-117149500D01*
X156638713Y-117149500D01*
X156590042Y-117157208D01*
X156428760Y-117182753D01*
X156226585Y-117248444D01*
X156037179Y-117344951D01*
X155865213Y-117469890D01*
X155714890Y-117620213D01*
X155589949Y-117792182D01*
X155585484Y-117800946D01*
X155537509Y-117851742D01*
X155469688Y-117868536D01*
X155403553Y-117845998D01*
X155364516Y-117800946D01*
X155360050Y-117792182D01*
X155235109Y-117620213D01*
X155084786Y-117469890D01*
X154912820Y-117344951D01*
X154723414Y-117248444D01*
X154723413Y-117248443D01*
X154723412Y-117248443D01*
X154521243Y-117182754D01*
X154521241Y-117182753D01*
X154521240Y-117182753D01*
X154359957Y-117157208D01*
X154311287Y-117149500D01*
X154098713Y-117149500D01*
X154050042Y-117157208D01*
X153888760Y-117182753D01*
X153686585Y-117248444D01*
X153497179Y-117344951D01*
X153325213Y-117469890D01*
X153174890Y-117620213D01*
X153049949Y-117792182D01*
X153045484Y-117800946D01*
X152997509Y-117851742D01*
X152929688Y-117868536D01*
X152863553Y-117845998D01*
X152824516Y-117800946D01*
X152820050Y-117792182D01*
X152695109Y-117620213D01*
X152544786Y-117469890D01*
X152372820Y-117344951D01*
X152183414Y-117248444D01*
X152183413Y-117248443D01*
X152183412Y-117248443D01*
X151981243Y-117182754D01*
X151981241Y-117182753D01*
X151981240Y-117182753D01*
X151819957Y-117157208D01*
X151771287Y-117149500D01*
X151558713Y-117149500D01*
X151510042Y-117157208D01*
X151348760Y-117182753D01*
X151146585Y-117248444D01*
X150957179Y-117344951D01*
X150785213Y-117469890D01*
X150634890Y-117620213D01*
X150509949Y-117792182D01*
X150505484Y-117800946D01*
X150457509Y-117851742D01*
X150389688Y-117868536D01*
X150323553Y-117845998D01*
X150284516Y-117800946D01*
X150280050Y-117792182D01*
X150155109Y-117620213D01*
X150004786Y-117469890D01*
X149832820Y-117344951D01*
X149643414Y-117248444D01*
X149643413Y-117248443D01*
X149643412Y-117248443D01*
X149441243Y-117182754D01*
X149441241Y-117182753D01*
X149441240Y-117182753D01*
X149279957Y-117157208D01*
X149231287Y-117149500D01*
X149018713Y-117149500D01*
X148970042Y-117157208D01*
X148808760Y-117182753D01*
X148606585Y-117248444D01*
X148417179Y-117344951D01*
X148245213Y-117469890D01*
X148094890Y-117620213D01*
X147969949Y-117792182D01*
X147965484Y-117800946D01*
X147917509Y-117851742D01*
X147849688Y-117868536D01*
X147783553Y-117845998D01*
X147744516Y-117800946D01*
X147740050Y-117792182D01*
X147615109Y-117620213D01*
X147464786Y-117469890D01*
X147292820Y-117344951D01*
X147103414Y-117248444D01*
X147103413Y-117248443D01*
X147103412Y-117248443D01*
X146901243Y-117182754D01*
X146901241Y-117182753D01*
X146901240Y-117182753D01*
X146739957Y-117157208D01*
X146691287Y-117149500D01*
X146478713Y-117149500D01*
X146430042Y-117157208D01*
X146268760Y-117182753D01*
X146066585Y-117248444D01*
X145877179Y-117344951D01*
X145705213Y-117469890D01*
X145554890Y-117620213D01*
X145429949Y-117792182D01*
X145425484Y-117800946D01*
X145377509Y-117851742D01*
X145309688Y-117868536D01*
X145243553Y-117845998D01*
X145204516Y-117800946D01*
X145200050Y-117792182D01*
X145075109Y-117620213D01*
X144924786Y-117469890D01*
X144752820Y-117344951D01*
X144563414Y-117248444D01*
X144563413Y-117248443D01*
X144563412Y-117248443D01*
X144361243Y-117182754D01*
X144361241Y-117182753D01*
X144361240Y-117182753D01*
X144199957Y-117157208D01*
X144151287Y-117149500D01*
X143938713Y-117149500D01*
X143890042Y-117157208D01*
X143728760Y-117182753D01*
X143526585Y-117248444D01*
X143337179Y-117344951D01*
X143165213Y-117469890D01*
X143014890Y-117620213D01*
X142889949Y-117792182D01*
X142885484Y-117800946D01*
X142837509Y-117851742D01*
X142769688Y-117868536D01*
X142703553Y-117845998D01*
X142664516Y-117800946D01*
X142660050Y-117792182D01*
X142535109Y-117620213D01*
X142384786Y-117469890D01*
X142212820Y-117344951D01*
X142023414Y-117248444D01*
X142023413Y-117248443D01*
X142023412Y-117248443D01*
X141821243Y-117182754D01*
X141821241Y-117182753D01*
X141821240Y-117182753D01*
X141659957Y-117157208D01*
X141611287Y-117149500D01*
X141398713Y-117149500D01*
X141350042Y-117157208D01*
X141188760Y-117182753D01*
X140986585Y-117248444D01*
X140797179Y-117344951D01*
X140625213Y-117469890D01*
X140474890Y-117620213D01*
X140349949Y-117792182D01*
X140345484Y-117800946D01*
X140297509Y-117851742D01*
X140229688Y-117868536D01*
X140163553Y-117845998D01*
X140124516Y-117800946D01*
X140120050Y-117792182D01*
X139995109Y-117620213D01*
X139844786Y-117469890D01*
X139672820Y-117344951D01*
X139483414Y-117248444D01*
X139483413Y-117248443D01*
X139483412Y-117248443D01*
X139281243Y-117182754D01*
X139281241Y-117182753D01*
X139281240Y-117182753D01*
X139119957Y-117157208D01*
X139071287Y-117149500D01*
X138858713Y-117149500D01*
X138810042Y-117157208D01*
X138648760Y-117182753D01*
X138446585Y-117248444D01*
X138257179Y-117344951D01*
X138085213Y-117469890D01*
X137934890Y-117620213D01*
X137809949Y-117792182D01*
X137805484Y-117800946D01*
X137757509Y-117851742D01*
X137689688Y-117868536D01*
X137623553Y-117845998D01*
X137584516Y-117800946D01*
X137580050Y-117792182D01*
X137455109Y-117620213D01*
X137304786Y-117469890D01*
X137132820Y-117344951D01*
X136943414Y-117248444D01*
X136943413Y-117248443D01*
X136943412Y-117248443D01*
X136741243Y-117182754D01*
X136741241Y-117182753D01*
X136741240Y-117182753D01*
X136579957Y-117157208D01*
X136531287Y-117149500D01*
X136318713Y-117149500D01*
X136270042Y-117157208D01*
X136108760Y-117182753D01*
X135906585Y-117248444D01*
X135717179Y-117344951D01*
X135545213Y-117469890D01*
X135394890Y-117620213D01*
X135269949Y-117792182D01*
X135265484Y-117800946D01*
X135217509Y-117851742D01*
X135149688Y-117868536D01*
X135083553Y-117845998D01*
X135044516Y-117800946D01*
X135040050Y-117792182D01*
X134915109Y-117620213D01*
X134764786Y-117469890D01*
X134592820Y-117344951D01*
X134403414Y-117248444D01*
X134403413Y-117248443D01*
X134403412Y-117248443D01*
X134201243Y-117182754D01*
X134201241Y-117182753D01*
X134201240Y-117182753D01*
X134039957Y-117157208D01*
X133991287Y-117149500D01*
X133778713Y-117149500D01*
X133730042Y-117157208D01*
X133568760Y-117182753D01*
X133366585Y-117248444D01*
X133177179Y-117344951D01*
X133005213Y-117469890D01*
X132854890Y-117620213D01*
X132729949Y-117792182D01*
X132725484Y-117800946D01*
X132677509Y-117851742D01*
X132609688Y-117868536D01*
X132543553Y-117845998D01*
X132504516Y-117800946D01*
X132500050Y-117792182D01*
X132375109Y-117620213D01*
X132224786Y-117469890D01*
X132052820Y-117344951D01*
X131863414Y-117248444D01*
X131863413Y-117248443D01*
X131863412Y-117248443D01*
X131661243Y-117182754D01*
X131661241Y-117182753D01*
X131661240Y-117182753D01*
X131499957Y-117157208D01*
X131451287Y-117149500D01*
X131238713Y-117149500D01*
X131190042Y-117157208D01*
X131028760Y-117182753D01*
X130826585Y-117248444D01*
X130637179Y-117344951D01*
X130465213Y-117469890D01*
X130314890Y-117620213D01*
X130189949Y-117792182D01*
X130185484Y-117800946D01*
X130137509Y-117851742D01*
X130069688Y-117868536D01*
X130003553Y-117845998D01*
X129964516Y-117800946D01*
X129960050Y-117792182D01*
X129835109Y-117620213D01*
X129684786Y-117469890D01*
X129512820Y-117344951D01*
X129323414Y-117248444D01*
X129323413Y-117248443D01*
X129323412Y-117248443D01*
X129121243Y-117182754D01*
X129121241Y-117182753D01*
X129121240Y-117182753D01*
X128959957Y-117157208D01*
X128911287Y-117149500D01*
X128698713Y-117149500D01*
X128650042Y-117157208D01*
X128488760Y-117182753D01*
X128286585Y-117248444D01*
X128097179Y-117344951D01*
X127925213Y-117469890D01*
X127774890Y-117620213D01*
X127649949Y-117792182D01*
X127645484Y-117800946D01*
X127597509Y-117851742D01*
X127529688Y-117868536D01*
X127463553Y-117845998D01*
X127424516Y-117800946D01*
X127420050Y-117792182D01*
X127295109Y-117620213D01*
X127144786Y-117469890D01*
X126972820Y-117344951D01*
X126783414Y-117248444D01*
X126783413Y-117248443D01*
X126783412Y-117248443D01*
X126581243Y-117182754D01*
X126581241Y-117182753D01*
X126581240Y-117182753D01*
X126419957Y-117157208D01*
X126371287Y-117149500D01*
X126158713Y-117149500D01*
X126110042Y-117157208D01*
X125948760Y-117182753D01*
X125746585Y-117248444D01*
X125557179Y-117344951D01*
X125385213Y-117469890D01*
X125234890Y-117620213D01*
X125109949Y-117792182D01*
X125105484Y-117800946D01*
X125057509Y-117851742D01*
X124989688Y-117868536D01*
X124923553Y-117845998D01*
X124884516Y-117800946D01*
X124880050Y-117792182D01*
X124755109Y-117620213D01*
X124604786Y-117469890D01*
X124432820Y-117344951D01*
X124243414Y-117248444D01*
X124243413Y-117248443D01*
X124243412Y-117248443D01*
X124041243Y-117182754D01*
X124041241Y-117182753D01*
X124041240Y-117182753D01*
X123879957Y-117157208D01*
X123831287Y-117149500D01*
X123618713Y-117149500D01*
X123570042Y-117157208D01*
X123408760Y-117182753D01*
X123206585Y-117248444D01*
X123017179Y-117344951D01*
X122845213Y-117469890D01*
X122694890Y-117620213D01*
X122569949Y-117792182D01*
X122565484Y-117800946D01*
X122517509Y-117851742D01*
X122449688Y-117868536D01*
X122383553Y-117845998D01*
X122344516Y-117800946D01*
X122340050Y-117792182D01*
X122215109Y-117620213D01*
X122064786Y-117469890D01*
X121892820Y-117344951D01*
X121703414Y-117248444D01*
X121703413Y-117248443D01*
X121703412Y-117248443D01*
X121501243Y-117182754D01*
X121501241Y-117182753D01*
X121501240Y-117182753D01*
X121339957Y-117157208D01*
X121291287Y-117149500D01*
X121078713Y-117149500D01*
X121030042Y-117157208D01*
X120868760Y-117182753D01*
X120666585Y-117248444D01*
X120477179Y-117344951D01*
X120305213Y-117469890D01*
X120154890Y-117620213D01*
X120029951Y-117792179D01*
X119933444Y-117981585D01*
X119867753Y-118183760D01*
X119843347Y-118337857D01*
X119834500Y-118393713D01*
X118300500Y-118393713D01*
X118300500Y-118337857D01*
X118268714Y-118015132D01*
X118239554Y-117868536D01*
X118205454Y-117697097D01*
X118205451Y-117697086D01*
X118205450Y-117697083D01*
X118205449Y-117697077D01*
X118111314Y-117386754D01*
X117987215Y-117087153D01*
X117834347Y-116801158D01*
X117654183Y-116531524D01*
X117448458Y-116280847D01*
X117448457Y-116280846D01*
X117448453Y-116280841D01*
X117219158Y-116051546D01*
X116968481Y-115845821D01*
X116968480Y-115845820D01*
X116968476Y-115845817D01*
X116698842Y-115665653D01*
X116698837Y-115665650D01*
X116698830Y-115665646D01*
X116412854Y-115512788D01*
X116412849Y-115512786D01*
X116113247Y-115388686D01*
X115802913Y-115294548D01*
X115802902Y-115294545D01*
X115484874Y-115231287D01*
X115484857Y-115231284D01*
X115240812Y-115207248D01*
X115162143Y-115199500D01*
X114837857Y-115199500D01*
X114765099Y-115206666D01*
X114515142Y-115231284D01*
X114515125Y-115231287D01*
X114197097Y-115294545D01*
X114197086Y-115294548D01*
X113886752Y-115388686D01*
X113587150Y-115512786D01*
X113587145Y-115512788D01*
X113301169Y-115665646D01*
X113301151Y-115665657D01*
X113031532Y-115845811D01*
X113031518Y-115845821D01*
X112780841Y-116051546D01*
X112551546Y-116280841D01*
X112345821Y-116531518D01*
X112345811Y-116531532D01*
X112165657Y-116801151D01*
X112165646Y-116801169D01*
X112012788Y-117087145D01*
X112012786Y-117087150D01*
X111964061Y-117204783D01*
X111920220Y-117259186D01*
X111853926Y-117281251D01*
X111786226Y-117263972D01*
X111738616Y-117212834D01*
X111725500Y-117157330D01*
X111725500Y-84842669D01*
X111745185Y-84775630D01*
X111797989Y-84729875D01*
X111867147Y-84719931D01*
X111930703Y-84748956D01*
X111964059Y-84795214D01*
X112000500Y-84883188D01*
X112012786Y-84912849D01*
X112012788Y-84912854D01*
X112165646Y-85198830D01*
X112165657Y-85198848D01*
X112345811Y-85468467D01*
X112345821Y-85468481D01*
X112551546Y-85719158D01*
X112780841Y-85948453D01*
X112780846Y-85948457D01*
X112780847Y-85948458D01*
X113031524Y-86154183D01*
X113301158Y-86334347D01*
X113301167Y-86334352D01*
X113301169Y-86334353D01*
X113587145Y-86487211D01*
X113587147Y-86487211D01*
X113587153Y-86487215D01*
X113886754Y-86611314D01*
X114197077Y-86705449D01*
X114197083Y-86705450D01*
X114197086Y-86705451D01*
X114197097Y-86705454D01*
X114396528Y-86745122D01*
X114515132Y-86768714D01*
X114837857Y-86800500D01*
X114837860Y-86800500D01*
X115162140Y-86800500D01*
X115162143Y-86800500D01*
X115484868Y-86768714D01*
X115647493Y-86736366D01*
X115802902Y-86705454D01*
X115802913Y-86705451D01*
X115802913Y-86705450D01*
X115802923Y-86705449D01*
X116113246Y-86611314D01*
X116412847Y-86487215D01*
X116587776Y-86393713D01*
X119649500Y-86393713D01*
X119649500Y-86606287D01*
X119650296Y-86611313D01*
X119680260Y-86800500D01*
X119682754Y-86816243D01*
X119742622Y-87000498D01*
X119748444Y-87018414D01*
X119844951Y-87207820D01*
X119969890Y-87379786D01*
X120120213Y-87530109D01*
X120292179Y-87655048D01*
X120292181Y-87655049D01*
X120292184Y-87655051D01*
X120481588Y-87751557D01*
X120683757Y-87817246D01*
X120893713Y-87850500D01*
X120893714Y-87850500D01*
X121106286Y-87850500D01*
X121106287Y-87850500D01*
X121316243Y-87817246D01*
X121518412Y-87751557D01*
X121707816Y-87655051D01*
X121794478Y-87592088D01*
X121879786Y-87530109D01*
X121879788Y-87530106D01*
X121879792Y-87530104D01*
X122030104Y-87379792D01*
X122030106Y-87379788D01*
X122030109Y-87379786D01*
X122155048Y-87207820D01*
X122155047Y-87207820D01*
X122155051Y-87207816D01*
X122159514Y-87199054D01*
X122207488Y-87148259D01*
X122275308Y-87131463D01*
X122341444Y-87153999D01*
X122380486Y-87199056D01*
X122384951Y-87207820D01*
X122509890Y-87379786D01*
X122660213Y-87530109D01*
X122832179Y-87655048D01*
X122832181Y-87655049D01*
X122832184Y-87655051D01*
X123021588Y-87751557D01*
X123223757Y-87817246D01*
X123433713Y-87850500D01*
X123433714Y-87850500D01*
X123646286Y-87850500D01*
X123646287Y-87850500D01*
X123856243Y-87817246D01*
X124058412Y-87751557D01*
X124247816Y-87655051D01*
X124334478Y-87592088D01*
X124419786Y-87530109D01*
X124419788Y-87530106D01*
X124419792Y-87530104D01*
X124570104Y-87379792D01*
X124570106Y-87379788D01*
X124570109Y-87379786D01*
X124655890Y-87261717D01*
X124695051Y-87207816D01*
X124699793Y-87198508D01*
X124747763Y-87147711D01*
X124815583Y-87130911D01*
X124881719Y-87153445D01*
X124920763Y-87198500D01*
X124925373Y-87207547D01*
X124964728Y-87261716D01*
X125597037Y-86629408D01*
X125614075Y-86692993D01*
X125679901Y-86807007D01*
X125772993Y-86900099D01*
X125887007Y-86965925D01*
X125950590Y-86982962D01*
X125318282Y-87615269D01*
X125318282Y-87615270D01*
X125372449Y-87654624D01*
X125561782Y-87751095D01*
X125763870Y-87816757D01*
X125973754Y-87850000D01*
X126186246Y-87850000D01*
X126396127Y-87816757D01*
X126396130Y-87816757D01*
X126598217Y-87751095D01*
X126787554Y-87654622D01*
X126841716Y-87615270D01*
X126841717Y-87615270D01*
X126209408Y-86982962D01*
X126272993Y-86965925D01*
X126387007Y-86900099D01*
X126480099Y-86807007D01*
X126545925Y-86692993D01*
X126562962Y-86629409D01*
X127195270Y-87261717D01*
X127195270Y-87261716D01*
X127234622Y-87207555D01*
X127239232Y-87198507D01*
X127287205Y-87147709D01*
X127355025Y-87130912D01*
X127421161Y-87153447D01*
X127460204Y-87198504D01*
X127464949Y-87207817D01*
X127589890Y-87379786D01*
X127740213Y-87530109D01*
X127912179Y-87655048D01*
X127912181Y-87655049D01*
X127912184Y-87655051D01*
X128101588Y-87751557D01*
X128303757Y-87817246D01*
X128513713Y-87850500D01*
X128513714Y-87850500D01*
X128726286Y-87850500D01*
X128726287Y-87850500D01*
X128936243Y-87817246D01*
X129138412Y-87751557D01*
X129327816Y-87655051D01*
X129414478Y-87592088D01*
X129499786Y-87530109D01*
X129499788Y-87530106D01*
X129499792Y-87530104D01*
X129650104Y-87379792D01*
X129650106Y-87379788D01*
X129650109Y-87379786D01*
X129775048Y-87207820D01*
X129775047Y-87207820D01*
X129775051Y-87207816D01*
X129779514Y-87199054D01*
X129827488Y-87148259D01*
X129895308Y-87131463D01*
X129961444Y-87153999D01*
X130000486Y-87199056D01*
X130004951Y-87207820D01*
X130129890Y-87379786D01*
X130280213Y-87530109D01*
X130452179Y-87655048D01*
X130452181Y-87655049D01*
X130452184Y-87655051D01*
X130641588Y-87751557D01*
X130843757Y-87817246D01*
X131053713Y-87850500D01*
X131053714Y-87850500D01*
X131266286Y-87850500D01*
X131266287Y-87850500D01*
X131476243Y-87817246D01*
X131678412Y-87751557D01*
X131867816Y-87655051D01*
X131954478Y-87592088D01*
X132039786Y-87530109D01*
X132039788Y-87530106D01*
X132039792Y-87530104D01*
X132190104Y-87379792D01*
X132190106Y-87379788D01*
X132190109Y-87379786D01*
X132315048Y-87207820D01*
X132315047Y-87207820D01*
X132315051Y-87207816D01*
X132319514Y-87199054D01*
X132367488Y-87148259D01*
X132435308Y-87131463D01*
X132501444Y-87153999D01*
X132540486Y-87199056D01*
X132544951Y-87207820D01*
X132669890Y-87379786D01*
X132820213Y-87530109D01*
X132992179Y-87655048D01*
X132992181Y-87655049D01*
X132992184Y-87655051D01*
X133181588Y-87751557D01*
X133383757Y-87817246D01*
X133593713Y-87850500D01*
X133593714Y-87850500D01*
X133806286Y-87850500D01*
X133806287Y-87850500D01*
X134016243Y-87817246D01*
X134218412Y-87751557D01*
X134407816Y-87655051D01*
X134494478Y-87592088D01*
X134579786Y-87530109D01*
X134579788Y-87530106D01*
X134579792Y-87530104D01*
X134730104Y-87379792D01*
X134730106Y-87379788D01*
X134730109Y-87379786D01*
X134855048Y-87207820D01*
X134855047Y-87207820D01*
X134855051Y-87207816D01*
X134859514Y-87199054D01*
X134907488Y-87148259D01*
X134975308Y-87131463D01*
X135041444Y-87153999D01*
X135080486Y-87199056D01*
X135084951Y-87207820D01*
X135209890Y-87379786D01*
X135360213Y-87530109D01*
X135532179Y-87655048D01*
X135532181Y-87655049D01*
X135532184Y-87655051D01*
X135721588Y-87751557D01*
X135923757Y-87817246D01*
X136133713Y-87850500D01*
X136133714Y-87850500D01*
X136346286Y-87850500D01*
X136346287Y-87850500D01*
X136556243Y-87817246D01*
X136758412Y-87751557D01*
X136947816Y-87655051D01*
X137034478Y-87592088D01*
X137119784Y-87530110D01*
X137119784Y-87530109D01*
X137119792Y-87530104D01*
X137233717Y-87416178D01*
X137295036Y-87382696D01*
X137364728Y-87387680D01*
X137420662Y-87429551D01*
X137437577Y-87460528D01*
X137486646Y-87592088D01*
X137486649Y-87592093D01*
X137572809Y-87707187D01*
X137572812Y-87707190D01*
X137687906Y-87793350D01*
X137687913Y-87793354D01*
X137822620Y-87843596D01*
X137822627Y-87843598D01*
X137882155Y-87849999D01*
X137882172Y-87850000D01*
X138530000Y-87850000D01*
X138530000Y-86933012D01*
X138587007Y-86965925D01*
X138714174Y-87000000D01*
X138845826Y-87000000D01*
X138972993Y-86965925D01*
X139030000Y-86933012D01*
X139030000Y-87850000D01*
X139677828Y-87850000D01*
X139677844Y-87849999D01*
X139737372Y-87843598D01*
X139737379Y-87843596D01*
X139872086Y-87793354D01*
X139872093Y-87793350D01*
X139987187Y-87707190D01*
X139987190Y-87707187D01*
X140073350Y-87592093D01*
X140073354Y-87592086D01*
X140123596Y-87457379D01*
X140123598Y-87457372D01*
X140129999Y-87397844D01*
X140130000Y-87397827D01*
X140130000Y-86750000D01*
X139213012Y-86750000D01*
X139245925Y-86692993D01*
X139280000Y-86565826D01*
X139280000Y-86434174D01*
X139245925Y-86307007D01*
X139213012Y-86250000D01*
X140130000Y-86250000D01*
X140130000Y-85602172D01*
X140129999Y-85602155D01*
X141610000Y-85602155D01*
X141610000Y-86250000D01*
X142526988Y-86250000D01*
X142494075Y-86307007D01*
X142460000Y-86434174D01*
X142460000Y-86565826D01*
X142494075Y-86692993D01*
X142526988Y-86750000D01*
X141610000Y-86750000D01*
X141610000Y-87397844D01*
X141616401Y-87457372D01*
X141616403Y-87457379D01*
X141666645Y-87592086D01*
X141666649Y-87592093D01*
X141752809Y-87707187D01*
X141752812Y-87707190D01*
X141867906Y-87793350D01*
X141867913Y-87793354D01*
X142002620Y-87843596D01*
X142002627Y-87843598D01*
X142062155Y-87849999D01*
X142062172Y-87850000D01*
X142710000Y-87850000D01*
X142710000Y-86933012D01*
X142767007Y-86965925D01*
X142894174Y-87000000D01*
X143025826Y-87000000D01*
X143152993Y-86965925D01*
X143210000Y-86933012D01*
X143210000Y-87850000D01*
X143857828Y-87850000D01*
X143857844Y-87849999D01*
X143917372Y-87843598D01*
X143917379Y-87843596D01*
X144052086Y-87793354D01*
X144052093Y-87793350D01*
X144167187Y-87707190D01*
X144167190Y-87707187D01*
X144253350Y-87592093D01*
X144253354Y-87592086D01*
X144302422Y-87460529D01*
X144344293Y-87404595D01*
X144409757Y-87380178D01*
X144478030Y-87395030D01*
X144506285Y-87416181D01*
X144620213Y-87530109D01*
X144792179Y-87655048D01*
X144792181Y-87655049D01*
X144792184Y-87655051D01*
X144981588Y-87751557D01*
X145183757Y-87817246D01*
X145393713Y-87850500D01*
X145393714Y-87850500D01*
X145606286Y-87850500D01*
X145606287Y-87850500D01*
X145816243Y-87817246D01*
X146018412Y-87751557D01*
X146207816Y-87655051D01*
X146294478Y-87592088D01*
X146379786Y-87530109D01*
X146379788Y-87530106D01*
X146379792Y-87530104D01*
X146530104Y-87379792D01*
X146530106Y-87379788D01*
X146530109Y-87379786D01*
X146655048Y-87207820D01*
X146655047Y-87207820D01*
X146655051Y-87207816D01*
X146659514Y-87199054D01*
X146707488Y-87148259D01*
X146775308Y-87131463D01*
X146841444Y-87153999D01*
X146880486Y-87199056D01*
X146884951Y-87207820D01*
X147009890Y-87379786D01*
X147160213Y-87530109D01*
X147332179Y-87655048D01*
X147332181Y-87655049D01*
X147332184Y-87655051D01*
X147521588Y-87751557D01*
X147723757Y-87817246D01*
X147933713Y-87850500D01*
X147933714Y-87850500D01*
X148146286Y-87850500D01*
X148146287Y-87850500D01*
X148356243Y-87817246D01*
X148558412Y-87751557D01*
X148747816Y-87655051D01*
X148834478Y-87592088D01*
X148919786Y-87530109D01*
X148919788Y-87530106D01*
X148919792Y-87530104D01*
X149070104Y-87379792D01*
X149070106Y-87379788D01*
X149070109Y-87379786D01*
X149195048Y-87207820D01*
X149195047Y-87207820D01*
X149195051Y-87207816D01*
X149199514Y-87199054D01*
X149247488Y-87148259D01*
X149315308Y-87131463D01*
X149381444Y-87153999D01*
X149420486Y-87199056D01*
X149424951Y-87207820D01*
X149549890Y-87379786D01*
X149700213Y-87530109D01*
X149872179Y-87655048D01*
X149872181Y-87655049D01*
X149872184Y-87655051D01*
X150061588Y-87751557D01*
X150263757Y-87817246D01*
X150473713Y-87850500D01*
X150473714Y-87850500D01*
X150686286Y-87850500D01*
X150686287Y-87850500D01*
X150896243Y-87817246D01*
X151098412Y-87751557D01*
X151287816Y-87655051D01*
X151374478Y-87592088D01*
X151459786Y-87530109D01*
X151459788Y-87530106D01*
X151459792Y-87530104D01*
X151610104Y-87379792D01*
X151610106Y-87379788D01*
X151610109Y-87379786D01*
X151735048Y-87207820D01*
X151735047Y-87207820D01*
X151735051Y-87207816D01*
X151739514Y-87199054D01*
X151787488Y-87148259D01*
X151855308Y-87131463D01*
X151921444Y-87153999D01*
X151960486Y-87199056D01*
X151964951Y-87207820D01*
X152089890Y-87379786D01*
X152240213Y-87530109D01*
X152412179Y-87655048D01*
X152412181Y-87655049D01*
X152412184Y-87655051D01*
X152601588Y-87751557D01*
X152803757Y-87817246D01*
X153013713Y-87850500D01*
X153013714Y-87850500D01*
X153226286Y-87850500D01*
X153226287Y-87850500D01*
X153436243Y-87817246D01*
X153638412Y-87751557D01*
X153827816Y-87655051D01*
X153914478Y-87592088D01*
X153999786Y-87530109D01*
X153999788Y-87530106D01*
X153999792Y-87530104D01*
X154150104Y-87379792D01*
X154150106Y-87379788D01*
X154150109Y-87379786D01*
X154275048Y-87207820D01*
X154275047Y-87207820D01*
X154275051Y-87207816D01*
X154279514Y-87199054D01*
X154327488Y-87148259D01*
X154395308Y-87131463D01*
X154461444Y-87153999D01*
X154500486Y-87199056D01*
X154504951Y-87207820D01*
X154629890Y-87379786D01*
X154780213Y-87530109D01*
X154952179Y-87655048D01*
X154952181Y-87655049D01*
X154952184Y-87655051D01*
X155141588Y-87751557D01*
X155343757Y-87817246D01*
X155553713Y-87850500D01*
X155553714Y-87850500D01*
X155766286Y-87850500D01*
X155766287Y-87850500D01*
X155976243Y-87817246D01*
X156178412Y-87751557D01*
X156367816Y-87655051D01*
X156454478Y-87592088D01*
X156539786Y-87530109D01*
X156539788Y-87530106D01*
X156539792Y-87530104D01*
X156690104Y-87379792D01*
X156690106Y-87379788D01*
X156690109Y-87379786D01*
X156815048Y-87207820D01*
X156815047Y-87207820D01*
X156815051Y-87207816D01*
X156819514Y-87199054D01*
X156867488Y-87148259D01*
X156935308Y-87131463D01*
X157001444Y-87153999D01*
X157040486Y-87199056D01*
X157044951Y-87207820D01*
X157169890Y-87379786D01*
X157320213Y-87530109D01*
X157492179Y-87655048D01*
X157492181Y-87655049D01*
X157492184Y-87655051D01*
X157681588Y-87751557D01*
X157883757Y-87817246D01*
X158093713Y-87850500D01*
X158093714Y-87850500D01*
X158306286Y-87850500D01*
X158306287Y-87850500D01*
X158516243Y-87817246D01*
X158718412Y-87751557D01*
X158907816Y-87655051D01*
X158994478Y-87592088D01*
X159079786Y-87530109D01*
X159079788Y-87530106D01*
X159079792Y-87530104D01*
X159230104Y-87379792D01*
X159230106Y-87379788D01*
X159230109Y-87379786D01*
X159355048Y-87207820D01*
X159355047Y-87207820D01*
X159355051Y-87207816D01*
X159359514Y-87199054D01*
X159407488Y-87148259D01*
X159475308Y-87131463D01*
X159541444Y-87153999D01*
X159580486Y-87199056D01*
X159584951Y-87207820D01*
X159709890Y-87379786D01*
X159860213Y-87530109D01*
X160032179Y-87655048D01*
X160032181Y-87655049D01*
X160032184Y-87655051D01*
X160221588Y-87751557D01*
X160423757Y-87817246D01*
X160633713Y-87850500D01*
X160633714Y-87850500D01*
X160846286Y-87850500D01*
X160846287Y-87850500D01*
X161056243Y-87817246D01*
X161258412Y-87751557D01*
X161447816Y-87655051D01*
X161534478Y-87592088D01*
X161619786Y-87530109D01*
X161619788Y-87530106D01*
X161619792Y-87530104D01*
X161770104Y-87379792D01*
X161770106Y-87379788D01*
X161770109Y-87379786D01*
X161895048Y-87207820D01*
X161895047Y-87207820D01*
X161895051Y-87207816D01*
X161991557Y-87018412D01*
X162057246Y-86816243D01*
X162090500Y-86606287D01*
X162090500Y-86393713D01*
X162057246Y-86183757D01*
X161991557Y-85981588D01*
X161895051Y-85792184D01*
X161895049Y-85792181D01*
X161895048Y-85792179D01*
X161770109Y-85620213D01*
X161619786Y-85469890D01*
X161447820Y-85344951D01*
X161258414Y-85248444D01*
X161258413Y-85248443D01*
X161258412Y-85248443D01*
X161056243Y-85182754D01*
X161056241Y-85182753D01*
X161056240Y-85182753D01*
X160894957Y-85157208D01*
X160846287Y-85149500D01*
X160633713Y-85149500D01*
X160585042Y-85157208D01*
X160423760Y-85182753D01*
X160221585Y-85248444D01*
X160032179Y-85344951D01*
X159860213Y-85469890D01*
X159709890Y-85620213D01*
X159584949Y-85792182D01*
X159580484Y-85800946D01*
X159532509Y-85851742D01*
X159464688Y-85868536D01*
X159398553Y-85845998D01*
X159359516Y-85800946D01*
X159355050Y-85792182D01*
X159230109Y-85620213D01*
X159079786Y-85469890D01*
X158907820Y-85344951D01*
X158718414Y-85248444D01*
X158718413Y-85248443D01*
X158718412Y-85248443D01*
X158516243Y-85182754D01*
X158516241Y-85182753D01*
X158516240Y-85182753D01*
X158354957Y-85157208D01*
X158306287Y-85149500D01*
X158093713Y-85149500D01*
X158045042Y-85157208D01*
X157883760Y-85182753D01*
X157681585Y-85248444D01*
X157492179Y-85344951D01*
X157320213Y-85469890D01*
X157169890Y-85620213D01*
X157044949Y-85792182D01*
X157040484Y-85800946D01*
X156992509Y-85851742D01*
X156924688Y-85868536D01*
X156858553Y-85845998D01*
X156819516Y-85800946D01*
X156815050Y-85792182D01*
X156690109Y-85620213D01*
X156539786Y-85469890D01*
X156367820Y-85344951D01*
X156178414Y-85248444D01*
X156178413Y-85248443D01*
X156178412Y-85248443D01*
X155976243Y-85182754D01*
X155976241Y-85182753D01*
X155976240Y-85182753D01*
X155814957Y-85157208D01*
X155766287Y-85149500D01*
X155553713Y-85149500D01*
X155505042Y-85157208D01*
X155343760Y-85182753D01*
X155141585Y-85248444D01*
X154952179Y-85344951D01*
X154780213Y-85469890D01*
X154629890Y-85620213D01*
X154504949Y-85792182D01*
X154500484Y-85800946D01*
X154452509Y-85851742D01*
X154384688Y-85868536D01*
X154318553Y-85845998D01*
X154279516Y-85800946D01*
X154275050Y-85792182D01*
X154150109Y-85620213D01*
X153999786Y-85469890D01*
X153827820Y-85344951D01*
X153638414Y-85248444D01*
X153638413Y-85248443D01*
X153638412Y-85248443D01*
X153436243Y-85182754D01*
X153436241Y-85182753D01*
X153436240Y-85182753D01*
X153274957Y-85157208D01*
X153226287Y-85149500D01*
X153013713Y-85149500D01*
X152965042Y-85157208D01*
X152803760Y-85182753D01*
X152601585Y-85248444D01*
X152412179Y-85344951D01*
X152240213Y-85469890D01*
X152089890Y-85620213D01*
X151964949Y-85792182D01*
X151960484Y-85800946D01*
X151912509Y-85851742D01*
X151844688Y-85868536D01*
X151778553Y-85845998D01*
X151739516Y-85800946D01*
X151735050Y-85792182D01*
X151610109Y-85620213D01*
X151459786Y-85469890D01*
X151287820Y-85344951D01*
X151098414Y-85248444D01*
X151098413Y-85248443D01*
X151098412Y-85248443D01*
X150896243Y-85182754D01*
X150896241Y-85182753D01*
X150896240Y-85182753D01*
X150734957Y-85157208D01*
X150686287Y-85149500D01*
X150473713Y-85149500D01*
X150425042Y-85157208D01*
X150263760Y-85182753D01*
X150061585Y-85248444D01*
X149872179Y-85344951D01*
X149700213Y-85469890D01*
X149549890Y-85620213D01*
X149424949Y-85792182D01*
X149420484Y-85800946D01*
X149372509Y-85851742D01*
X149304688Y-85868536D01*
X149238553Y-85845998D01*
X149199516Y-85800946D01*
X149195050Y-85792182D01*
X149070109Y-85620213D01*
X148919786Y-85469890D01*
X148747820Y-85344951D01*
X148558414Y-85248444D01*
X148558413Y-85248443D01*
X148558412Y-85248443D01*
X148356243Y-85182754D01*
X148356241Y-85182753D01*
X148356240Y-85182753D01*
X148194957Y-85157208D01*
X148146287Y-85149500D01*
X147933713Y-85149500D01*
X147885042Y-85157208D01*
X147723760Y-85182753D01*
X147521585Y-85248444D01*
X147332179Y-85344951D01*
X147160213Y-85469890D01*
X147009890Y-85620213D01*
X146884949Y-85792182D01*
X146880484Y-85800946D01*
X146832509Y-85851742D01*
X146764688Y-85868536D01*
X146698553Y-85845998D01*
X146659516Y-85800946D01*
X146655050Y-85792182D01*
X146530109Y-85620213D01*
X146379786Y-85469890D01*
X146207820Y-85344951D01*
X146018414Y-85248444D01*
X146018413Y-85248443D01*
X146018412Y-85248443D01*
X145816243Y-85182754D01*
X145816241Y-85182753D01*
X145816240Y-85182753D01*
X145654957Y-85157208D01*
X145606287Y-85149500D01*
X145393713Y-85149500D01*
X145345042Y-85157208D01*
X145183760Y-85182753D01*
X144981585Y-85248444D01*
X144792179Y-85344951D01*
X144620215Y-85469889D01*
X144506285Y-85583819D01*
X144444962Y-85617303D01*
X144375270Y-85612319D01*
X144319337Y-85570447D01*
X144302422Y-85539470D01*
X144253354Y-85407913D01*
X144253350Y-85407906D01*
X144167190Y-85292812D01*
X144167187Y-85292809D01*
X144052093Y-85206649D01*
X144052086Y-85206645D01*
X143917379Y-85156403D01*
X143917372Y-85156401D01*
X143857844Y-85150000D01*
X143210000Y-85150000D01*
X143210000Y-86066988D01*
X143152993Y-86034075D01*
X143025826Y-86000000D01*
X142894174Y-86000000D01*
X142767007Y-86034075D01*
X142710000Y-86066988D01*
X142710000Y-85150000D01*
X142062155Y-85150000D01*
X142002627Y-85156401D01*
X142002620Y-85156403D01*
X141867913Y-85206645D01*
X141867906Y-85206649D01*
X141752812Y-85292809D01*
X141752809Y-85292812D01*
X141666649Y-85407906D01*
X141666645Y-85407913D01*
X141616403Y-85542620D01*
X141616401Y-85542627D01*
X141610000Y-85602155D01*
X140129999Y-85602155D01*
X140123598Y-85542627D01*
X140123596Y-85542620D01*
X140073354Y-85407913D01*
X140073350Y-85407906D01*
X139987190Y-85292812D01*
X139987187Y-85292809D01*
X139872093Y-85206649D01*
X139872086Y-85206645D01*
X139737379Y-85156403D01*
X139737372Y-85156401D01*
X139677844Y-85150000D01*
X139030000Y-85150000D01*
X139030000Y-86066988D01*
X138972993Y-86034075D01*
X138845826Y-86000000D01*
X138714174Y-86000000D01*
X138587007Y-86034075D01*
X138530000Y-86066988D01*
X138530000Y-85150000D01*
X137882155Y-85150000D01*
X137822627Y-85156401D01*
X137822620Y-85156403D01*
X137687913Y-85206645D01*
X137687906Y-85206649D01*
X137572812Y-85292809D01*
X137572809Y-85292812D01*
X137486649Y-85407906D01*
X137486646Y-85407912D01*
X137437577Y-85539471D01*
X137395705Y-85595404D01*
X137330241Y-85619821D01*
X137261968Y-85604969D01*
X137233714Y-85583818D01*
X137119786Y-85469890D01*
X136947820Y-85344951D01*
X136758414Y-85248444D01*
X136758413Y-85248443D01*
X136758412Y-85248443D01*
X136556243Y-85182754D01*
X136556241Y-85182753D01*
X136556240Y-85182753D01*
X136394957Y-85157208D01*
X136346287Y-85149500D01*
X136133713Y-85149500D01*
X136085042Y-85157208D01*
X135923760Y-85182753D01*
X135721585Y-85248444D01*
X135532179Y-85344951D01*
X135360213Y-85469890D01*
X135209890Y-85620213D01*
X135084949Y-85792182D01*
X135080484Y-85800946D01*
X135032509Y-85851742D01*
X134964688Y-85868536D01*
X134898553Y-85845998D01*
X134859516Y-85800946D01*
X134855050Y-85792182D01*
X134730109Y-85620213D01*
X134579786Y-85469890D01*
X134407820Y-85344951D01*
X134218414Y-85248444D01*
X134218413Y-85248443D01*
X134218412Y-85248443D01*
X134016243Y-85182754D01*
X134016241Y-85182753D01*
X134016240Y-85182753D01*
X133854957Y-85157208D01*
X133806287Y-85149500D01*
X133593713Y-85149500D01*
X133545042Y-85157208D01*
X133383760Y-85182753D01*
X133181585Y-85248444D01*
X132992179Y-85344951D01*
X132820213Y-85469890D01*
X132669890Y-85620213D01*
X132544949Y-85792182D01*
X132540484Y-85800946D01*
X132492509Y-85851742D01*
X132424688Y-85868536D01*
X132358553Y-85845998D01*
X132319516Y-85800946D01*
X132315050Y-85792182D01*
X132190109Y-85620213D01*
X132039786Y-85469890D01*
X131867820Y-85344951D01*
X131678414Y-85248444D01*
X131678413Y-85248443D01*
X131678412Y-85248443D01*
X131476243Y-85182754D01*
X131476241Y-85182753D01*
X131476240Y-85182753D01*
X131314957Y-85157208D01*
X131266287Y-85149500D01*
X131053713Y-85149500D01*
X131005042Y-85157208D01*
X130843760Y-85182753D01*
X130641585Y-85248444D01*
X130452179Y-85344951D01*
X130280213Y-85469890D01*
X130129890Y-85620213D01*
X130004949Y-85792182D01*
X130000484Y-85800946D01*
X129952509Y-85851742D01*
X129884688Y-85868536D01*
X129818553Y-85845998D01*
X129779516Y-85800946D01*
X129775050Y-85792182D01*
X129650109Y-85620213D01*
X129499786Y-85469890D01*
X129327820Y-85344951D01*
X129138414Y-85248444D01*
X129138413Y-85248443D01*
X129138412Y-85248443D01*
X128936243Y-85182754D01*
X128936241Y-85182753D01*
X128936240Y-85182753D01*
X128774957Y-85157208D01*
X128726287Y-85149500D01*
X128513713Y-85149500D01*
X128465042Y-85157208D01*
X128303760Y-85182753D01*
X128101585Y-85248444D01*
X127912179Y-85344951D01*
X127740213Y-85469890D01*
X127589890Y-85620213D01*
X127464949Y-85792182D01*
X127460202Y-85801499D01*
X127412227Y-85852293D01*
X127344405Y-85869087D01*
X127278271Y-85846548D01*
X127239234Y-85801495D01*
X127234626Y-85792452D01*
X127195270Y-85738282D01*
X127195269Y-85738282D01*
X126562962Y-86370590D01*
X126545925Y-86307007D01*
X126480099Y-86192993D01*
X126387007Y-86099901D01*
X126272993Y-86034075D01*
X126209409Y-86017037D01*
X126841716Y-85384728D01*
X126787550Y-85345375D01*
X126598217Y-85248904D01*
X126396129Y-85183242D01*
X126186246Y-85150000D01*
X125973754Y-85150000D01*
X125763872Y-85183242D01*
X125763869Y-85183242D01*
X125561782Y-85248904D01*
X125372439Y-85345380D01*
X125318282Y-85384727D01*
X125318282Y-85384728D01*
X125950591Y-86017037D01*
X125887007Y-86034075D01*
X125772993Y-86099901D01*
X125679901Y-86192993D01*
X125614075Y-86307007D01*
X125597037Y-86370591D01*
X124964728Y-85738282D01*
X124964727Y-85738282D01*
X124925380Y-85792440D01*
X124925376Y-85792446D01*
X124920760Y-85801505D01*
X124872781Y-85852297D01*
X124804959Y-85869087D01*
X124738826Y-85846543D01*
X124699794Y-85801493D01*
X124695051Y-85792184D01*
X124695049Y-85792181D01*
X124695048Y-85792179D01*
X124570109Y-85620213D01*
X124419786Y-85469890D01*
X124247820Y-85344951D01*
X124058414Y-85248444D01*
X124058413Y-85248443D01*
X124058412Y-85248443D01*
X123856243Y-85182754D01*
X123856241Y-85182753D01*
X123856240Y-85182753D01*
X123694957Y-85157208D01*
X123646287Y-85149500D01*
X123433713Y-85149500D01*
X123385042Y-85157208D01*
X123223760Y-85182753D01*
X123021585Y-85248444D01*
X122832179Y-85344951D01*
X122660213Y-85469890D01*
X122509890Y-85620213D01*
X122384949Y-85792182D01*
X122380484Y-85800946D01*
X122332509Y-85851742D01*
X122264688Y-85868536D01*
X122198553Y-85845998D01*
X122159516Y-85800946D01*
X122155050Y-85792182D01*
X122030109Y-85620213D01*
X121879786Y-85469890D01*
X121707820Y-85344951D01*
X121518414Y-85248444D01*
X121518413Y-85248443D01*
X121518412Y-85248443D01*
X121316243Y-85182754D01*
X121316241Y-85182753D01*
X121316240Y-85182753D01*
X121154957Y-85157208D01*
X121106287Y-85149500D01*
X120893713Y-85149500D01*
X120845042Y-85157208D01*
X120683760Y-85182753D01*
X120481585Y-85248444D01*
X120292179Y-85344951D01*
X120120213Y-85469890D01*
X119969890Y-85620213D01*
X119844951Y-85792179D01*
X119748444Y-85981585D01*
X119682753Y-86183760D01*
X119658903Y-86334347D01*
X119649500Y-86393713D01*
X116587776Y-86393713D01*
X116698842Y-86334347D01*
X116968476Y-86154183D01*
X117219153Y-85948458D01*
X117448458Y-85719153D01*
X117654183Y-85468476D01*
X117834347Y-85198842D01*
X117987215Y-84912847D01*
X118111314Y-84613246D01*
X118160186Y-84452135D01*
X173684500Y-84452135D01*
X173684500Y-86547870D01*
X173684501Y-86547876D01*
X173690908Y-86607483D01*
X173741202Y-86742328D01*
X173741206Y-86742335D01*
X173827452Y-86857544D01*
X173827455Y-86857547D01*
X173942664Y-86943793D01*
X173942671Y-86943797D01*
X174077517Y-86994091D01*
X174077516Y-86994091D01*
X174084444Y-86994835D01*
X174137127Y-87000500D01*
X176232872Y-87000499D01*
X176292483Y-86994091D01*
X176427331Y-86943796D01*
X176542546Y-86857546D01*
X176628796Y-86742331D01*
X176628797Y-86742326D01*
X176633047Y-86734546D01*
X176636380Y-86736366D01*
X176667292Y-86694766D01*
X176732669Y-86670116D01*
X176800994Y-86684725D01*
X176814835Y-86693446D01*
X176938567Y-86783343D01*
X177003129Y-86816239D01*
X177149003Y-86890566D01*
X177149005Y-86890566D01*
X177149008Y-86890568D01*
X177269412Y-86929689D01*
X177373631Y-86963553D01*
X177606903Y-87000500D01*
X177606908Y-87000500D01*
X177843097Y-87000500D01*
X178076368Y-86963553D01*
X178082225Y-86961650D01*
X178300992Y-86890568D01*
X178511433Y-86783343D01*
X178702510Y-86644517D01*
X178869517Y-86477510D01*
X179008343Y-86286433D01*
X179115568Y-86075992D01*
X179188553Y-85851368D01*
X179189404Y-85845998D01*
X179225500Y-85618097D01*
X179225500Y-85381902D01*
X179188553Y-85148631D01*
X179115566Y-84924003D01*
X179049945Y-84795216D01*
X179008343Y-84713567D01*
X178869517Y-84522490D01*
X178702510Y-84355483D01*
X178511433Y-84216657D01*
X178300996Y-84109433D01*
X178076368Y-84036446D01*
X177843097Y-83999500D01*
X177843092Y-83999500D01*
X177606908Y-83999500D01*
X177606903Y-83999500D01*
X177373631Y-84036446D01*
X177149003Y-84109433D01*
X176938563Y-84216659D01*
X176814840Y-84306549D01*
X176749034Y-84330029D01*
X176680980Y-84314203D01*
X176633410Y-84265255D01*
X176633047Y-84265454D01*
X176632334Y-84264148D01*
X176632285Y-84264098D01*
X176632187Y-84263880D01*
X176628793Y-84257664D01*
X176542547Y-84142455D01*
X176542544Y-84142452D01*
X176427335Y-84056206D01*
X176427328Y-84056202D01*
X176292482Y-84005908D01*
X176292483Y-84005908D01*
X176232883Y-83999501D01*
X176232881Y-83999500D01*
X176232873Y-83999500D01*
X176232864Y-83999500D01*
X174137129Y-83999500D01*
X174137123Y-83999501D01*
X174077516Y-84005908D01*
X173942671Y-84056202D01*
X173942664Y-84056206D01*
X173827455Y-84142452D01*
X173827452Y-84142455D01*
X173741206Y-84257664D01*
X173741202Y-84257671D01*
X173690908Y-84392517D01*
X173684501Y-84452116D01*
X173684500Y-84452135D01*
X118160186Y-84452135D01*
X118205449Y-84302923D01*
X118205451Y-84302913D01*
X118205454Y-84302902D01*
X118237399Y-84142295D01*
X118268714Y-83984868D01*
X118300500Y-83662143D01*
X118300500Y-83337857D01*
X118268714Y-83015132D01*
X118245122Y-82896528D01*
X118205454Y-82697097D01*
X118205451Y-82697086D01*
X118205450Y-82697083D01*
X118205449Y-82697077D01*
X118111314Y-82386754D01*
X117987215Y-82087153D01*
X117834347Y-81801158D01*
X117654183Y-81531524D01*
X117448458Y-81280847D01*
X117448457Y-81280846D01*
X117448453Y-81280841D01*
X117219158Y-81051546D01*
X116968481Y-80845821D01*
X116968480Y-80845820D01*
X116968476Y-80845817D01*
X116791554Y-80727601D01*
X116746750Y-80673990D01*
X116738043Y-80604665D01*
X116768197Y-80541638D01*
X116827640Y-80504918D01*
X116860446Y-80500500D01*
X187864554Y-80500500D01*
X187897054Y-80510043D01*
G37*
%TD.AperFunction*%
%TD*%
M02*
