%TF.GenerationSoftware,KiCad,Pcbnew,9.0.3*%
%TF.CreationDate,2025-07-17T21:40:03-07:00*%
%TF.ProjectId,DAQ_dev_board,4441515f-6465-4765-9f62-6f6172642e6b,rev?*%
%TF.SameCoordinates,Original*%
%TF.FileFunction,Legend,Top*%
%TF.FilePolarity,Positive*%
%FSLAX46Y46*%
G04 Gerber Fmt 4.6, Leading zero omitted, Abs format (unit mm)*
G04 Created by KiCad (PCBNEW 9.0.3) date 2025-07-17 21:40:03*
%MOMM*%
%LPD*%
G01*
G04 APERTURE LIST*
%ADD10C,0.100000*%
%ADD11C,0.250000*%
%ADD12C,0.150000*%
%ADD13C,0.120000*%
%ADD14C,0.152400*%
%ADD15C,0.127000*%
%ADD16C,0.200000*%
G04 APERTURE END LIST*
D10*
X115375312Y-101667236D02*
X115327693Y-101714856D01*
X115327693Y-101714856D02*
X115184836Y-101762475D01*
X115184836Y-101762475D02*
X115089598Y-101762475D01*
X115089598Y-101762475D02*
X114946741Y-101714856D01*
X114946741Y-101714856D02*
X114851503Y-101619617D01*
X114851503Y-101619617D02*
X114803884Y-101524379D01*
X114803884Y-101524379D02*
X114756265Y-101333903D01*
X114756265Y-101333903D02*
X114756265Y-101191046D01*
X114756265Y-101191046D02*
X114803884Y-101000570D01*
X114803884Y-101000570D02*
X114851503Y-100905332D01*
X114851503Y-100905332D02*
X114946741Y-100810094D01*
X114946741Y-100810094D02*
X115089598Y-100762475D01*
X115089598Y-100762475D02*
X115184836Y-100762475D01*
X115184836Y-100762475D02*
X115327693Y-100810094D01*
X115327693Y-100810094D02*
X115375312Y-100857713D01*
X115946741Y-101762475D02*
X115851503Y-101714856D01*
X115851503Y-101714856D02*
X115803884Y-101667236D01*
X115803884Y-101667236D02*
X115756265Y-101571998D01*
X115756265Y-101571998D02*
X115756265Y-101286284D01*
X115756265Y-101286284D02*
X115803884Y-101191046D01*
X115803884Y-101191046D02*
X115851503Y-101143427D01*
X115851503Y-101143427D02*
X115946741Y-101095808D01*
X115946741Y-101095808D02*
X116089598Y-101095808D01*
X116089598Y-101095808D02*
X116184836Y-101143427D01*
X116184836Y-101143427D02*
X116232455Y-101191046D01*
X116232455Y-101191046D02*
X116280074Y-101286284D01*
X116280074Y-101286284D02*
X116280074Y-101571998D01*
X116280074Y-101571998D02*
X116232455Y-101667236D01*
X116232455Y-101667236D02*
X116184836Y-101714856D01*
X116184836Y-101714856D02*
X116089598Y-101762475D01*
X116089598Y-101762475D02*
X115946741Y-101762475D01*
X116708646Y-101095808D02*
X116708646Y-102095808D01*
X116708646Y-101143427D02*
X116803884Y-101095808D01*
X116803884Y-101095808D02*
X116994360Y-101095808D01*
X116994360Y-101095808D02*
X117089598Y-101143427D01*
X117089598Y-101143427D02*
X117137217Y-101191046D01*
X117137217Y-101191046D02*
X117184836Y-101286284D01*
X117184836Y-101286284D02*
X117184836Y-101571998D01*
X117184836Y-101571998D02*
X117137217Y-101667236D01*
X117137217Y-101667236D02*
X117089598Y-101714856D01*
X117089598Y-101714856D02*
X116994360Y-101762475D01*
X116994360Y-101762475D02*
X116803884Y-101762475D01*
X116803884Y-101762475D02*
X116708646Y-101714856D01*
X117613408Y-101095808D02*
X117613408Y-102095808D01*
X117613408Y-101143427D02*
X117708646Y-101095808D01*
X117708646Y-101095808D02*
X117899122Y-101095808D01*
X117899122Y-101095808D02*
X117994360Y-101143427D01*
X117994360Y-101143427D02*
X118041979Y-101191046D01*
X118041979Y-101191046D02*
X118089598Y-101286284D01*
X118089598Y-101286284D02*
X118089598Y-101571998D01*
X118089598Y-101571998D02*
X118041979Y-101667236D01*
X118041979Y-101667236D02*
X117994360Y-101714856D01*
X117994360Y-101714856D02*
X117899122Y-101762475D01*
X117899122Y-101762475D02*
X117708646Y-101762475D01*
X117708646Y-101762475D02*
X117613408Y-101714856D01*
X118899122Y-101714856D02*
X118803884Y-101762475D01*
X118803884Y-101762475D02*
X118613408Y-101762475D01*
X118613408Y-101762475D02*
X118518170Y-101714856D01*
X118518170Y-101714856D02*
X118470551Y-101619617D01*
X118470551Y-101619617D02*
X118470551Y-101238665D01*
X118470551Y-101238665D02*
X118518170Y-101143427D01*
X118518170Y-101143427D02*
X118613408Y-101095808D01*
X118613408Y-101095808D02*
X118803884Y-101095808D01*
X118803884Y-101095808D02*
X118899122Y-101143427D01*
X118899122Y-101143427D02*
X118946741Y-101238665D01*
X118946741Y-101238665D02*
X118946741Y-101333903D01*
X118946741Y-101333903D02*
X118470551Y-101429141D01*
X119375313Y-101762475D02*
X119375313Y-101095808D01*
X119375313Y-101286284D02*
X119422932Y-101191046D01*
X119422932Y-101191046D02*
X119470551Y-101143427D01*
X119470551Y-101143427D02*
X119565789Y-101095808D01*
X119565789Y-101095808D02*
X119661027Y-101095808D01*
X119994361Y-101762475D02*
X119994361Y-100762475D01*
X120422932Y-101762475D02*
X120422932Y-101238665D01*
X120422932Y-101238665D02*
X120375313Y-101143427D01*
X120375313Y-101143427D02*
X120280075Y-101095808D01*
X120280075Y-101095808D02*
X120137218Y-101095808D01*
X120137218Y-101095808D02*
X120041980Y-101143427D01*
X120041980Y-101143427D02*
X119994361Y-101191046D01*
X121280075Y-101714856D02*
X121184837Y-101762475D01*
X121184837Y-101762475D02*
X120994361Y-101762475D01*
X120994361Y-101762475D02*
X120899123Y-101714856D01*
X120899123Y-101714856D02*
X120851504Y-101619617D01*
X120851504Y-101619617D02*
X120851504Y-101238665D01*
X120851504Y-101238665D02*
X120899123Y-101143427D01*
X120899123Y-101143427D02*
X120994361Y-101095808D01*
X120994361Y-101095808D02*
X121184837Y-101095808D01*
X121184837Y-101095808D02*
X121280075Y-101143427D01*
X121280075Y-101143427D02*
X121327694Y-101238665D01*
X121327694Y-101238665D02*
X121327694Y-101333903D01*
X121327694Y-101333903D02*
X120851504Y-101429141D01*
X122184837Y-101762475D02*
X122184837Y-101238665D01*
X122184837Y-101238665D02*
X122137218Y-101143427D01*
X122137218Y-101143427D02*
X122041980Y-101095808D01*
X122041980Y-101095808D02*
X121851504Y-101095808D01*
X121851504Y-101095808D02*
X121756266Y-101143427D01*
X122184837Y-101714856D02*
X122089599Y-101762475D01*
X122089599Y-101762475D02*
X121851504Y-101762475D01*
X121851504Y-101762475D02*
X121756266Y-101714856D01*
X121756266Y-101714856D02*
X121708647Y-101619617D01*
X121708647Y-101619617D02*
X121708647Y-101524379D01*
X121708647Y-101524379D02*
X121756266Y-101429141D01*
X121756266Y-101429141D02*
X121851504Y-101381522D01*
X121851504Y-101381522D02*
X122089599Y-101381522D01*
X122089599Y-101381522D02*
X122184837Y-101333903D01*
X123089599Y-101762475D02*
X123089599Y-100762475D01*
X123089599Y-101714856D02*
X122994361Y-101762475D01*
X122994361Y-101762475D02*
X122803885Y-101762475D01*
X122803885Y-101762475D02*
X122708647Y-101714856D01*
X122708647Y-101714856D02*
X122661028Y-101667236D01*
X122661028Y-101667236D02*
X122613409Y-101571998D01*
X122613409Y-101571998D02*
X122613409Y-101286284D01*
X122613409Y-101286284D02*
X122661028Y-101191046D01*
X122661028Y-101191046D02*
X122708647Y-101143427D01*
X122708647Y-101143427D02*
X122803885Y-101095808D01*
X122803885Y-101095808D02*
X122994361Y-101095808D01*
X122994361Y-101095808D02*
X123089599Y-101143427D01*
X124327695Y-101762475D02*
X124327695Y-100762475D01*
X124327695Y-100762475D02*
X124565790Y-100762475D01*
X124565790Y-100762475D02*
X124708647Y-100810094D01*
X124708647Y-100810094D02*
X124803885Y-100905332D01*
X124803885Y-100905332D02*
X124851504Y-101000570D01*
X124851504Y-101000570D02*
X124899123Y-101191046D01*
X124899123Y-101191046D02*
X124899123Y-101333903D01*
X124899123Y-101333903D02*
X124851504Y-101524379D01*
X124851504Y-101524379D02*
X124803885Y-101619617D01*
X124803885Y-101619617D02*
X124708647Y-101714856D01*
X124708647Y-101714856D02*
X124565790Y-101762475D01*
X124565790Y-101762475D02*
X124327695Y-101762475D01*
X125280076Y-101476760D02*
X125756266Y-101476760D01*
X125184838Y-101762475D02*
X125518171Y-100762475D01*
X125518171Y-100762475D02*
X125851504Y-101762475D01*
X126851504Y-101857713D02*
X126756266Y-101810094D01*
X126756266Y-101810094D02*
X126661028Y-101714856D01*
X126661028Y-101714856D02*
X126518171Y-101571998D01*
X126518171Y-101571998D02*
X126422933Y-101524379D01*
X126422933Y-101524379D02*
X126327695Y-101524379D01*
X126375314Y-101762475D02*
X126280076Y-101714856D01*
X126280076Y-101714856D02*
X126184838Y-101619617D01*
X126184838Y-101619617D02*
X126137219Y-101429141D01*
X126137219Y-101429141D02*
X126137219Y-101095808D01*
X126137219Y-101095808D02*
X126184838Y-100905332D01*
X126184838Y-100905332D02*
X126280076Y-100810094D01*
X126280076Y-100810094D02*
X126375314Y-100762475D01*
X126375314Y-100762475D02*
X126565790Y-100762475D01*
X126565790Y-100762475D02*
X126661028Y-100810094D01*
X126661028Y-100810094D02*
X126756266Y-100905332D01*
X126756266Y-100905332D02*
X126803885Y-101095808D01*
X126803885Y-101095808D02*
X126803885Y-101429141D01*
X126803885Y-101429141D02*
X126756266Y-101619617D01*
X126756266Y-101619617D02*
X126661028Y-101714856D01*
X126661028Y-101714856D02*
X126565790Y-101762475D01*
X126565790Y-101762475D02*
X126375314Y-101762475D01*
X127851505Y-100762475D02*
X128184838Y-101762475D01*
X128184838Y-101762475D02*
X128518171Y-100762475D01*
X129375314Y-101762475D02*
X128803886Y-101762475D01*
X129089600Y-101762475D02*
X129089600Y-100762475D01*
X129089600Y-100762475D02*
X128994362Y-100905332D01*
X128994362Y-100905332D02*
X128899124Y-101000570D01*
X128899124Y-101000570D02*
X128803886Y-101048189D01*
X114803884Y-103372419D02*
X114803884Y-102372419D01*
X114803884Y-102372419D02*
X115137217Y-103086704D01*
X115137217Y-103086704D02*
X115470550Y-102372419D01*
X115470550Y-102372419D02*
X115470550Y-103372419D01*
X116089598Y-103372419D02*
X115994360Y-103324800D01*
X115994360Y-103324800D02*
X115946741Y-103277180D01*
X115946741Y-103277180D02*
X115899122Y-103181942D01*
X115899122Y-103181942D02*
X115899122Y-102896228D01*
X115899122Y-102896228D02*
X115946741Y-102800990D01*
X115946741Y-102800990D02*
X115994360Y-102753371D01*
X115994360Y-102753371D02*
X116089598Y-102705752D01*
X116089598Y-102705752D02*
X116232455Y-102705752D01*
X116232455Y-102705752D02*
X116327693Y-102753371D01*
X116327693Y-102753371D02*
X116375312Y-102800990D01*
X116375312Y-102800990D02*
X116422931Y-102896228D01*
X116422931Y-102896228D02*
X116422931Y-103181942D01*
X116422931Y-103181942D02*
X116375312Y-103277180D01*
X116375312Y-103277180D02*
X116327693Y-103324800D01*
X116327693Y-103324800D02*
X116232455Y-103372419D01*
X116232455Y-103372419D02*
X116089598Y-103372419D01*
X116803884Y-103324800D02*
X116899122Y-103372419D01*
X116899122Y-103372419D02*
X117089598Y-103372419D01*
X117089598Y-103372419D02*
X117184836Y-103324800D01*
X117184836Y-103324800D02*
X117232455Y-103229561D01*
X117232455Y-103229561D02*
X117232455Y-103181942D01*
X117232455Y-103181942D02*
X117184836Y-103086704D01*
X117184836Y-103086704D02*
X117089598Y-103039085D01*
X117089598Y-103039085D02*
X116946741Y-103039085D01*
X116946741Y-103039085D02*
X116851503Y-102991466D01*
X116851503Y-102991466D02*
X116803884Y-102896228D01*
X116803884Y-102896228D02*
X116803884Y-102848609D01*
X116803884Y-102848609D02*
X116851503Y-102753371D01*
X116851503Y-102753371D02*
X116946741Y-102705752D01*
X116946741Y-102705752D02*
X117089598Y-102705752D01*
X117089598Y-102705752D02*
X117184836Y-102753371D01*
X118041979Y-103324800D02*
X117946741Y-103372419D01*
X117946741Y-103372419D02*
X117756265Y-103372419D01*
X117756265Y-103372419D02*
X117661027Y-103324800D01*
X117661027Y-103324800D02*
X117613408Y-103229561D01*
X117613408Y-103229561D02*
X117613408Y-102848609D01*
X117613408Y-102848609D02*
X117661027Y-102753371D01*
X117661027Y-102753371D02*
X117756265Y-102705752D01*
X117756265Y-102705752D02*
X117946741Y-102705752D01*
X117946741Y-102705752D02*
X118041979Y-102753371D01*
X118041979Y-102753371D02*
X118089598Y-102848609D01*
X118089598Y-102848609D02*
X118089598Y-102943847D01*
X118089598Y-102943847D02*
X117613408Y-103039085D01*
X118470551Y-103324800D02*
X118565789Y-103372419D01*
X118565789Y-103372419D02*
X118756265Y-103372419D01*
X118756265Y-103372419D02*
X118851503Y-103324800D01*
X118851503Y-103324800D02*
X118899122Y-103229561D01*
X118899122Y-103229561D02*
X118899122Y-103181942D01*
X118899122Y-103181942D02*
X118851503Y-103086704D01*
X118851503Y-103086704D02*
X118756265Y-103039085D01*
X118756265Y-103039085D02*
X118613408Y-103039085D01*
X118613408Y-103039085D02*
X118518170Y-102991466D01*
X118518170Y-102991466D02*
X118470551Y-102896228D01*
X118470551Y-102896228D02*
X118470551Y-102848609D01*
X118470551Y-102848609D02*
X118518170Y-102753371D01*
X118518170Y-102753371D02*
X118613408Y-102705752D01*
X118613408Y-102705752D02*
X118756265Y-102705752D01*
X118756265Y-102705752D02*
X118851503Y-102753371D01*
X120041980Y-103086704D02*
X120518170Y-103086704D01*
X119946742Y-103372419D02*
X120280075Y-102372419D01*
X120280075Y-102372419D02*
X120613408Y-103372419D01*
X121708647Y-103372419D02*
X121708647Y-102372419D01*
X121708647Y-102372419D02*
X121946742Y-102372419D01*
X121946742Y-102372419D02*
X122089599Y-102420038D01*
X122089599Y-102420038D02*
X122184837Y-102515276D01*
X122184837Y-102515276D02*
X122232456Y-102610514D01*
X122232456Y-102610514D02*
X122280075Y-102800990D01*
X122280075Y-102800990D02*
X122280075Y-102943847D01*
X122280075Y-102943847D02*
X122232456Y-103134323D01*
X122232456Y-103134323D02*
X122184837Y-103229561D01*
X122184837Y-103229561D02*
X122089599Y-103324800D01*
X122089599Y-103324800D02*
X121946742Y-103372419D01*
X121946742Y-103372419D02*
X121708647Y-103372419D01*
X122708647Y-103372419D02*
X122708647Y-102705752D01*
X122708647Y-102372419D02*
X122661028Y-102420038D01*
X122661028Y-102420038D02*
X122708647Y-102467657D01*
X122708647Y-102467657D02*
X122756266Y-102420038D01*
X122756266Y-102420038D02*
X122708647Y-102372419D01*
X122708647Y-102372419D02*
X122708647Y-102467657D01*
X123327694Y-103372419D02*
X123232456Y-103324800D01*
X123232456Y-103324800D02*
X123184837Y-103229561D01*
X123184837Y-103229561D02*
X123184837Y-102372419D01*
X123565790Y-102705752D02*
X123946742Y-102705752D01*
X123708647Y-102372419D02*
X123708647Y-103229561D01*
X123708647Y-103229561D02*
X123756266Y-103324800D01*
X123756266Y-103324800D02*
X123851504Y-103372419D01*
X123851504Y-103372419D02*
X123946742Y-103372419D01*
X124232457Y-103324800D02*
X124327695Y-103372419D01*
X124327695Y-103372419D02*
X124518171Y-103372419D01*
X124518171Y-103372419D02*
X124613409Y-103324800D01*
X124613409Y-103324800D02*
X124661028Y-103229561D01*
X124661028Y-103229561D02*
X124661028Y-103181942D01*
X124661028Y-103181942D02*
X124613409Y-103086704D01*
X124613409Y-103086704D02*
X124518171Y-103039085D01*
X124518171Y-103039085D02*
X124375314Y-103039085D01*
X124375314Y-103039085D02*
X124280076Y-102991466D01*
X124280076Y-102991466D02*
X124232457Y-102896228D01*
X124232457Y-102896228D02*
X124232457Y-102848609D01*
X124232457Y-102848609D02*
X124280076Y-102753371D01*
X124280076Y-102753371D02*
X124375314Y-102705752D01*
X124375314Y-102705752D02*
X124518171Y-102705752D01*
X124518171Y-102705752D02*
X124613409Y-102753371D01*
X125803886Y-102467657D02*
X125851505Y-102420038D01*
X125851505Y-102420038D02*
X125946743Y-102372419D01*
X125946743Y-102372419D02*
X126184838Y-102372419D01*
X126184838Y-102372419D02*
X126280076Y-102420038D01*
X126280076Y-102420038D02*
X126327695Y-102467657D01*
X126327695Y-102467657D02*
X126375314Y-102562895D01*
X126375314Y-102562895D02*
X126375314Y-102658133D01*
X126375314Y-102658133D02*
X126327695Y-102800990D01*
X126327695Y-102800990D02*
X125756267Y-103372419D01*
X125756267Y-103372419D02*
X126375314Y-103372419D01*
X126994362Y-102372419D02*
X127089600Y-102372419D01*
X127089600Y-102372419D02*
X127184838Y-102420038D01*
X127184838Y-102420038D02*
X127232457Y-102467657D01*
X127232457Y-102467657D02*
X127280076Y-102562895D01*
X127280076Y-102562895D02*
X127327695Y-102753371D01*
X127327695Y-102753371D02*
X127327695Y-102991466D01*
X127327695Y-102991466D02*
X127280076Y-103181942D01*
X127280076Y-103181942D02*
X127232457Y-103277180D01*
X127232457Y-103277180D02*
X127184838Y-103324800D01*
X127184838Y-103324800D02*
X127089600Y-103372419D01*
X127089600Y-103372419D02*
X126994362Y-103372419D01*
X126994362Y-103372419D02*
X126899124Y-103324800D01*
X126899124Y-103324800D02*
X126851505Y-103277180D01*
X126851505Y-103277180D02*
X126803886Y-103181942D01*
X126803886Y-103181942D02*
X126756267Y-102991466D01*
X126756267Y-102991466D02*
X126756267Y-102753371D01*
X126756267Y-102753371D02*
X126803886Y-102562895D01*
X126803886Y-102562895D02*
X126851505Y-102467657D01*
X126851505Y-102467657D02*
X126899124Y-102420038D01*
X126899124Y-102420038D02*
X126994362Y-102372419D01*
X127708648Y-102467657D02*
X127756267Y-102420038D01*
X127756267Y-102420038D02*
X127851505Y-102372419D01*
X127851505Y-102372419D02*
X128089600Y-102372419D01*
X128089600Y-102372419D02*
X128184838Y-102420038D01*
X128184838Y-102420038D02*
X128232457Y-102467657D01*
X128232457Y-102467657D02*
X128280076Y-102562895D01*
X128280076Y-102562895D02*
X128280076Y-102658133D01*
X128280076Y-102658133D02*
X128232457Y-102800990D01*
X128232457Y-102800990D02*
X127661029Y-103372419D01*
X127661029Y-103372419D02*
X128280076Y-103372419D01*
X129184838Y-102372419D02*
X128708648Y-102372419D01*
X128708648Y-102372419D02*
X128661029Y-102848609D01*
X128661029Y-102848609D02*
X128708648Y-102800990D01*
X128708648Y-102800990D02*
X128803886Y-102753371D01*
X128803886Y-102753371D02*
X129041981Y-102753371D01*
X129041981Y-102753371D02*
X129137219Y-102800990D01*
X129137219Y-102800990D02*
X129184838Y-102848609D01*
X129184838Y-102848609D02*
X129232457Y-102943847D01*
X129232457Y-102943847D02*
X129232457Y-103181942D01*
X129232457Y-103181942D02*
X129184838Y-103277180D01*
X129184838Y-103277180D02*
X129137219Y-103324800D01*
X129137219Y-103324800D02*
X129041981Y-103372419D01*
X129041981Y-103372419D02*
X128803886Y-103372419D01*
X128803886Y-103372419D02*
X128708648Y-103324800D01*
X128708648Y-103324800D02*
X128661029Y-103277180D01*
D11*
X122640663Y-83480333D02*
X124164473Y-83480333D01*
X123402568Y-84242238D02*
X123402568Y-82718428D01*
X125116853Y-83480333D02*
X126640663Y-83480333D01*
X173865663Y-80980333D02*
X175389473Y-80980333D01*
X174627568Y-81742238D02*
X174627568Y-80218428D01*
X177865663Y-80980333D02*
X179389473Y-80980333D01*
D12*
X160666666Y-88454819D02*
X160666666Y-89169104D01*
X160666666Y-89169104D02*
X160619047Y-89311961D01*
X160619047Y-89311961D02*
X160523809Y-89407200D01*
X160523809Y-89407200D02*
X160380952Y-89454819D01*
X160380952Y-89454819D02*
X160285714Y-89454819D01*
X161047619Y-88454819D02*
X161666666Y-88454819D01*
X161666666Y-88454819D02*
X161333333Y-88835771D01*
X161333333Y-88835771D02*
X161476190Y-88835771D01*
X161476190Y-88835771D02*
X161571428Y-88883390D01*
X161571428Y-88883390D02*
X161619047Y-88931009D01*
X161619047Y-88931009D02*
X161666666Y-89026247D01*
X161666666Y-89026247D02*
X161666666Y-89264342D01*
X161666666Y-89264342D02*
X161619047Y-89359580D01*
X161619047Y-89359580D02*
X161571428Y-89407200D01*
X161571428Y-89407200D02*
X161476190Y-89454819D01*
X161476190Y-89454819D02*
X161190476Y-89454819D01*
X161190476Y-89454819D02*
X161095238Y-89407200D01*
X161095238Y-89407200D02*
X161047619Y-89359580D01*
X154884819Y-83367857D02*
X154408628Y-83701190D01*
X154884819Y-83939285D02*
X153884819Y-83939285D01*
X153884819Y-83939285D02*
X153884819Y-83558333D01*
X153884819Y-83558333D02*
X153932438Y-83463095D01*
X153932438Y-83463095D02*
X153980057Y-83415476D01*
X153980057Y-83415476D02*
X154075295Y-83367857D01*
X154075295Y-83367857D02*
X154218152Y-83367857D01*
X154218152Y-83367857D02*
X154313390Y-83415476D01*
X154313390Y-83415476D02*
X154361009Y-83463095D01*
X154361009Y-83463095D02*
X154408628Y-83558333D01*
X154408628Y-83558333D02*
X154408628Y-83939285D01*
X154884819Y-82415476D02*
X154884819Y-82986904D01*
X154884819Y-82701190D02*
X153884819Y-82701190D01*
X153884819Y-82701190D02*
X154027676Y-82796428D01*
X154027676Y-82796428D02*
X154122914Y-82891666D01*
X154122914Y-82891666D02*
X154170533Y-82986904D01*
X154884819Y-81463095D02*
X154884819Y-82034523D01*
X154884819Y-81748809D02*
X153884819Y-81748809D01*
X153884819Y-81748809D02*
X154027676Y-81844047D01*
X154027676Y-81844047D02*
X154122914Y-81939285D01*
X154122914Y-81939285D02*
X154170533Y-82034523D01*
X155833333Y-108289580D02*
X155785714Y-108337200D01*
X155785714Y-108337200D02*
X155642857Y-108384819D01*
X155642857Y-108384819D02*
X155547619Y-108384819D01*
X155547619Y-108384819D02*
X155404762Y-108337200D01*
X155404762Y-108337200D02*
X155309524Y-108241961D01*
X155309524Y-108241961D02*
X155261905Y-108146723D01*
X155261905Y-108146723D02*
X155214286Y-107956247D01*
X155214286Y-107956247D02*
X155214286Y-107813390D01*
X155214286Y-107813390D02*
X155261905Y-107622914D01*
X155261905Y-107622914D02*
X155309524Y-107527676D01*
X155309524Y-107527676D02*
X155404762Y-107432438D01*
X155404762Y-107432438D02*
X155547619Y-107384819D01*
X155547619Y-107384819D02*
X155642857Y-107384819D01*
X155642857Y-107384819D02*
X155785714Y-107432438D01*
X155785714Y-107432438D02*
X155833333Y-107480057D01*
X156166667Y-107384819D02*
X156785714Y-107384819D01*
X156785714Y-107384819D02*
X156452381Y-107765771D01*
X156452381Y-107765771D02*
X156595238Y-107765771D01*
X156595238Y-107765771D02*
X156690476Y-107813390D01*
X156690476Y-107813390D02*
X156738095Y-107861009D01*
X156738095Y-107861009D02*
X156785714Y-107956247D01*
X156785714Y-107956247D02*
X156785714Y-108194342D01*
X156785714Y-108194342D02*
X156738095Y-108289580D01*
X156738095Y-108289580D02*
X156690476Y-108337200D01*
X156690476Y-108337200D02*
X156595238Y-108384819D01*
X156595238Y-108384819D02*
X156309524Y-108384819D01*
X156309524Y-108384819D02*
X156214286Y-108337200D01*
X156214286Y-108337200D02*
X156166667Y-108289580D01*
X186605952Y-101454819D02*
X186701190Y-101454819D01*
X186701190Y-101454819D02*
X186796428Y-101502438D01*
X186796428Y-101502438D02*
X186844047Y-101550057D01*
X186844047Y-101550057D02*
X186891666Y-101645295D01*
X186891666Y-101645295D02*
X186939285Y-101835771D01*
X186939285Y-101835771D02*
X186939285Y-102073866D01*
X186939285Y-102073866D02*
X186891666Y-102264342D01*
X186891666Y-102264342D02*
X186844047Y-102359580D01*
X186844047Y-102359580D02*
X186796428Y-102407200D01*
X186796428Y-102407200D02*
X186701190Y-102454819D01*
X186701190Y-102454819D02*
X186605952Y-102454819D01*
X186605952Y-102454819D02*
X186510714Y-102407200D01*
X186510714Y-102407200D02*
X186463095Y-102359580D01*
X186463095Y-102359580D02*
X186415476Y-102264342D01*
X186415476Y-102264342D02*
X186367857Y-102073866D01*
X186367857Y-102073866D02*
X186367857Y-101835771D01*
X186367857Y-101835771D02*
X186415476Y-101645295D01*
X186415476Y-101645295D02*
X186463095Y-101550057D01*
X186463095Y-101550057D02*
X186510714Y-101502438D01*
X186510714Y-101502438D02*
X186605952Y-101454819D01*
X187367857Y-102359580D02*
X187415476Y-102407200D01*
X187415476Y-102407200D02*
X187367857Y-102454819D01*
X187367857Y-102454819D02*
X187320238Y-102407200D01*
X187320238Y-102407200D02*
X187367857Y-102359580D01*
X187367857Y-102359580D02*
X187367857Y-102454819D01*
X188367856Y-102454819D02*
X187796428Y-102454819D01*
X188082142Y-102454819D02*
X188082142Y-101454819D01*
X188082142Y-101454819D02*
X187986904Y-101597676D01*
X187986904Y-101597676D02*
X187891666Y-101692914D01*
X187891666Y-101692914D02*
X187796428Y-101740533D01*
X189224999Y-101788152D02*
X189224999Y-102454819D01*
X188796428Y-101788152D02*
X188796428Y-102311961D01*
X188796428Y-102311961D02*
X188844047Y-102407200D01*
X188844047Y-102407200D02*
X188939285Y-102454819D01*
X188939285Y-102454819D02*
X189082142Y-102454819D01*
X189082142Y-102454819D02*
X189177380Y-102407200D01*
X189177380Y-102407200D02*
X189224999Y-102359580D01*
X190034523Y-101931009D02*
X189701190Y-101931009D01*
X189701190Y-102454819D02*
X189701190Y-101454819D01*
X189701190Y-101454819D02*
X190177380Y-101454819D01*
X191082142Y-102454819D02*
X190510714Y-102454819D01*
X190796428Y-102454819D02*
X190796428Y-101454819D01*
X190796428Y-101454819D02*
X190701190Y-101597676D01*
X190701190Y-101597676D02*
X190605952Y-101692914D01*
X190605952Y-101692914D02*
X190510714Y-101740533D01*
X171170810Y-112570140D02*
X170694619Y-112903473D01*
X171170810Y-113141568D02*
X170170810Y-113141568D01*
X170170810Y-113141568D02*
X170170810Y-112760616D01*
X170170810Y-112760616D02*
X170218429Y-112665378D01*
X170218429Y-112665378D02*
X170266048Y-112617759D01*
X170266048Y-112617759D02*
X170361286Y-112570140D01*
X170361286Y-112570140D02*
X170504143Y-112570140D01*
X170504143Y-112570140D02*
X170599381Y-112617759D01*
X170599381Y-112617759D02*
X170647000Y-112665378D01*
X170647000Y-112665378D02*
X170694619Y-112760616D01*
X170694619Y-112760616D02*
X170694619Y-113141568D01*
X170170810Y-111665378D02*
X170170810Y-112141568D01*
X170170810Y-112141568D02*
X170647000Y-112189187D01*
X170647000Y-112189187D02*
X170599381Y-112141568D01*
X170599381Y-112141568D02*
X170551762Y-112046330D01*
X170551762Y-112046330D02*
X170551762Y-111808235D01*
X170551762Y-111808235D02*
X170599381Y-111712997D01*
X170599381Y-111712997D02*
X170647000Y-111665378D01*
X170647000Y-111665378D02*
X170742238Y-111617759D01*
X170742238Y-111617759D02*
X170980333Y-111617759D01*
X170980333Y-111617759D02*
X171075571Y-111665378D01*
X171075571Y-111665378D02*
X171123191Y-111712997D01*
X171123191Y-111712997D02*
X171170810Y-111808235D01*
X171170810Y-111808235D02*
X171170810Y-112046330D01*
X171170810Y-112046330D02*
X171123191Y-112141568D01*
X171123191Y-112141568D02*
X171075571Y-112189187D01*
X161119819Y-118833333D02*
X161834104Y-118833333D01*
X161834104Y-118833333D02*
X161976961Y-118880952D01*
X161976961Y-118880952D02*
X162072200Y-118976190D01*
X162072200Y-118976190D02*
X162119819Y-119119047D01*
X162119819Y-119119047D02*
X162119819Y-119214285D01*
X161215057Y-118404761D02*
X161167438Y-118357142D01*
X161167438Y-118357142D02*
X161119819Y-118261904D01*
X161119819Y-118261904D02*
X161119819Y-118023809D01*
X161119819Y-118023809D02*
X161167438Y-117928571D01*
X161167438Y-117928571D02*
X161215057Y-117880952D01*
X161215057Y-117880952D02*
X161310295Y-117833333D01*
X161310295Y-117833333D02*
X161405533Y-117833333D01*
X161405533Y-117833333D02*
X161548390Y-117880952D01*
X161548390Y-117880952D02*
X162119819Y-118452380D01*
X162119819Y-118452380D02*
X162119819Y-117833333D01*
X179428571Y-98884819D02*
X178857143Y-98884819D01*
X179142857Y-98884819D02*
X179142857Y-97884819D01*
X179142857Y-97884819D02*
X179047619Y-98027676D01*
X179047619Y-98027676D02*
X178952381Y-98122914D01*
X178952381Y-98122914D02*
X178857143Y-98170533D01*
X179857143Y-98218152D02*
X179857143Y-98884819D01*
X179857143Y-98313390D02*
X179904762Y-98265771D01*
X179904762Y-98265771D02*
X180000000Y-98218152D01*
X180000000Y-98218152D02*
X180142857Y-98218152D01*
X180142857Y-98218152D02*
X180238095Y-98265771D01*
X180238095Y-98265771D02*
X180285714Y-98361009D01*
X180285714Y-98361009D02*
X180285714Y-98884819D01*
X181095238Y-98361009D02*
X180761905Y-98361009D01*
X180761905Y-98884819D02*
X180761905Y-97884819D01*
X180761905Y-97884819D02*
X181238095Y-97884819D01*
X181523810Y-97884819D02*
X182142857Y-97884819D01*
X182142857Y-97884819D02*
X181809524Y-98265771D01*
X181809524Y-98265771D02*
X181952381Y-98265771D01*
X181952381Y-98265771D02*
X182047619Y-98313390D01*
X182047619Y-98313390D02*
X182095238Y-98361009D01*
X182095238Y-98361009D02*
X182142857Y-98456247D01*
X182142857Y-98456247D02*
X182142857Y-98694342D01*
X182142857Y-98694342D02*
X182095238Y-98789580D01*
X182095238Y-98789580D02*
X182047619Y-98837200D01*
X182047619Y-98837200D02*
X181952381Y-98884819D01*
X181952381Y-98884819D02*
X181666667Y-98884819D01*
X181666667Y-98884819D02*
X181571429Y-98837200D01*
X181571429Y-98837200D02*
X181523810Y-98789580D01*
X174928571Y-98884819D02*
X174357143Y-98884819D01*
X174642857Y-98884819D02*
X174642857Y-97884819D01*
X174642857Y-97884819D02*
X174547619Y-98027676D01*
X174547619Y-98027676D02*
X174452381Y-98122914D01*
X174452381Y-98122914D02*
X174357143Y-98170533D01*
X175357143Y-98218152D02*
X175357143Y-98884819D01*
X175357143Y-98313390D02*
X175404762Y-98265771D01*
X175404762Y-98265771D02*
X175500000Y-98218152D01*
X175500000Y-98218152D02*
X175642857Y-98218152D01*
X175642857Y-98218152D02*
X175738095Y-98265771D01*
X175738095Y-98265771D02*
X175785714Y-98361009D01*
X175785714Y-98361009D02*
X175785714Y-98884819D01*
X176595238Y-98361009D02*
X176261905Y-98361009D01*
X176261905Y-98884819D02*
X176261905Y-97884819D01*
X176261905Y-97884819D02*
X176738095Y-97884819D01*
X177071429Y-97980057D02*
X177119048Y-97932438D01*
X177119048Y-97932438D02*
X177214286Y-97884819D01*
X177214286Y-97884819D02*
X177452381Y-97884819D01*
X177452381Y-97884819D02*
X177547619Y-97932438D01*
X177547619Y-97932438D02*
X177595238Y-97980057D01*
X177595238Y-97980057D02*
X177642857Y-98075295D01*
X177642857Y-98075295D02*
X177642857Y-98170533D01*
X177642857Y-98170533D02*
X177595238Y-98313390D01*
X177595238Y-98313390D02*
X177023810Y-98884819D01*
X177023810Y-98884819D02*
X177642857Y-98884819D01*
X165502380Y-109954819D02*
X164930952Y-109954819D01*
X165216666Y-109954819D02*
X165216666Y-108954819D01*
X165216666Y-108954819D02*
X165121428Y-109097676D01*
X165121428Y-109097676D02*
X165026190Y-109192914D01*
X165026190Y-109192914D02*
X164930952Y-109240533D01*
X166121428Y-108954819D02*
X166216666Y-108954819D01*
X166216666Y-108954819D02*
X166311904Y-109002438D01*
X166311904Y-109002438D02*
X166359523Y-109050057D01*
X166359523Y-109050057D02*
X166407142Y-109145295D01*
X166407142Y-109145295D02*
X166454761Y-109335771D01*
X166454761Y-109335771D02*
X166454761Y-109573866D01*
X166454761Y-109573866D02*
X166407142Y-109764342D01*
X166407142Y-109764342D02*
X166359523Y-109859580D01*
X166359523Y-109859580D02*
X166311904Y-109907200D01*
X166311904Y-109907200D02*
X166216666Y-109954819D01*
X166216666Y-109954819D02*
X166121428Y-109954819D01*
X166121428Y-109954819D02*
X166026190Y-109907200D01*
X166026190Y-109907200D02*
X165978571Y-109859580D01*
X165978571Y-109859580D02*
X165930952Y-109764342D01*
X165930952Y-109764342D02*
X165883333Y-109573866D01*
X165883333Y-109573866D02*
X165883333Y-109335771D01*
X165883333Y-109335771D02*
X165930952Y-109145295D01*
X165930952Y-109145295D02*
X165978571Y-109050057D01*
X165978571Y-109050057D02*
X166026190Y-109002438D01*
X166026190Y-109002438D02*
X166121428Y-108954819D01*
X167311904Y-109288152D02*
X167311904Y-109954819D01*
X166883333Y-109288152D02*
X166883333Y-109811961D01*
X166883333Y-109811961D02*
X166930952Y-109907200D01*
X166930952Y-109907200D02*
X167026190Y-109954819D01*
X167026190Y-109954819D02*
X167169047Y-109954819D01*
X167169047Y-109954819D02*
X167264285Y-109907200D01*
X167264285Y-109907200D02*
X167311904Y-109859580D01*
X168121428Y-109431009D02*
X167788095Y-109431009D01*
X167788095Y-109954819D02*
X167788095Y-108954819D01*
X167788095Y-108954819D02*
X168264285Y-108954819D01*
X168597619Y-109050057D02*
X168645238Y-109002438D01*
X168645238Y-109002438D02*
X168740476Y-108954819D01*
X168740476Y-108954819D02*
X168978571Y-108954819D01*
X168978571Y-108954819D02*
X169073809Y-109002438D01*
X169073809Y-109002438D02*
X169121428Y-109050057D01*
X169121428Y-109050057D02*
X169169047Y-109145295D01*
X169169047Y-109145295D02*
X169169047Y-109240533D01*
X169169047Y-109240533D02*
X169121428Y-109383390D01*
X169121428Y-109383390D02*
X168550000Y-109954819D01*
X168550000Y-109954819D02*
X169169047Y-109954819D01*
X139463095Y-106454819D02*
X139463095Y-107264342D01*
X139463095Y-107264342D02*
X139510714Y-107359580D01*
X139510714Y-107359580D02*
X139558333Y-107407200D01*
X139558333Y-107407200D02*
X139653571Y-107454819D01*
X139653571Y-107454819D02*
X139844047Y-107454819D01*
X139844047Y-107454819D02*
X139939285Y-107407200D01*
X139939285Y-107407200D02*
X139986904Y-107359580D01*
X139986904Y-107359580D02*
X140034523Y-107264342D01*
X140034523Y-107264342D02*
X140034523Y-106454819D01*
X141034523Y-107454819D02*
X140463095Y-107454819D01*
X140748809Y-107454819D02*
X140748809Y-106454819D01*
X140748809Y-106454819D02*
X140653571Y-106597676D01*
X140653571Y-106597676D02*
X140558333Y-106692914D01*
X140558333Y-106692914D02*
X140463095Y-106740533D01*
X152384819Y-83367857D02*
X151908628Y-83701190D01*
X152384819Y-83939285D02*
X151384819Y-83939285D01*
X151384819Y-83939285D02*
X151384819Y-83558333D01*
X151384819Y-83558333D02*
X151432438Y-83463095D01*
X151432438Y-83463095D02*
X151480057Y-83415476D01*
X151480057Y-83415476D02*
X151575295Y-83367857D01*
X151575295Y-83367857D02*
X151718152Y-83367857D01*
X151718152Y-83367857D02*
X151813390Y-83415476D01*
X151813390Y-83415476D02*
X151861009Y-83463095D01*
X151861009Y-83463095D02*
X151908628Y-83558333D01*
X151908628Y-83558333D02*
X151908628Y-83939285D01*
X152384819Y-82415476D02*
X152384819Y-82986904D01*
X152384819Y-82701190D02*
X151384819Y-82701190D01*
X151384819Y-82701190D02*
X151527676Y-82796428D01*
X151527676Y-82796428D02*
X151622914Y-82891666D01*
X151622914Y-82891666D02*
X151670533Y-82986904D01*
X151480057Y-82034523D02*
X151432438Y-81986904D01*
X151432438Y-81986904D02*
X151384819Y-81891666D01*
X151384819Y-81891666D02*
X151384819Y-81653571D01*
X151384819Y-81653571D02*
X151432438Y-81558333D01*
X151432438Y-81558333D02*
X151480057Y-81510714D01*
X151480057Y-81510714D02*
X151575295Y-81463095D01*
X151575295Y-81463095D02*
X151670533Y-81463095D01*
X151670533Y-81463095D02*
X151813390Y-81510714D01*
X151813390Y-81510714D02*
X152384819Y-82082142D01*
X152384819Y-82082142D02*
X152384819Y-81463095D01*
X176121666Y-82454819D02*
X176121666Y-83169104D01*
X176121666Y-83169104D02*
X176074047Y-83311961D01*
X176074047Y-83311961D02*
X175978809Y-83407200D01*
X175978809Y-83407200D02*
X175835952Y-83454819D01*
X175835952Y-83454819D02*
X175740714Y-83454819D01*
X177121666Y-83454819D02*
X176550238Y-83454819D01*
X176835952Y-83454819D02*
X176835952Y-82454819D01*
X176835952Y-82454819D02*
X176740714Y-82597676D01*
X176740714Y-82597676D02*
X176645476Y-82692914D01*
X176645476Y-82692914D02*
X176550238Y-82740533D01*
X162384819Y-82891666D02*
X161908628Y-83224999D01*
X162384819Y-83463094D02*
X161384819Y-83463094D01*
X161384819Y-83463094D02*
X161384819Y-83082142D01*
X161384819Y-83082142D02*
X161432438Y-82986904D01*
X161432438Y-82986904D02*
X161480057Y-82939285D01*
X161480057Y-82939285D02*
X161575295Y-82891666D01*
X161575295Y-82891666D02*
X161718152Y-82891666D01*
X161718152Y-82891666D02*
X161813390Y-82939285D01*
X161813390Y-82939285D02*
X161861009Y-82986904D01*
X161861009Y-82986904D02*
X161908628Y-83082142D01*
X161908628Y-83082142D02*
X161908628Y-83463094D01*
X161813390Y-82320237D02*
X161765771Y-82415475D01*
X161765771Y-82415475D02*
X161718152Y-82463094D01*
X161718152Y-82463094D02*
X161622914Y-82510713D01*
X161622914Y-82510713D02*
X161575295Y-82510713D01*
X161575295Y-82510713D02*
X161480057Y-82463094D01*
X161480057Y-82463094D02*
X161432438Y-82415475D01*
X161432438Y-82415475D02*
X161384819Y-82320237D01*
X161384819Y-82320237D02*
X161384819Y-82129761D01*
X161384819Y-82129761D02*
X161432438Y-82034523D01*
X161432438Y-82034523D02*
X161480057Y-81986904D01*
X161480057Y-81986904D02*
X161575295Y-81939285D01*
X161575295Y-81939285D02*
X161622914Y-81939285D01*
X161622914Y-81939285D02*
X161718152Y-81986904D01*
X161718152Y-81986904D02*
X161765771Y-82034523D01*
X161765771Y-82034523D02*
X161813390Y-82129761D01*
X161813390Y-82129761D02*
X161813390Y-82320237D01*
X161813390Y-82320237D02*
X161861009Y-82415475D01*
X161861009Y-82415475D02*
X161908628Y-82463094D01*
X161908628Y-82463094D02*
X162003866Y-82510713D01*
X162003866Y-82510713D02*
X162194342Y-82510713D01*
X162194342Y-82510713D02*
X162289580Y-82463094D01*
X162289580Y-82463094D02*
X162337200Y-82415475D01*
X162337200Y-82415475D02*
X162384819Y-82320237D01*
X162384819Y-82320237D02*
X162384819Y-82129761D01*
X162384819Y-82129761D02*
X162337200Y-82034523D01*
X162337200Y-82034523D02*
X162289580Y-81986904D01*
X162289580Y-81986904D02*
X162194342Y-81939285D01*
X162194342Y-81939285D02*
X162003866Y-81939285D01*
X162003866Y-81939285D02*
X161908628Y-81986904D01*
X161908628Y-81986904D02*
X161861009Y-82034523D01*
X161861009Y-82034523D02*
X161813390Y-82129761D01*
X180109819Y-92941666D02*
X179633628Y-93274999D01*
X180109819Y-93513094D02*
X179109819Y-93513094D01*
X179109819Y-93513094D02*
X179109819Y-93132142D01*
X179109819Y-93132142D02*
X179157438Y-93036904D01*
X179157438Y-93036904D02*
X179205057Y-92989285D01*
X179205057Y-92989285D02*
X179300295Y-92941666D01*
X179300295Y-92941666D02*
X179443152Y-92941666D01*
X179443152Y-92941666D02*
X179538390Y-92989285D01*
X179538390Y-92989285D02*
X179586009Y-93036904D01*
X179586009Y-93036904D02*
X179633628Y-93132142D01*
X179633628Y-93132142D02*
X179633628Y-93513094D01*
X179205057Y-92560713D02*
X179157438Y-92513094D01*
X179157438Y-92513094D02*
X179109819Y-92417856D01*
X179109819Y-92417856D02*
X179109819Y-92179761D01*
X179109819Y-92179761D02*
X179157438Y-92084523D01*
X179157438Y-92084523D02*
X179205057Y-92036904D01*
X179205057Y-92036904D02*
X179300295Y-91989285D01*
X179300295Y-91989285D02*
X179395533Y-91989285D01*
X179395533Y-91989285D02*
X179538390Y-92036904D01*
X179538390Y-92036904D02*
X180109819Y-92608332D01*
X180109819Y-92608332D02*
X180109819Y-91989285D01*
X175575595Y-99479819D02*
X175575595Y-100289342D01*
X175575595Y-100289342D02*
X175623214Y-100384580D01*
X175623214Y-100384580D02*
X175670833Y-100432200D01*
X175670833Y-100432200D02*
X175766071Y-100479819D01*
X175766071Y-100479819D02*
X175956547Y-100479819D01*
X175956547Y-100479819D02*
X176051785Y-100432200D01*
X176051785Y-100432200D02*
X176099404Y-100384580D01*
X176099404Y-100384580D02*
X176147023Y-100289342D01*
X176147023Y-100289342D02*
X176147023Y-99479819D01*
X176575595Y-99575057D02*
X176623214Y-99527438D01*
X176623214Y-99527438D02*
X176718452Y-99479819D01*
X176718452Y-99479819D02*
X176956547Y-99479819D01*
X176956547Y-99479819D02*
X177051785Y-99527438D01*
X177051785Y-99527438D02*
X177099404Y-99575057D01*
X177099404Y-99575057D02*
X177147023Y-99670295D01*
X177147023Y-99670295D02*
X177147023Y-99765533D01*
X177147023Y-99765533D02*
X177099404Y-99908390D01*
X177099404Y-99908390D02*
X176527976Y-100479819D01*
X176527976Y-100479819D02*
X177147023Y-100479819D01*
X169283333Y-91024819D02*
X168950000Y-90548628D01*
X168711905Y-91024819D02*
X168711905Y-90024819D01*
X168711905Y-90024819D02*
X169092857Y-90024819D01*
X169092857Y-90024819D02*
X169188095Y-90072438D01*
X169188095Y-90072438D02*
X169235714Y-90120057D01*
X169235714Y-90120057D02*
X169283333Y-90215295D01*
X169283333Y-90215295D02*
X169283333Y-90358152D01*
X169283333Y-90358152D02*
X169235714Y-90453390D01*
X169235714Y-90453390D02*
X169188095Y-90501009D01*
X169188095Y-90501009D02*
X169092857Y-90548628D01*
X169092857Y-90548628D02*
X168711905Y-90548628D01*
X169616667Y-90024819D02*
X170235714Y-90024819D01*
X170235714Y-90024819D02*
X169902381Y-90405771D01*
X169902381Y-90405771D02*
X170045238Y-90405771D01*
X170045238Y-90405771D02*
X170140476Y-90453390D01*
X170140476Y-90453390D02*
X170188095Y-90501009D01*
X170188095Y-90501009D02*
X170235714Y-90596247D01*
X170235714Y-90596247D02*
X170235714Y-90834342D01*
X170235714Y-90834342D02*
X170188095Y-90929580D01*
X170188095Y-90929580D02*
X170140476Y-90977200D01*
X170140476Y-90977200D02*
X170045238Y-91024819D01*
X170045238Y-91024819D02*
X169759524Y-91024819D01*
X169759524Y-91024819D02*
X169664286Y-90977200D01*
X169664286Y-90977200D02*
X169616667Y-90929580D01*
X164880952Y-101454819D02*
X164976190Y-101454819D01*
X164976190Y-101454819D02*
X165071428Y-101502438D01*
X165071428Y-101502438D02*
X165119047Y-101550057D01*
X165119047Y-101550057D02*
X165166666Y-101645295D01*
X165166666Y-101645295D02*
X165214285Y-101835771D01*
X165214285Y-101835771D02*
X165214285Y-102073866D01*
X165214285Y-102073866D02*
X165166666Y-102264342D01*
X165166666Y-102264342D02*
X165119047Y-102359580D01*
X165119047Y-102359580D02*
X165071428Y-102407200D01*
X165071428Y-102407200D02*
X164976190Y-102454819D01*
X164976190Y-102454819D02*
X164880952Y-102454819D01*
X164880952Y-102454819D02*
X164785714Y-102407200D01*
X164785714Y-102407200D02*
X164738095Y-102359580D01*
X164738095Y-102359580D02*
X164690476Y-102264342D01*
X164690476Y-102264342D02*
X164642857Y-102073866D01*
X164642857Y-102073866D02*
X164642857Y-101835771D01*
X164642857Y-101835771D02*
X164690476Y-101645295D01*
X164690476Y-101645295D02*
X164738095Y-101550057D01*
X164738095Y-101550057D02*
X164785714Y-101502438D01*
X164785714Y-101502438D02*
X164880952Y-101454819D01*
X165642857Y-102359580D02*
X165690476Y-102407200D01*
X165690476Y-102407200D02*
X165642857Y-102454819D01*
X165642857Y-102454819D02*
X165595238Y-102407200D01*
X165595238Y-102407200D02*
X165642857Y-102359580D01*
X165642857Y-102359580D02*
X165642857Y-102454819D01*
X166642856Y-102454819D02*
X166071428Y-102454819D01*
X166357142Y-102454819D02*
X166357142Y-101454819D01*
X166357142Y-101454819D02*
X166261904Y-101597676D01*
X166261904Y-101597676D02*
X166166666Y-101692914D01*
X166166666Y-101692914D02*
X166071428Y-101740533D01*
X167499999Y-101788152D02*
X167499999Y-102454819D01*
X167071428Y-101788152D02*
X167071428Y-102311961D01*
X167071428Y-102311961D02*
X167119047Y-102407200D01*
X167119047Y-102407200D02*
X167214285Y-102454819D01*
X167214285Y-102454819D02*
X167357142Y-102454819D01*
X167357142Y-102454819D02*
X167452380Y-102407200D01*
X167452380Y-102407200D02*
X167499999Y-102359580D01*
X168309523Y-101931009D02*
X167976190Y-101931009D01*
X167976190Y-102454819D02*
X167976190Y-101454819D01*
X167976190Y-101454819D02*
X168452380Y-101454819D01*
X168785714Y-101550057D02*
X168833333Y-101502438D01*
X168833333Y-101502438D02*
X168928571Y-101454819D01*
X168928571Y-101454819D02*
X169166666Y-101454819D01*
X169166666Y-101454819D02*
X169261904Y-101502438D01*
X169261904Y-101502438D02*
X169309523Y-101550057D01*
X169309523Y-101550057D02*
X169357142Y-101645295D01*
X169357142Y-101645295D02*
X169357142Y-101740533D01*
X169357142Y-101740533D02*
X169309523Y-101883390D01*
X169309523Y-101883390D02*
X168738095Y-102454819D01*
X168738095Y-102454819D02*
X169357142Y-102454819D01*
X149884819Y-83367857D02*
X149408628Y-83701190D01*
X149884819Y-83939285D02*
X148884819Y-83939285D01*
X148884819Y-83939285D02*
X148884819Y-83558333D01*
X148884819Y-83558333D02*
X148932438Y-83463095D01*
X148932438Y-83463095D02*
X148980057Y-83415476D01*
X148980057Y-83415476D02*
X149075295Y-83367857D01*
X149075295Y-83367857D02*
X149218152Y-83367857D01*
X149218152Y-83367857D02*
X149313390Y-83415476D01*
X149313390Y-83415476D02*
X149361009Y-83463095D01*
X149361009Y-83463095D02*
X149408628Y-83558333D01*
X149408628Y-83558333D02*
X149408628Y-83939285D01*
X149884819Y-82415476D02*
X149884819Y-82986904D01*
X149884819Y-82701190D02*
X148884819Y-82701190D01*
X148884819Y-82701190D02*
X149027676Y-82796428D01*
X149027676Y-82796428D02*
X149122914Y-82891666D01*
X149122914Y-82891666D02*
X149170533Y-82986904D01*
X148884819Y-82082142D02*
X148884819Y-81463095D01*
X148884819Y-81463095D02*
X149265771Y-81796428D01*
X149265771Y-81796428D02*
X149265771Y-81653571D01*
X149265771Y-81653571D02*
X149313390Y-81558333D01*
X149313390Y-81558333D02*
X149361009Y-81510714D01*
X149361009Y-81510714D02*
X149456247Y-81463095D01*
X149456247Y-81463095D02*
X149694342Y-81463095D01*
X149694342Y-81463095D02*
X149789580Y-81510714D01*
X149789580Y-81510714D02*
X149837200Y-81558333D01*
X149837200Y-81558333D02*
X149884819Y-81653571D01*
X149884819Y-81653571D02*
X149884819Y-81939285D01*
X149884819Y-81939285D02*
X149837200Y-82034523D01*
X149837200Y-82034523D02*
X149789580Y-82082142D01*
X120166666Y-88454819D02*
X120166666Y-89169104D01*
X120166666Y-89169104D02*
X120119047Y-89311961D01*
X120119047Y-89311961D02*
X120023809Y-89407200D01*
X120023809Y-89407200D02*
X119880952Y-89454819D01*
X119880952Y-89454819D02*
X119785714Y-89454819D01*
X121119047Y-88454819D02*
X120642857Y-88454819D01*
X120642857Y-88454819D02*
X120595238Y-88931009D01*
X120595238Y-88931009D02*
X120642857Y-88883390D01*
X120642857Y-88883390D02*
X120738095Y-88835771D01*
X120738095Y-88835771D02*
X120976190Y-88835771D01*
X120976190Y-88835771D02*
X121071428Y-88883390D01*
X121071428Y-88883390D02*
X121119047Y-88931009D01*
X121119047Y-88931009D02*
X121166666Y-89026247D01*
X121166666Y-89026247D02*
X121166666Y-89264342D01*
X121166666Y-89264342D02*
X121119047Y-89359580D01*
X121119047Y-89359580D02*
X121071428Y-89407200D01*
X121071428Y-89407200D02*
X120976190Y-89454819D01*
X120976190Y-89454819D02*
X120738095Y-89454819D01*
X120738095Y-89454819D02*
X120642857Y-89407200D01*
X120642857Y-89407200D02*
X120595238Y-89359580D01*
X149986905Y-94454819D02*
X149986905Y-93454819D01*
X149986905Y-93454819D02*
X150225000Y-93454819D01*
X150225000Y-93454819D02*
X150367857Y-93502438D01*
X150367857Y-93502438D02*
X150463095Y-93597676D01*
X150463095Y-93597676D02*
X150510714Y-93692914D01*
X150510714Y-93692914D02*
X150558333Y-93883390D01*
X150558333Y-93883390D02*
X150558333Y-94026247D01*
X150558333Y-94026247D02*
X150510714Y-94216723D01*
X150510714Y-94216723D02*
X150463095Y-94311961D01*
X150463095Y-94311961D02*
X150367857Y-94407200D01*
X150367857Y-94407200D02*
X150225000Y-94454819D01*
X150225000Y-94454819D02*
X149986905Y-94454819D01*
X151510714Y-94454819D02*
X150939286Y-94454819D01*
X151225000Y-94454819D02*
X151225000Y-93454819D01*
X151225000Y-93454819D02*
X151129762Y-93597676D01*
X151129762Y-93597676D02*
X151034524Y-93692914D01*
X151034524Y-93692914D02*
X150939286Y-93740533D01*
X171170810Y-116070140D02*
X170694619Y-116403473D01*
X171170810Y-116641568D02*
X170170810Y-116641568D01*
X170170810Y-116641568D02*
X170170810Y-116260616D01*
X170170810Y-116260616D02*
X170218429Y-116165378D01*
X170218429Y-116165378D02*
X170266048Y-116117759D01*
X170266048Y-116117759D02*
X170361286Y-116070140D01*
X170361286Y-116070140D02*
X170504143Y-116070140D01*
X170504143Y-116070140D02*
X170599381Y-116117759D01*
X170599381Y-116117759D02*
X170647000Y-116165378D01*
X170647000Y-116165378D02*
X170694619Y-116260616D01*
X170694619Y-116260616D02*
X170694619Y-116641568D01*
X170504143Y-115212997D02*
X171170810Y-115212997D01*
X170123191Y-115451092D02*
X170837476Y-115689187D01*
X170837476Y-115689187D02*
X170837476Y-115070140D01*
X175609819Y-92941666D02*
X175133628Y-93274999D01*
X175609819Y-93513094D02*
X174609819Y-93513094D01*
X174609819Y-93513094D02*
X174609819Y-93132142D01*
X174609819Y-93132142D02*
X174657438Y-93036904D01*
X174657438Y-93036904D02*
X174705057Y-92989285D01*
X174705057Y-92989285D02*
X174800295Y-92941666D01*
X174800295Y-92941666D02*
X174943152Y-92941666D01*
X174943152Y-92941666D02*
X175038390Y-92989285D01*
X175038390Y-92989285D02*
X175086009Y-93036904D01*
X175086009Y-93036904D02*
X175133628Y-93132142D01*
X175133628Y-93132142D02*
X175133628Y-93513094D01*
X175609819Y-91989285D02*
X175609819Y-92560713D01*
X175609819Y-92274999D02*
X174609819Y-92274999D01*
X174609819Y-92274999D02*
X174752676Y-92370237D01*
X174752676Y-92370237D02*
X174847914Y-92465475D01*
X174847914Y-92465475D02*
X174895533Y-92560713D01*
X151609819Y-108441666D02*
X151133628Y-108774999D01*
X151609819Y-109013094D02*
X150609819Y-109013094D01*
X150609819Y-109013094D02*
X150609819Y-108632142D01*
X150609819Y-108632142D02*
X150657438Y-108536904D01*
X150657438Y-108536904D02*
X150705057Y-108489285D01*
X150705057Y-108489285D02*
X150800295Y-108441666D01*
X150800295Y-108441666D02*
X150943152Y-108441666D01*
X150943152Y-108441666D02*
X151038390Y-108489285D01*
X151038390Y-108489285D02*
X151086009Y-108536904D01*
X151086009Y-108536904D02*
X151133628Y-108632142D01*
X151133628Y-108632142D02*
X151133628Y-109013094D01*
X150609819Y-107584523D02*
X150609819Y-107774999D01*
X150609819Y-107774999D02*
X150657438Y-107870237D01*
X150657438Y-107870237D02*
X150705057Y-107917856D01*
X150705057Y-107917856D02*
X150847914Y-108013094D01*
X150847914Y-108013094D02*
X151038390Y-108060713D01*
X151038390Y-108060713D02*
X151419342Y-108060713D01*
X151419342Y-108060713D02*
X151514580Y-108013094D01*
X151514580Y-108013094D02*
X151562200Y-107965475D01*
X151562200Y-107965475D02*
X151609819Y-107870237D01*
X151609819Y-107870237D02*
X151609819Y-107679761D01*
X151609819Y-107679761D02*
X151562200Y-107584523D01*
X151562200Y-107584523D02*
X151514580Y-107536904D01*
X151514580Y-107536904D02*
X151419342Y-107489285D01*
X151419342Y-107489285D02*
X151181247Y-107489285D01*
X151181247Y-107489285D02*
X151086009Y-107536904D01*
X151086009Y-107536904D02*
X151038390Y-107584523D01*
X151038390Y-107584523D02*
X150990771Y-107679761D01*
X150990771Y-107679761D02*
X150990771Y-107870237D01*
X150990771Y-107870237D02*
X151038390Y-107965475D01*
X151038390Y-107965475D02*
X151086009Y-108013094D01*
X151086009Y-108013094D02*
X151181247Y-108060713D01*
X160833333Y-104539580D02*
X160785714Y-104587200D01*
X160785714Y-104587200D02*
X160642857Y-104634819D01*
X160642857Y-104634819D02*
X160547619Y-104634819D01*
X160547619Y-104634819D02*
X160404762Y-104587200D01*
X160404762Y-104587200D02*
X160309524Y-104491961D01*
X160309524Y-104491961D02*
X160261905Y-104396723D01*
X160261905Y-104396723D02*
X160214286Y-104206247D01*
X160214286Y-104206247D02*
X160214286Y-104063390D01*
X160214286Y-104063390D02*
X160261905Y-103872914D01*
X160261905Y-103872914D02*
X160309524Y-103777676D01*
X160309524Y-103777676D02*
X160404762Y-103682438D01*
X160404762Y-103682438D02*
X160547619Y-103634819D01*
X160547619Y-103634819D02*
X160642857Y-103634819D01*
X160642857Y-103634819D02*
X160785714Y-103682438D01*
X160785714Y-103682438D02*
X160833333Y-103730057D01*
X161785714Y-104634819D02*
X161214286Y-104634819D01*
X161500000Y-104634819D02*
X161500000Y-103634819D01*
X161500000Y-103634819D02*
X161404762Y-103777676D01*
X161404762Y-103777676D02*
X161309524Y-103872914D01*
X161309524Y-103872914D02*
X161214286Y-103920533D01*
X147384819Y-83417857D02*
X146908628Y-83751190D01*
X147384819Y-83989285D02*
X146384819Y-83989285D01*
X146384819Y-83989285D02*
X146384819Y-83608333D01*
X146384819Y-83608333D02*
X146432438Y-83513095D01*
X146432438Y-83513095D02*
X146480057Y-83465476D01*
X146480057Y-83465476D02*
X146575295Y-83417857D01*
X146575295Y-83417857D02*
X146718152Y-83417857D01*
X146718152Y-83417857D02*
X146813390Y-83465476D01*
X146813390Y-83465476D02*
X146861009Y-83513095D01*
X146861009Y-83513095D02*
X146908628Y-83608333D01*
X146908628Y-83608333D02*
X146908628Y-83989285D01*
X147384819Y-82465476D02*
X147384819Y-83036904D01*
X147384819Y-82751190D02*
X146384819Y-82751190D01*
X146384819Y-82751190D02*
X146527676Y-82846428D01*
X146527676Y-82846428D02*
X146622914Y-82941666D01*
X146622914Y-82941666D02*
X146670533Y-83036904D01*
X146718152Y-81608333D02*
X147384819Y-81608333D01*
X146337200Y-81846428D02*
X147051485Y-82084523D01*
X147051485Y-82084523D02*
X147051485Y-81465476D01*
X175463095Y-110454819D02*
X175463095Y-111264342D01*
X175463095Y-111264342D02*
X175510714Y-111359580D01*
X175510714Y-111359580D02*
X175558333Y-111407200D01*
X175558333Y-111407200D02*
X175653571Y-111454819D01*
X175653571Y-111454819D02*
X175844047Y-111454819D01*
X175844047Y-111454819D02*
X175939285Y-111407200D01*
X175939285Y-111407200D02*
X175986904Y-111359580D01*
X175986904Y-111359580D02*
X176034523Y-111264342D01*
X176034523Y-111264342D02*
X176034523Y-110454819D01*
X176415476Y-110454819D02*
X177034523Y-110454819D01*
X177034523Y-110454819D02*
X176701190Y-110835771D01*
X176701190Y-110835771D02*
X176844047Y-110835771D01*
X176844047Y-110835771D02*
X176939285Y-110883390D01*
X176939285Y-110883390D02*
X176986904Y-110931009D01*
X176986904Y-110931009D02*
X177034523Y-111026247D01*
X177034523Y-111026247D02*
X177034523Y-111264342D01*
X177034523Y-111264342D02*
X176986904Y-111359580D01*
X176986904Y-111359580D02*
X176939285Y-111407200D01*
X176939285Y-111407200D02*
X176844047Y-111454819D01*
X176844047Y-111454819D02*
X176558333Y-111454819D01*
X176558333Y-111454819D02*
X176463095Y-111407200D01*
X176463095Y-111407200D02*
X176415476Y-111359580D01*
X151679819Y-112513094D02*
X150679819Y-112513094D01*
X150679819Y-112513094D02*
X150679819Y-112274999D01*
X150679819Y-112274999D02*
X150727438Y-112132142D01*
X150727438Y-112132142D02*
X150822676Y-112036904D01*
X150822676Y-112036904D02*
X150917914Y-111989285D01*
X150917914Y-111989285D02*
X151108390Y-111941666D01*
X151108390Y-111941666D02*
X151251247Y-111941666D01*
X151251247Y-111941666D02*
X151441723Y-111989285D01*
X151441723Y-111989285D02*
X151536961Y-112036904D01*
X151536961Y-112036904D02*
X151632200Y-112132142D01*
X151632200Y-112132142D02*
X151679819Y-112274999D01*
X151679819Y-112274999D02*
X151679819Y-112513094D01*
X150775057Y-111560713D02*
X150727438Y-111513094D01*
X150727438Y-111513094D02*
X150679819Y-111417856D01*
X150679819Y-111417856D02*
X150679819Y-111179761D01*
X150679819Y-111179761D02*
X150727438Y-111084523D01*
X150727438Y-111084523D02*
X150775057Y-111036904D01*
X150775057Y-111036904D02*
X150870295Y-110989285D01*
X150870295Y-110989285D02*
X150965533Y-110989285D01*
X150965533Y-110989285D02*
X151108390Y-111036904D01*
X151108390Y-111036904D02*
X151679819Y-111608332D01*
X151679819Y-111608332D02*
X151679819Y-110989285D01*
X186677380Y-99454819D02*
X186105952Y-99454819D01*
X186391666Y-99454819D02*
X186391666Y-98454819D01*
X186391666Y-98454819D02*
X186296428Y-98597676D01*
X186296428Y-98597676D02*
X186201190Y-98692914D01*
X186201190Y-98692914D02*
X186105952Y-98740533D01*
X187296428Y-98454819D02*
X187391666Y-98454819D01*
X187391666Y-98454819D02*
X187486904Y-98502438D01*
X187486904Y-98502438D02*
X187534523Y-98550057D01*
X187534523Y-98550057D02*
X187582142Y-98645295D01*
X187582142Y-98645295D02*
X187629761Y-98835771D01*
X187629761Y-98835771D02*
X187629761Y-99073866D01*
X187629761Y-99073866D02*
X187582142Y-99264342D01*
X187582142Y-99264342D02*
X187534523Y-99359580D01*
X187534523Y-99359580D02*
X187486904Y-99407200D01*
X187486904Y-99407200D02*
X187391666Y-99454819D01*
X187391666Y-99454819D02*
X187296428Y-99454819D01*
X187296428Y-99454819D02*
X187201190Y-99407200D01*
X187201190Y-99407200D02*
X187153571Y-99359580D01*
X187153571Y-99359580D02*
X187105952Y-99264342D01*
X187105952Y-99264342D02*
X187058333Y-99073866D01*
X187058333Y-99073866D02*
X187058333Y-98835771D01*
X187058333Y-98835771D02*
X187105952Y-98645295D01*
X187105952Y-98645295D02*
X187153571Y-98550057D01*
X187153571Y-98550057D02*
X187201190Y-98502438D01*
X187201190Y-98502438D02*
X187296428Y-98454819D01*
X188486904Y-98788152D02*
X188486904Y-99454819D01*
X188058333Y-98788152D02*
X188058333Y-99311961D01*
X188058333Y-99311961D02*
X188105952Y-99407200D01*
X188105952Y-99407200D02*
X188201190Y-99454819D01*
X188201190Y-99454819D02*
X188344047Y-99454819D01*
X188344047Y-99454819D02*
X188439285Y-99407200D01*
X188439285Y-99407200D02*
X188486904Y-99359580D01*
X189296428Y-98931009D02*
X188963095Y-98931009D01*
X188963095Y-99454819D02*
X188963095Y-98454819D01*
X188963095Y-98454819D02*
X189439285Y-98454819D01*
X190344047Y-99454819D02*
X189772619Y-99454819D01*
X190058333Y-99454819D02*
X190058333Y-98454819D01*
X190058333Y-98454819D02*
X189963095Y-98597676D01*
X189963095Y-98597676D02*
X189867857Y-98692914D01*
X189867857Y-98692914D02*
X189772619Y-98740533D01*
X147058333Y-94524819D02*
X146725000Y-94048628D01*
X146486905Y-94524819D02*
X146486905Y-93524819D01*
X146486905Y-93524819D02*
X146867857Y-93524819D01*
X146867857Y-93524819D02*
X146963095Y-93572438D01*
X146963095Y-93572438D02*
X147010714Y-93620057D01*
X147010714Y-93620057D02*
X147058333Y-93715295D01*
X147058333Y-93715295D02*
X147058333Y-93858152D01*
X147058333Y-93858152D02*
X147010714Y-93953390D01*
X147010714Y-93953390D02*
X146963095Y-94001009D01*
X146963095Y-94001009D02*
X146867857Y-94048628D01*
X146867857Y-94048628D02*
X146486905Y-94048628D01*
X147391667Y-93524819D02*
X148058333Y-93524819D01*
X148058333Y-93524819D02*
X147629762Y-94524819D01*
X159884819Y-82891666D02*
X159408628Y-83224999D01*
X159884819Y-83463094D02*
X158884819Y-83463094D01*
X158884819Y-83463094D02*
X158884819Y-83082142D01*
X158884819Y-83082142D02*
X158932438Y-82986904D01*
X158932438Y-82986904D02*
X158980057Y-82939285D01*
X158980057Y-82939285D02*
X159075295Y-82891666D01*
X159075295Y-82891666D02*
X159218152Y-82891666D01*
X159218152Y-82891666D02*
X159313390Y-82939285D01*
X159313390Y-82939285D02*
X159361009Y-82986904D01*
X159361009Y-82986904D02*
X159408628Y-83082142D01*
X159408628Y-83082142D02*
X159408628Y-83463094D01*
X159884819Y-82415475D02*
X159884819Y-82224999D01*
X159884819Y-82224999D02*
X159837200Y-82129761D01*
X159837200Y-82129761D02*
X159789580Y-82082142D01*
X159789580Y-82082142D02*
X159646723Y-81986904D01*
X159646723Y-81986904D02*
X159456247Y-81939285D01*
X159456247Y-81939285D02*
X159075295Y-81939285D01*
X159075295Y-81939285D02*
X158980057Y-81986904D01*
X158980057Y-81986904D02*
X158932438Y-82034523D01*
X158932438Y-82034523D02*
X158884819Y-82129761D01*
X158884819Y-82129761D02*
X158884819Y-82320237D01*
X158884819Y-82320237D02*
X158932438Y-82415475D01*
X158932438Y-82415475D02*
X158980057Y-82463094D01*
X158980057Y-82463094D02*
X159075295Y-82510713D01*
X159075295Y-82510713D02*
X159313390Y-82510713D01*
X159313390Y-82510713D02*
X159408628Y-82463094D01*
X159408628Y-82463094D02*
X159456247Y-82415475D01*
X159456247Y-82415475D02*
X159503866Y-82320237D01*
X159503866Y-82320237D02*
X159503866Y-82129761D01*
X159503866Y-82129761D02*
X159456247Y-82034523D01*
X159456247Y-82034523D02*
X159408628Y-81986904D01*
X159408628Y-81986904D02*
X159313390Y-81939285D01*
X155742466Y-98982687D02*
X155742466Y-99316470D01*
X155508818Y-98615527D02*
X155742466Y-98982687D01*
X155742466Y-98982687D02*
X155976113Y-98615527D01*
X156576921Y-99316470D02*
X156176382Y-99316470D01*
X156376652Y-99316470D02*
X156376652Y-98615527D01*
X156376652Y-98615527D02*
X156309895Y-98715661D01*
X156309895Y-98715661D02*
X156243139Y-98782418D01*
X156243139Y-98782418D02*
X156176382Y-98815796D01*
X170378571Y-98884819D02*
X169807143Y-98884819D01*
X170092857Y-98884819D02*
X170092857Y-97884819D01*
X170092857Y-97884819D02*
X169997619Y-98027676D01*
X169997619Y-98027676D02*
X169902381Y-98122914D01*
X169902381Y-98122914D02*
X169807143Y-98170533D01*
X170807143Y-98218152D02*
X170807143Y-98884819D01*
X170807143Y-98313390D02*
X170854762Y-98265771D01*
X170854762Y-98265771D02*
X170950000Y-98218152D01*
X170950000Y-98218152D02*
X171092857Y-98218152D01*
X171092857Y-98218152D02*
X171188095Y-98265771D01*
X171188095Y-98265771D02*
X171235714Y-98361009D01*
X171235714Y-98361009D02*
X171235714Y-98884819D01*
X172045238Y-98361009D02*
X171711905Y-98361009D01*
X171711905Y-98884819D02*
X171711905Y-97884819D01*
X171711905Y-97884819D02*
X172188095Y-97884819D01*
X173092857Y-98884819D02*
X172521429Y-98884819D01*
X172807143Y-98884819D02*
X172807143Y-97884819D01*
X172807143Y-97884819D02*
X172711905Y-98027676D01*
X172711905Y-98027676D02*
X172616667Y-98122914D01*
X172616667Y-98122914D02*
X172521429Y-98170533D01*
X157384819Y-83367857D02*
X156908628Y-83701190D01*
X157384819Y-83939285D02*
X156384819Y-83939285D01*
X156384819Y-83939285D02*
X156384819Y-83558333D01*
X156384819Y-83558333D02*
X156432438Y-83463095D01*
X156432438Y-83463095D02*
X156480057Y-83415476D01*
X156480057Y-83415476D02*
X156575295Y-83367857D01*
X156575295Y-83367857D02*
X156718152Y-83367857D01*
X156718152Y-83367857D02*
X156813390Y-83415476D01*
X156813390Y-83415476D02*
X156861009Y-83463095D01*
X156861009Y-83463095D02*
X156908628Y-83558333D01*
X156908628Y-83558333D02*
X156908628Y-83939285D01*
X157384819Y-82415476D02*
X157384819Y-82986904D01*
X157384819Y-82701190D02*
X156384819Y-82701190D01*
X156384819Y-82701190D02*
X156527676Y-82796428D01*
X156527676Y-82796428D02*
X156622914Y-82891666D01*
X156622914Y-82891666D02*
X156670533Y-82986904D01*
X156384819Y-81796428D02*
X156384819Y-81701190D01*
X156384819Y-81701190D02*
X156432438Y-81605952D01*
X156432438Y-81605952D02*
X156480057Y-81558333D01*
X156480057Y-81558333D02*
X156575295Y-81510714D01*
X156575295Y-81510714D02*
X156765771Y-81463095D01*
X156765771Y-81463095D02*
X157003866Y-81463095D01*
X157003866Y-81463095D02*
X157194342Y-81510714D01*
X157194342Y-81510714D02*
X157289580Y-81558333D01*
X157289580Y-81558333D02*
X157337200Y-81605952D01*
X157337200Y-81605952D02*
X157384819Y-81701190D01*
X157384819Y-81701190D02*
X157384819Y-81796428D01*
X157384819Y-81796428D02*
X157337200Y-81891666D01*
X157337200Y-81891666D02*
X157289580Y-81939285D01*
X157289580Y-81939285D02*
X157194342Y-81986904D01*
X157194342Y-81986904D02*
X157003866Y-82034523D01*
X157003866Y-82034523D02*
X156765771Y-82034523D01*
X156765771Y-82034523D02*
X156575295Y-81986904D01*
X156575295Y-81986904D02*
X156480057Y-81939285D01*
X156480057Y-81939285D02*
X156432438Y-81891666D01*
X156432438Y-81891666D02*
X156384819Y-81796428D01*
X160833333Y-99039580D02*
X160785714Y-99087200D01*
X160785714Y-99087200D02*
X160642857Y-99134819D01*
X160642857Y-99134819D02*
X160547619Y-99134819D01*
X160547619Y-99134819D02*
X160404762Y-99087200D01*
X160404762Y-99087200D02*
X160309524Y-98991961D01*
X160309524Y-98991961D02*
X160261905Y-98896723D01*
X160261905Y-98896723D02*
X160214286Y-98706247D01*
X160214286Y-98706247D02*
X160214286Y-98563390D01*
X160214286Y-98563390D02*
X160261905Y-98372914D01*
X160261905Y-98372914D02*
X160309524Y-98277676D01*
X160309524Y-98277676D02*
X160404762Y-98182438D01*
X160404762Y-98182438D02*
X160547619Y-98134819D01*
X160547619Y-98134819D02*
X160642857Y-98134819D01*
X160642857Y-98134819D02*
X160785714Y-98182438D01*
X160785714Y-98182438D02*
X160833333Y-98230057D01*
X161214286Y-98230057D02*
X161261905Y-98182438D01*
X161261905Y-98182438D02*
X161357143Y-98134819D01*
X161357143Y-98134819D02*
X161595238Y-98134819D01*
X161595238Y-98134819D02*
X161690476Y-98182438D01*
X161690476Y-98182438D02*
X161738095Y-98230057D01*
X161738095Y-98230057D02*
X161785714Y-98325295D01*
X161785714Y-98325295D02*
X161785714Y-98420533D01*
X161785714Y-98420533D02*
X161738095Y-98563390D01*
X161738095Y-98563390D02*
X161166667Y-99134819D01*
X161166667Y-99134819D02*
X161785714Y-99134819D01*
D13*
%TO.C,J3*%
X141580000Y-87880000D02*
X141580000Y-86500000D01*
X142960000Y-87880000D02*
X141580000Y-87880000D01*
X144230000Y-85120000D02*
X162120000Y-85120000D01*
X144230000Y-87880000D02*
X144230000Y-85120000D01*
X144230000Y-87880000D02*
X162120000Y-87880000D01*
X162120000Y-87880000D02*
X162120000Y-85120000D01*
%TO.C,R11*%
X152490000Y-82584420D02*
X152490000Y-82865580D01*
X153510000Y-82584420D02*
X153510000Y-82865580D01*
%TO.C,C3*%
X156140580Y-105990000D02*
X155859420Y-105990000D01*
X156140580Y-107010000D02*
X155859420Y-107010000D01*
%TO.C,0.1uF1*%
X184640580Y-101490000D02*
X184359420Y-101490000D01*
X184640580Y-102510000D02*
X184359420Y-102510000D01*
%TO.C,R5*%
X168775991Y-112262894D02*
X168775991Y-112544054D01*
X169795991Y-112262894D02*
X169795991Y-112544054D01*
%TO.C,J2*%
X119805000Y-117120000D02*
X119805000Y-119880000D01*
X158015000Y-117120000D02*
X119805000Y-117120000D01*
X158015000Y-117120000D02*
X158015000Y-119880000D01*
X158015000Y-119880000D02*
X119805000Y-119880000D01*
X159285000Y-117120000D02*
X160665000Y-117120000D01*
X160665000Y-117120000D02*
X160665000Y-118500000D01*
%TO.C,1nF3*%
X180640580Y-96490000D02*
X180359420Y-96490000D01*
X180640580Y-97510000D02*
X180359420Y-97510000D01*
%TO.C,1nF2*%
X176140580Y-96490000D02*
X175859420Y-96490000D01*
X176140580Y-97510000D02*
X175859420Y-97510000D01*
%TO.C,10uF2*%
X167134420Y-105990000D02*
X167415580Y-105990000D01*
X167134420Y-107010000D02*
X167415580Y-107010000D01*
D12*
%TO.C,U1*%
X136724999Y-98499999D02*
X136724999Y-98755358D01*
X136724999Y-105244642D02*
X136724999Y-105500001D01*
X136980358Y-98499999D02*
X136724999Y-98499999D01*
X136980358Y-105500001D02*
X136724999Y-105500001D01*
X143725001Y-98499999D02*
X143469642Y-98499999D01*
X143725001Y-98499999D02*
X143725001Y-98755358D01*
X143725001Y-105244642D02*
X143725001Y-105500001D01*
X143725001Y-105500001D02*
X143469642Y-105500001D01*
D11*
X144881066Y-104750000D02*
G75*
G02*
X144631064Y-104750000I-125001J0D01*
G01*
X144631064Y-104750000D02*
G75*
G02*
X144881066Y-104750000I125001J0D01*
G01*
D13*
%TO.C,R12*%
X149990000Y-82584420D02*
X149990000Y-82865580D01*
X151010000Y-82584420D02*
X151010000Y-82865580D01*
%TO.C,J1*%
X173305000Y-88220000D02*
X173305000Y-89260000D01*
X173305000Y-89260000D02*
X174105000Y-89260000D01*
X173545000Y-82280000D02*
X173545000Y-89020000D01*
X173545000Y-82280000D02*
X179365000Y-82280000D01*
X173545000Y-83999000D02*
X179365000Y-83999000D01*
X173545000Y-87100000D02*
X179365000Y-87100000D01*
X173545000Y-88100000D02*
X179365000Y-88100000D01*
X173545000Y-89020000D02*
X179365000Y-89020000D01*
X179365000Y-82280000D02*
X179365000Y-89020000D01*
%TO.C,R8*%
X159990000Y-82584420D02*
X159990000Y-82865580D01*
X161010000Y-82584420D02*
X161010000Y-82865580D01*
%TO.C,R2*%
X177715000Y-92634420D02*
X177715000Y-92915580D01*
X178735000Y-92634420D02*
X178735000Y-92915580D01*
%TO.C,U2*%
X176337500Y-100865000D02*
X174837500Y-100865000D01*
X176337500Y-100865000D02*
X177837500Y-100865000D01*
X176337500Y-104085000D02*
X174837500Y-104085000D01*
X176337500Y-104085000D02*
X177837500Y-104085000D01*
X174125000Y-101040000D02*
X173885000Y-100710000D01*
X174365000Y-100710000D01*
X174125000Y-101040000D01*
G36*
X174125000Y-101040000D02*
G01*
X173885000Y-100710000D01*
X174365000Y-100710000D01*
X174125000Y-101040000D01*
G37*
%TO.C,R3*%
X169309420Y-91490000D02*
X169590580Y-91490000D01*
X169309420Y-92510000D02*
X169590580Y-92510000D01*
%TO.C,0.1uF2*%
X167084420Y-102990000D02*
X167365580Y-102990000D01*
X167084420Y-104010000D02*
X167365580Y-104010000D01*
%TO.C,R13*%
X147490000Y-82584420D02*
X147490000Y-82865580D01*
X148510000Y-82584420D02*
X148510000Y-82865580D01*
%TO.C,J5*%
X119620000Y-85120000D02*
X119620000Y-87880000D01*
X137510000Y-85120000D02*
X119620000Y-85120000D01*
X137510000Y-85120000D02*
X137510000Y-87880000D01*
X137510000Y-87880000D02*
X119620000Y-87880000D01*
X138780000Y-85120000D02*
X140160000Y-85120000D01*
X140160000Y-85120000D02*
X140160000Y-86500000D01*
%TO.C,D1*%
X150865580Y-94990000D02*
X150584420Y-94990000D01*
X150865580Y-96010000D02*
X150584420Y-96010000D01*
%TO.C,R4*%
X168775991Y-115762894D02*
X168775991Y-116044054D01*
X169795991Y-115762894D02*
X169795991Y-116044054D01*
%TO.C,R1*%
X173215000Y-92634420D02*
X173215000Y-92915580D01*
X174235000Y-92634420D02*
X174235000Y-92915580D01*
%TO.C,R6*%
X149215000Y-108134420D02*
X149215000Y-108415580D01*
X150235000Y-108134420D02*
X150235000Y-108415580D01*
%TO.C,C1*%
X161140580Y-102240000D02*
X160859420Y-102240000D01*
X161140580Y-103260000D02*
X160859420Y-103260000D01*
%TO.C,R14*%
X144990000Y-82634420D02*
X144990000Y-82915580D01*
X146010000Y-82634420D02*
X146010000Y-82915580D01*
D14*
%TO.C,U3*%
X174104100Y-117128900D02*
X178345900Y-117128900D01*
X178345900Y-111871100D02*
X174104100Y-111871100D01*
D13*
%TO.C,D2*%
X149215000Y-111915580D02*
X149215000Y-111634420D01*
X150235000Y-111915580D02*
X150235000Y-111634420D01*
%TO.C,10uF1*%
X184640580Y-98490000D02*
X184359420Y-98490000D01*
X184640580Y-99510000D02*
X184359420Y-99510000D01*
%TO.C,R7*%
X147084420Y-94990000D02*
X147365580Y-94990000D01*
X147084420Y-96010000D02*
X147365580Y-96010000D01*
%TO.C,R9*%
X157490000Y-82584420D02*
X157490000Y-82865580D01*
X158510000Y-82584420D02*
X158510000Y-82865580D01*
D15*
%TO.C,Y1*%
X154176248Y-96000000D02*
X157976248Y-96000000D01*
X154176248Y-96350000D02*
X154176248Y-96000000D01*
X154176248Y-103600000D02*
X154176248Y-104000000D01*
X154176248Y-104000000D02*
X157976248Y-104000000D01*
X157976248Y-96000000D02*
X157976248Y-96300000D01*
X157976248Y-104000000D02*
X157976248Y-103650000D01*
D16*
X159176248Y-102750000D02*
G75*
G02*
X158976248Y-102750000I-100000J0D01*
G01*
X158976248Y-102750000D02*
G75*
G02*
X159176248Y-102750000I100000J0D01*
G01*
D13*
%TO.C,1nF1*%
X171590580Y-96490000D02*
X171309420Y-96490000D01*
X171590580Y-97510000D02*
X171309420Y-97510000D01*
%TO.C,R10*%
X154990000Y-82584420D02*
X154990000Y-82865580D01*
X156010000Y-82584420D02*
X156010000Y-82865580D01*
%TO.C,C2*%
X161140580Y-96740000D02*
X160859420Y-96740000D01*
X161140580Y-97760000D02*
X160859420Y-97760000D01*
%TD*%
M02*
