%TF.GenerationSoftware,KiCad,Pcbnew,9.0.3*%
%TF.CreationDate,2025-07-17T21:40:03-07:00*%
%TF.ProjectId,DAQ_dev_board,4441515f-6465-4765-9f62-6f6172642e6b,rev?*%
%TF.SameCoordinates,Original*%
%TF.FileFunction,Soldermask,Top*%
%TF.FilePolarity,Negative*%
%FSLAX46Y46*%
G04 Gerber Fmt 4.6, Leading zero omitted, Abs format (unit mm)*
G04 Created by KiCad (PCBNEW 9.0.3) date 2025-07-17 21:40:03*
%MOMM*%
%LPD*%
G01*
G04 APERTURE LIST*
G04 Aperture macros list*
%AMRoundRect*
0 Rectangle with rounded corners*
0 $1 Rounding radius*
0 $2 $3 $4 $5 $6 $7 $8 $9 X,Y pos of 4 corners*
0 Add a 4 corners polygon primitive as box body*
4,1,4,$2,$3,$4,$5,$6,$7,$8,$9,$2,$3,0*
0 Add four circle primitives for the rounded corners*
1,1,$1+$1,$2,$3*
1,1,$1+$1,$4,$5*
1,1,$1+$1,$6,$7*
1,1,$1+$1,$8,$9*
0 Add four rect primitives between the rounded corners*
20,1,$1+$1,$2,$3,$4,$5,0*
20,1,$1+$1,$4,$5,$6,$7,0*
20,1,$1+$1,$6,$7,$8,$9,0*
20,1,$1+$1,$8,$9,$2,$3,0*%
G04 Aperture macros list end*
%ADD10R,1.700000X1.700000*%
%ADD11C,1.700000*%
%ADD12RoundRect,0.225000X-0.250000X0.225000X-0.250000X-0.225000X0.250000X-0.225000X0.250000X0.225000X0*%
%ADD13RoundRect,0.225000X0.225000X0.250000X-0.225000X0.250000X-0.225000X-0.250000X0.225000X-0.250000X0*%
%ADD14RoundRect,0.225000X-0.225000X-0.250000X0.225000X-0.250000X0.225000X0.250000X-0.225000X0.250000X0*%
%ADD15R,1.009637X0.239283*%
%ADD16R,0.239283X1.009637*%
%ADD17R,5.200000X5.200000*%
%ADD18R,2.000000X2.000000*%
%ADD19C,2.000000*%
%ADD20C,5.600000*%
%ADD21RoundRect,0.100000X-0.712500X-0.100000X0.712500X-0.100000X0.712500X0.100000X-0.712500X0.100000X0*%
%ADD22R,1.981200X0.558800*%
%ADD23RoundRect,0.225000X0.250000X-0.225000X0.250000X0.225000X-0.250000X0.225000X-0.250000X-0.225000X0*%
%ADD24RoundRect,0.102000X0.950000X0.650000X-0.950000X0.650000X-0.950000X-0.650000X0.950000X-0.650000X0*%
G04 APERTURE END LIST*
D10*
%TO.C,J3*%
X142960000Y-86500000D03*
D11*
X145500000Y-86500000D03*
X148040000Y-86500000D03*
X150580000Y-86500000D03*
X153120000Y-86500000D03*
X155660000Y-86500000D03*
X158200000Y-86500000D03*
X160740000Y-86500000D03*
%TD*%
D12*
%TO.C,R11*%
X153000000Y-81950000D03*
X153000000Y-83500000D03*
%TD*%
D13*
%TO.C,C3*%
X156775000Y-106500000D03*
X155225000Y-106500000D03*
%TD*%
%TO.C,0.1uF1*%
X185275000Y-102000000D03*
X183725000Y-102000000D03*
%TD*%
D12*
%TO.C,R5*%
X169285991Y-111628474D03*
X169285991Y-113178474D03*
%TD*%
D10*
%TO.C,J2*%
X159285000Y-118500000D03*
D11*
X156745000Y-118500000D03*
X154205000Y-118500000D03*
X151665000Y-118500000D03*
X149125000Y-118500000D03*
X146585000Y-118500000D03*
X144045000Y-118500000D03*
X141505000Y-118500000D03*
X138965000Y-118500000D03*
X136425000Y-118500000D03*
X133885000Y-118500000D03*
X131345000Y-118500000D03*
X128805000Y-118500000D03*
X126265000Y-118500000D03*
X123725000Y-118500000D03*
X121185000Y-118500000D03*
%TD*%
D13*
%TO.C,1nF3*%
X181275000Y-97000000D03*
X179725000Y-97000000D03*
%TD*%
%TO.C,1nF2*%
X176775000Y-97000000D03*
X175225000Y-97000000D03*
%TD*%
D14*
%TO.C,10uF2*%
X166500000Y-106500000D03*
X168050000Y-106500000D03*
%TD*%
D15*
%TO.C,U1*%
X143676245Y-104750000D03*
X143676245Y-104250001D03*
X143676245Y-103749999D03*
X143676245Y-103250000D03*
X143676245Y-102749998D03*
X143676245Y-102250000D03*
X143676245Y-101750000D03*
X143676245Y-101249999D03*
X143676245Y-100750000D03*
X143676245Y-100249998D03*
X143676245Y-99749999D03*
X143676245Y-99250000D03*
D16*
X142975000Y-98548752D03*
X142475001Y-98548752D03*
X141974999Y-98548752D03*
X141475000Y-98548752D03*
X140974998Y-98548752D03*
X140475000Y-98548752D03*
X139975000Y-98548752D03*
X139474999Y-98548752D03*
X138975000Y-98548752D03*
X138474998Y-98548752D03*
X137974999Y-98548752D03*
X137475000Y-98548752D03*
D15*
X136773752Y-99250000D03*
X136773752Y-99749999D03*
X136773752Y-100249998D03*
X136773752Y-100750000D03*
X136773752Y-101249999D03*
X136773752Y-101750000D03*
X136773752Y-102250000D03*
X136773752Y-102749998D03*
X136773752Y-103250000D03*
X136773752Y-103749999D03*
X136773752Y-104250001D03*
X136773752Y-104750000D03*
D16*
X137475000Y-105451245D03*
X137974999Y-105451245D03*
X138474998Y-105451245D03*
X138975000Y-105451245D03*
X139474999Y-105451245D03*
X139975000Y-105451245D03*
X140475000Y-105451245D03*
X140974998Y-105451245D03*
X141475000Y-105451245D03*
X141974999Y-105451245D03*
X142475001Y-105451245D03*
X142975000Y-105451245D03*
D17*
X140225000Y-102000000D03*
%TD*%
D12*
%TO.C,R12*%
X150500000Y-81950000D03*
X150500000Y-83500000D03*
%TD*%
D18*
%TO.C,J1*%
X175185000Y-85500000D03*
D19*
X177725000Y-85500000D03*
%TD*%
D20*
%TO.C,REF\u002A\u002A*%
X115000000Y-83500000D03*
%TD*%
D12*
%TO.C,R8*%
X160500000Y-81950000D03*
X160500000Y-83500000D03*
%TD*%
%TO.C,R2*%
X178225000Y-92000000D03*
X178225000Y-93550000D03*
%TD*%
D21*
%TO.C,U2*%
X174225000Y-101500000D03*
X174225000Y-102150000D03*
X174225000Y-102800000D03*
X174225000Y-103450000D03*
X178450000Y-103450000D03*
X178450000Y-102800000D03*
X178450000Y-102150000D03*
X178450000Y-101500000D03*
%TD*%
D14*
%TO.C,R3*%
X168675000Y-92000000D03*
X170225000Y-92000000D03*
%TD*%
%TO.C,0.1uF2*%
X166450000Y-103500000D03*
X168000000Y-103500000D03*
%TD*%
D12*
%TO.C,R13*%
X148000000Y-81950000D03*
X148000000Y-83500000D03*
%TD*%
D10*
%TO.C,J5*%
X138780000Y-86500000D03*
D11*
X136240000Y-86500000D03*
X133700000Y-86500000D03*
X131160000Y-86500000D03*
X128620000Y-86500000D03*
X126080000Y-86500000D03*
X123540000Y-86500000D03*
X121000000Y-86500000D03*
%TD*%
D13*
%TO.C,D1*%
X151500000Y-95500000D03*
X149950000Y-95500000D03*
%TD*%
D12*
%TO.C,R4*%
X169285991Y-115128474D03*
X169285991Y-116678474D03*
%TD*%
%TO.C,R1*%
X173725000Y-92000000D03*
X173725000Y-93550000D03*
%TD*%
%TO.C,R6*%
X149725000Y-107500000D03*
X149725000Y-109050000D03*
%TD*%
D13*
%TO.C,C1*%
X161775000Y-102750000D03*
X160225000Y-102750000D03*
%TD*%
D20*
%TO.C,REF\u002A\u002A*%
X189725000Y-83500000D03*
%TD*%
D12*
%TO.C,R14*%
X145500000Y-82000000D03*
X145500000Y-83550000D03*
%TD*%
D22*
%TO.C,U3*%
X173761200Y-112595000D03*
X173761200Y-113865000D03*
X173761200Y-115135000D03*
X173761200Y-116405000D03*
X178688800Y-116405000D03*
X178688800Y-115135000D03*
X178688800Y-113865000D03*
X178688800Y-112595000D03*
%TD*%
D23*
%TO.C,D2*%
X149725000Y-112550000D03*
X149725000Y-111000000D03*
%TD*%
D13*
%TO.C,10uF1*%
X185275000Y-99000000D03*
X183725000Y-99000000D03*
%TD*%
D14*
%TO.C,R7*%
X146450000Y-95500000D03*
X148000000Y-95500000D03*
%TD*%
D12*
%TO.C,R9*%
X158000000Y-81950000D03*
X158000000Y-83500000D03*
%TD*%
D24*
%TO.C,Y1*%
X157676248Y-102750000D03*
X157676248Y-97250000D03*
X154476248Y-97250000D03*
X154476248Y-102750000D03*
%TD*%
D20*
%TO.C,REF\u002A\u002A*%
X189725000Y-118500000D03*
%TD*%
D13*
%TO.C,1nF1*%
X172225000Y-97000000D03*
X170675000Y-97000000D03*
%TD*%
D20*
%TO.C,MAD 2025*%
X115000000Y-118500000D03*
%TD*%
D12*
%TO.C,R10*%
X155500000Y-81950000D03*
X155500000Y-83500000D03*
%TD*%
D13*
%TO.C,C2*%
X161775000Y-97250000D03*
X160225000Y-97250000D03*
%TD*%
M02*
